<?xml version="1.0" encoding="UTF-8" standalone="no"?>
<!-- Generator: Adobe Illustrator 18.0.0, SVG Export Plug-In . SVG Version: 6.00 Build 0)  -->

<svg
   xmlns:dc="http://purl.org/dc/elements/1.1/"
   xmlns:cc="http://creativecommons.org/ns#"
   xmlns:rdf="http://www.w3.org/1999/02/22-rdf-syntax-ns#"
   xmlns:svg="http://www.w3.org/2000/svg"
   xmlns="http://www.w3.org/2000/svg"
   xmlns:sodipodi="http://sodipodi.sourceforge.net/DTD/sodipodi-0.dtd"
   xmlns:inkscape="http://www.inkscape.org/namespaces/inkscape"
   version="1.1"
   id="Capa_1"
   x="0px"
   y="0px"
   viewBox="0 0 310.56 310.56"
   style="enable-background:new 0 0 310.56 310.56;"
   xml:space="preserve"
   inkscape:version="0.91 r13725"
   sodipodi:docname="t1.svg"><metadata
     id="metadata99"><rdf:RDF><cc:Work
         rdf:about=""><dc:format>image/svg+xml</dc:format><dc:type
           rdf:resource="http://purl.org/dc/dcmitype/StillImage" /></cc:Work></rdf:RDF></metadata><defs
     id="defs97" /><sodipodi:namedview
     pagecolor="#ffffff"
     bordercolor="#666666"
     borderopacity="1"
     objecttolerance="10"
     gridtolerance="10"
     guidetolerance="10"
     inkscape:pageopacity="0"
     inkscape:pageshadow="2"
     inkscape:window-width="737"
     inkscape:window-height="480"
     id="namedview95"
     showgrid="false"
     inkscape:zoom="1.0775394"
     inkscape:cx="44.843199"
     inkscape:cy="155.28"
     inkscape:window-x="75"
     inkscape:window-y="34"
     inkscape:window-maximized="0"
     inkscape:current-layer="Capa_1" /><g
     id="g3"><g
       id="g5"><path
         style="fill:#ce593f"
         d="m 236.65,109.927 c -6.128,2.271 -13.803,4.43 -22.844,5.635 1.528,8.948 1.216,22.677 -9.728,35.708 -1.379,1.642 -3.394,2.618 -5.539,2.68 -0.072,0.002 -0.147,0.004 -0.221,0.004 -2.064,0 -4.042,-0.85 -5.464,-2.356 -9.34,-9.882 -27.036,-26.162 -37.572,-30.884 -10.543,4.717 -28.213,20.981 -37.535,30.852 -1.424,1.507 -3.402,2.357 -5.468,2.357 -0.072,0 -0.145,-0.001 -0.219,-0.003 -2.145,-0.063 -4.16,-1.038 -5.539,-2.68 -10.956,-13.04 -11.273,-26.771 -9.751,-35.719 -6.002,-0.803 -11.342,-2.044 -16.088,-3.442 0.71,0.208 1.383,0.426 2.122,0.625 -19.312,9.053 -48.22,31.265 -48.063,83.085 0.088,29.012 13.567,53.968 38.981,72.172 23.068,16.523 54.488,26.138 89.152,27.408 -2.517,0.089 -5.044,0.149 -7.592,0.149 37.778,0 72.246,-9.787 97.057,-27.557 25.414,-18.204 38.895,-43.16 38.983,-72.172 0.17,-58.166 -36.286,-79.043 -54.672,-85.862 z"
         id="path7"
         inkscape:connector-curvature="0" /><path
         style="fill:#ce593f"
         d="m 78.453,111.423 c -1.56,-0.497 -3.063,-1.006 -4.465,-1.525 1.403,0.519 2.901,1.029 4.465,1.525 z"
         id="path9"
         inkscape:connector-curvature="0" /></g><g
       id="g11"><path
         style="fill:#84bd93"
         d="m 228.11,93.069 c 1.592,0.704 3.194,1.432 4.811,2.209 -1.617,-0.777 -3.219,-1.504 -4.811,-2.209 z"
         id="path13"
         inkscape:connector-curvature="0" /><path
         style="fill:#84bd93"
         d="m 232.921,95.278 c -1.054,0.413 -2.196,0.825 -3.382,1.232 1.185,-0.407 2.328,-0.818 3.382,-1.232 z"
         id="path15"
         inkscape:connector-curvature="0" /><path
         style="fill:#84bd93"
         d="m 222.736,90.8 c 1.489,0.598 2.993,1.227 4.51,1.887 -1.517,-0.66 -3.02,-1.289 -4.51,-1.887 z"
         id="path17"
         inkscape:connector-curvature="0" /><path
         style="fill:#84bd93"
         d="m 217.319,88.726 c 1.486,0.538 2.997,1.118 4.518,1.718 -1.521,-0.6 -3.032,-1.179 -4.518,-1.718 z"
         id="path19"
         inkscape:connector-curvature="0" /><path
         style="fill:#84bd93"
         d="m 203.749,101.385 c 8.226,-0.406 34.24,-5.533 40.151,-7.211 -25.874,-8.948 -48.642,-15.557 -48.898,-15.546 -2.056,0.01 -3.966,-0.744 -5.403,-2.155 -1.436,-1.412 -2.254,-3.342 -2.256,-5.357 0,0 -0.005,-0.951 -0.013,-2.468 -1.477,-0.057 -2.304,-0.05 -2.355,-0.047 -2.056,0.01 -19.765,9.788 -21.203,8.378 -1.436,-1.412 -2.255,-3.342 -2.256,-5.357 0,0 -0.112,-22.664 -0.137,-25.023 -0.067,-6.412 -0.308,-11.473 3.639,-15.528 2.143,-2.2 4.82,-3.379 8.326,-4.001 l -1.386,-2.013 -2.141,0 c -15.236,0 -14.081,11.465 -14.14,11.842 l 0.018,44.728 c 0.002,2.022 -0.813,3.962 -2.258,5.377 -1.444,1.416 -3.402,2.176 -5.419,2.147 -0.283,-0.008 -20.291,-0.224 -49.609,11.403 2.669,0.37 5.472,0.65 8.418,0.797 2.505,0.125 4.783,1.492 6.074,3.643 1.291,2.151 1.422,4.804 0.352,7.073 -0.217,0.484 -4.792,10.907 0.286,22.359 9.567,-9.348 26.971,-25.057 39.527,-28.938 1.504,-0.466 3.046,-0.433 4.444,0.003 l 0.002,-0.002 c 12.56,3.89 29.975,19.613 39.547,28.967 5.161,-11.647 0.321,-22.222 0.26,-22.35 -1.071,-2.27 -0.938,-4.925 0.353,-7.077 1.29,-2.153 3.57,-3.52 6.077,-3.644 z"
         id="path21"
         inkscape:connector-curvature="0" /><path
         style="fill:#84bd93"
         d="m 91.095,99.239 c -0.394,-0.087 -0.793,-0.171 -1.178,-0.261 0.386,0.09 0.784,0.174 1.178,0.261 z"
         id="path23"
         inkscape:connector-curvature="0" /><path
         style="fill:#84bd93"
         d="m 86.861,98.213 c -0.208,-0.056 -0.402,-0.116 -0.608,-0.173 0.206,0.057 0.4,0.117 0.608,0.173 z"
         id="path25"
         inkscape:connector-curvature="0" /><path
         style="fill:#84bd93"
         d="m 83.858,97.341 c -0.325,-0.1 -0.641,-0.202 -0.958,-0.303 0.318,0.102 0.632,0.203 0.958,0.303 z"
         id="path27"
         inkscape:connector-curvature="0" /><path
         style="fill:#84bd93"
         d="m 80.965,96.394 c -0.271,-0.094 -0.546,-0.187 -0.81,-0.281 0.265,0.095 0.539,0.188 0.81,0.281 z"
         id="path29"
         inkscape:connector-curvature="0" /><path
         style="fill:#84bd93"
         d="m 98.308,100.542 c -0.37,-0.052 -0.724,-0.114 -1.089,-0.169 0.365,0.055 0.719,0.117 1.089,0.169 z"
         id="path31"
         inkscape:connector-curvature="0" /><path
         style="fill:#84bd93"
         d="m 212.83,87.177 c 1.415,0.469 2.846,0.958 4.3,1.483 -1.454,-0.525 -2.884,-1.014 -4.3,-1.483 z"
         id="path33"
         inkscape:connector-curvature="0" /><path
         style="fill:#84bd93"
         d="m 94.671,99.955 c -0.459,-0.082 -0.911,-0.169 -1.361,-0.257 0.45,0.088 0.901,0.174 1.361,0.257 z"
         id="path35"
         inkscape:connector-curvature="0" /><path
         style="fill:#84bd93"
         d="m 198.99,83.232 c 1.207,0.289 2.435,0.595 3.692,0.926 -1.258,-0.331 -2.486,-0.637 -3.692,-0.926 z"
         id="path37"
         inkscape:connector-curvature="0" /><path
         style="fill:#84bd93"
         d="m 175.322,79.406 c 0.662,0.051 1.371,0.111 2.128,0.182 -0.759,-0.072 -1.464,-0.132 -2.128,-0.182 z"
         id="path39"
         inkscape:connector-curvature="0" /><path
         style="fill:#84bd93"
         d="m 177.79,79.621 c 0.74,0.072 1.52,0.153 2.343,0.248 -0.824,-0.095 -1.603,-0.176 -2.343,-0.248 z"
         id="path41"
         inkscape:connector-curvature="0" /><path
         style="fill:#84bd93"
         d="m 175.004,79.382 c -0.663,-0.049 -1.284,-0.091 -1.841,-0.122 0.555,0.031 1.18,0.073 1.841,0.122 z"
         id="path43"
         inkscape:connector-curvature="0" /><path
         style="fill:#84bd93"
         d="m 171.542,79.182 c 0.47,0.018 1.006,0.043 1.606,0.077 -0.601,-0.034 -1.135,-0.059 -1.606,-0.077 z"
         id="path45"
         inkscape:connector-curvature="0" /><path
         style="fill:#84bd93"
         d="m 180.366,79.894 c 0.845,0.098 1.745,0.213 2.67,0.338 -0.927,-0.125 -1.824,-0.24 -2.67,-0.338 z"
         id="path47"
         inkscape:connector-curvature="0" /><path
         style="fill:#84bd93"
         d="m 225.578,97.758 c 1.074,-0.313 2.106,-0.632 3.096,-0.961 -0.99,0.327 -2.023,0.648 -3.096,0.961 z"
         id="path49"
         inkscape:connector-curvature="0" /><path
         style="fill:#84bd93"
         d="m 187.127,80.843 c 0.974,0.158 1.977,0.33 3.013,0.519 -1.037,-0.189 -2.038,-0.361 -3.013,-0.519 z"
         id="path51"
         inkscape:connector-curvature="0" /><path
         style="fill:#84bd93"
         d="m 202.995,84.239 c 1.311,0.348 2.656,0.728 4.016,1.125 -1.36,-0.397 -2.704,-0.777 -4.016,-1.125 z"
         id="path53"
         inkscape:connector-curvature="0" /><path
         style="fill:#84bd93"
         d="m 194.69,82.26 c 1.154,0.245 2.337,0.507 3.548,0.792 -1.212,-0.284 -2.393,-0.547 -3.548,-0.792 z"
         id="path55"
         inkscape:connector-curvature="0" /><path
         style="fill:#84bd93"
         d="m 190.501,81.426 c 1.093,0.202 2.229,0.428 3.385,0.666 -1.157,-0.238 -2.292,-0.464 -3.385,-0.666 z"
         id="path57"
         inkscape:connector-curvature="0" /><path
         style="fill:#84bd93"
         d="m 183.644,80.315 c 0.929,0.129 1.894,0.272 2.896,0.431 -1.003,-0.159 -1.966,-0.301 -2.896,-0.431 z"
         id="path59"
         inkscape:connector-curvature="0" /><path
         style="fill:#84bd93"
         d="m 207.9,85.625 c 1.345,0.401 2.711,0.825 4.098,1.276 -1.387,-0.451 -2.753,-0.875 -4.098,-1.276 z"
         id="path61"
         inkscape:connector-curvature="0" /></g><path
       style="fill:#3f2d20"
       d="m 253.918,101.192 c 1.81,-1.5 2.834,-3.76 2.724,-6.128 -0.117,-2.536 -1.506,-4.842 -3.692,-6.131 -32.363,-19.08 -62.663,-23.529 -76.4,-24.547 0,0 -0.035,-21.369 0,-22.576 2.742,-0.393 8.046,-0.393 10.645,-0.393 2.797,0 5.362,-1.551 6.661,-4.027 1.299,-2.477 1.116,-5.468 -0.472,-7.769 L 175.164,3.246 C 173.76,1.213 171.447,0 168.975,0 l -9.187,0 c -13.698,0 -25.024,10.7 -25.78,24.21 0,0 -0.043,1.011 -0.043,1.506 l 0.016,38.655 c -13.745,1.011 -44.036,5.442 -76.369,24.491 -2.188,1.289 -3.576,3.594 -3.696,6.129 -0.11,2.392 0.932,4.674 2.777,6.173 -22.539,11.788 -52.665,38.121 -52.493,94.67 0.102,33.562 16.176,63.521 45.264,84.355 27.343,19.585 64.923,30.371 105.815,30.371 40.892,0 78.472,-10.786 105.815,-30.371 29.086,-20.834 45.162,-50.791 45.266,-84.355 0.168,-56.5 -29.907,-82.84 -52.442,-94.642 z m -1.582,166.769 c -24.811,17.771 -59.279,27.557 -97.057,27.557 -37.778,0 -72.246,-9.787 -97.057,-27.557 -25.414,-18.203 -38.892,-43.16 -38.981,-72.172 -0.176,-58.254 36.387,-79.106 54.747,-85.891 6.12,2.265 13.772,4.418 22.779,5.623 -1.522,8.947 -1.204,22.679 9.752,35.719 1.379,1.642 3.394,2.618 5.539,2.68 0.074,0.002 0.147,0.003 0.219,0.003 2.066,0 4.044,-0.85 5.468,-2.357 9.323,-9.871 26.992,-26.134 37.535,-30.852 10.537,4.722 28.232,21.002 37.572,30.884 1.422,1.506 3.4,2.356 5.464,2.356 0.075,0 0.149,-0.002 0.221,-0.004 2.145,-0.063 4.16,-1.038 5.539,-2.68 10.944,-13.031 11.256,-26.759 9.728,-35.708 9.04,-1.204 16.716,-3.364 22.844,-5.635 18.386,6.818 54.843,27.695 54.668,85.862 -0.086,29.012 -13.566,53.968 -38.98,72.172 z M 141.346,79.124 c 2.017,0.028 3.976,-0.731 5.419,-2.147 1.445,-1.415 2.26,-3.353 2.258,-5.375 l -0.018,-44.725 c 0.059,-0.377 -0.237,-11.835 10.782,-11.835 l 5.243,0 8.312,12.034 c -3.506,0.622 -6.183,1.794 -8.326,3.994 -3.946,4.055 -3.706,9.116 -3.639,15.528 0.026,2.359 0.137,25.023 0.137,25.023 0.002,2.014 0.821,3.945 2.256,5.357 1.438,1.411 3.347,2.165 5.404,2.155 0.312,-0.014 29.57,-0.276 63.746,16.145 -6.97,2.732 -16.851,5.499 -29.172,6.107 -2.507,0.124 -4.787,1.49 -6.079,3.643 -1.291,2.152 -1.424,4.807 -0.353,7.077 0.061,0.127 4.9,10.702 -0.26,22.35 -9.571,-9.354 -26.987,-25.077 -39.547,-28.967 l -0.002,0.002 c -1.398,-0.436 -2.94,-0.469 -4.444,-0.003 -12.556,3.881 -29.96,19.59 -39.527,28.938 -5.078,-11.452 -0.503,-21.875 -0.286,-22.358 1.069,-2.269 0.938,-4.922 -0.352,-7.073 -1.291,-2.151 -3.569,-3.517 -6.074,-3.643 -12.219,-0.612 -22.128,-3.407 -29.139,-6.157 34.126,-16.363 63.344,-16.079 63.661,-16.07 z"
       id="path63"
       inkscape:connector-curvature="0" /></g><g
     id="g65" /><g
     id="g67" /><g
     id="g69" /><g
     id="g71" /><g
     id="g73" /><g
     id="g75" /><g
     id="g77" /><g
     id="g79" /><g
     id="g81" /><g
     id="g83" /><g
     id="g85" /><g
     id="g87" /><g
     id="g89" /><g
     id="g91" /><g
     id="g93" /></svg>