<?xml version="1.0" encoding="UTF-8" standalone="no"?>
<!-- Generator: Adobe Illustrator 18.0.0, SVG Export Plug-In . SVG Version: 6.00 Build 0)  -->

<svg
   xmlns:dc="http://purl.org/dc/elements/1.1/"
   xmlns:cc="http://creativecommons.org/ns#"
   xmlns:rdf="http://www.w3.org/1999/02/22-rdf-syntax-ns#"
   xmlns:svg="http://www.w3.org/2000/svg"
   xmlns="http://www.w3.org/2000/svg"
   xmlns:sodipodi="http://sodipodi.sourceforge.net/DTD/sodipodi-0.dtd"
   xmlns:inkscape="http://www.inkscape.org/namespaces/inkscape"
   version="1.1"
   id="Capa_1"
   x="0px"
   y="0px"
   viewBox="0 0 346.9 346.9"
   style="enable-background:new 0 0 346.9 346.9;"
   xml:space="preserve"
   inkscape:version="0.91 r13725"
   sodipodi:docname="t2.svg"><metadata
     id="metadata161"><rdf:RDF><cc:Work
         rdf:about=""><dc:format>image/svg+xml</dc:format><dc:type
           rdf:resource="http://purl.org/dc/dcmitype/StillImage" /></cc:Work></rdf:RDF></metadata><defs
     id="defs159" /><sodipodi:namedview
     pagecolor="#ffffff"
     bordercolor="#666666"
     borderopacity="1"
     objecttolerance="10"
     gridtolerance="10"
     guidetolerance="10"
     inkscape:pageopacity="0"
     inkscape:pageshadow="2"
     inkscape:window-width="737"
     inkscape:window-height="480"
     id="namedview157"
     showgrid="false"
     inkscape:zoom="0.68031134"
     inkscape:cx="173.45"
     inkscape:cy="173.45"
     inkscape:window-x="75"
     inkscape:window-y="34"
     inkscape:window-maximized="0"
     inkscape:current-layer="Capa_1" /><g
     id="g3"><g
       id="g5"><path
         style="fill:#84bd93"
         d="m 154.24,15.041 c 1.056,0 2.091,0.086 3.113,0.212 -1.023,-0.126 -2.057,-0.212 -3.113,-0.212 z"
         id="path7"
         inkscape:connector-curvature="0" /><path
         style="fill:#84bd93"
         d="m 167.465,18.811 c 0.674,0.416 1.327,0.861 1.958,1.336 -0.631,-0.475 -1.283,-0.92 -1.958,-1.336 z"
         id="path9"
         inkscape:connector-curvature="0" /><path
         style="fill:#84bd93"
         d="m 174.581,25.348 c 0.497,0.671 0.961,1.368 1.391,2.087 -0.43,-0.72 -0.894,-1.415 -1.391,-2.087 z"
         id="path11"
         inkscape:connector-curvature="0" /><path
         style="fill:#84bd93"
         d="m 172.224,22.564 c -0.712,-0.72 -1.474,-1.387 -2.268,-2.018 0.793,0.631 1.557,1.298 2.268,2.018 z"
         id="path13"
         inkscape:connector-curvature="0" /><path
         style="fill:#84bd93"
         d="m 164.207,17.093 c 0.896,0.386 1.758,0.834 2.597,1.317 -0.839,-0.483 -1.7,-0.932 -2.597,-1.317 z"
         id="path15"
         inkscape:connector-curvature="0" /><path
         style="fill:#84bd93"
         d="m 172.227,22.567 c 0.697,0.705 1.34,1.461 1.951,2.243 -0.611,-0.782 -1.253,-1.538 -1.951,-2.243 z"
         id="path17"
         inkscape:connector-curvature="0" /><path
         style="fill:#84bd93"
         d="m 148.513,26.308 c 0.179,-0.017 0.354,-0.025 0.53,-0.037 -0.176,0.011 -0.352,0.02 -0.53,0.037 z"
         id="path19"
         inkscape:connector-curvature="0" /><path
         style="fill:#84bd93"
         d="m 161.294,16.061 c 0.97,0.282 1.923,0.605 2.842,0.997 -0.919,-0.392 -1.872,-0.715 -2.842,-0.997 z"
         id="path21"
         inkscape:connector-curvature="0" /><path
         style="fill:#84bd93"
         d="m 175.77,27.739 c -3.711,-2.135 -8.199,-3.364 -12.778,-3.364 -2.73,0 -5.207,0.443 -8.207,1.298 l 0,2.227 c 0,0 0.389,0 0.389,0 1.401,0 2.762,0.569 4.011,1.382 9.12,5.936 8.6,18.605 8.6,21.388 l 0,27.23 c 3,-0.061 3.304,-0.1 5.114,-0.1 2.076,0 5.886,0.045 5.886,0.125 l 0,-37.568 c 0,-4.596 -0.865,-8.899 -3.015,-12.618 z"
         id="path23"
         inkscape:connector-curvature="0" /><path
         style="fill:#84bd93"
         d="m 150.913,26.225 c 0.102,0.002 0.206,0.002 0.308,0.006 -0.101,-0.004 -0.205,-0.003 -0.308,-0.006 z"
         id="path25"
         inkscape:connector-curvature="0" /><path
         style="fill:#84bd93"
         d="m 158.237,15.389 c 0.76,0.122 1.51,0.275 2.246,0.463 -0.737,-0.188 -1.485,-0.342 -2.246,-0.463 z"
         id="path27"
         inkscape:connector-curvature="0" /></g><g
       id="g29"><path
         style="fill:#fdd44b"
         d="m 91.301,281.761 c -0.623,-1.689 -1.254,-3.42 -1.891,-5.191 0.637,1.77 1.268,3.503 1.891,5.191 z"
         id="path31"
         inkscape:connector-curvature="0" /><path
         style="fill:#fdd44b"
         d="m 93.514,287.641 c -0.65,-1.692 -1.303,-3.42 -1.964,-5.205 0.661,1.785 1.314,3.514 1.964,5.205 z"
         id="path33"
         inkscape:connector-curvature="0" /><path
         style="fill:#fdd44b"
         d="m 100.126,303.442 c -0.642,-1.374 -1.282,-2.794 -1.923,-4.265 0.64,1.471 1.281,2.891 1.923,4.265 z"
         id="path35"
         inkscape:connector-curvature="0" /><path
         style="fill:#fdd44b"
         d="m 95.875,293.637 c -0.65,-1.601 -1.304,-3.262 -1.961,-4.96 0.657,1.698 1.311,3.36 1.961,4.96 z"
         id="path37"
         inkscape:connector-curvature="0" /><path
         style="fill:#fdd44b"
         d="m 97.893,298.457 c -0.616,-1.428 -1.232,-2.895 -1.851,-4.413 0.619,1.518 1.236,2.985 1.851,4.413 z"
         id="path39"
         inkscape:connector-curvature="0" /><path
         style="fill:#fdd44b"
         d="m 89.065,275.615 c -0.679,-1.891 -1.367,-3.829 -2.065,-5.812 0.698,1.981 1.387,3.921 2.065,5.812 z"
         id="path41"
         inkscape:connector-curvature="0" /><path
         style="fill:#fdd44b"
         d="m 111.85,322.335 c 0.74,0.806 1.491,1.572 2.26,2.27 -0.769,-0.698 -1.519,-1.463 -2.26,-2.27 z"
         id="path43"
         inkscape:connector-curvature="0" /><path
         style="fill:#fdd44b"
         d="m 105.947,105.449 c -0.936,1.299 -1.801,2.656 -2.633,4.04 0.832,-1.384 1.698,-2.74 2.633,-4.04 z"
         id="path45"
         inkscape:connector-curvature="0" /><path
         style="fill:#fdd44b"
         d="m 86.539,268.492 c -0.704,-2.004 -1.415,-4.034 -2.144,-6.128 0.728,2.093 1.44,4.125 2.144,6.128 z"
         id="path47"
         inkscape:connector-curvature="0" /><path
         style="fill:#fdd44b"
         d="m 119.319,328.342 c -0.832,-0.453 -1.644,-0.959 -2.44,-1.52 0.795,0.561 1.609,1.067 2.44,1.52 z"
         id="path49"
         inkscape:connector-curvature="0" /><path
         style="fill:#fdd44b"
         d="m 122.346,329.734 c -0.897,-0.332 -1.766,-0.736 -2.621,-1.181 0.855,0.444 1.724,0.849 2.621,1.181 z"
         id="path51"
         inkscape:connector-curvature="0" /><path
         style="fill:#fdd44b"
         d="m 126.073,292.016 c -1.986,-7.385 -3.871,-15.287 -5.866,-23.654 -3.905,-16.376 -8.333,-34.938 -14.583,-53.626 -14.331,-42.837 -16.112,-76.196 -5.381,-99.436 -0.676,1.464 -1.317,2.955 -1.894,4.5 -9.652,3.344 -18.25,8.724 -23.679,17.885 -11.329,19.115 -7.662,52.624 10.9,99.594 5.343,13.522 9.792,26.301 14.095,38.66 8.377,24.056 15.001,42.176 22.688,53.781 3.672,1.357 7.716,1.179 12.278,1.179 l 0.002,0 c 2.24,-1 4.426,-0.763 6.546,-1.468 -7.202,-10.406 -11.53,-24.124 -15.106,-37.415 z"
         id="path53"
         inkscape:connector-curvature="0" /><path
         style="fill:#fdd44b"
         d="m 116.517,326.555 c -0.779,-0.569 -1.545,-1.181 -2.294,-1.854 0.749,0.673 1.515,1.285 2.294,1.854 z"
         id="path55"
         inkscape:connector-curvature="0" /><path
         style="fill:#fdd44b"
         d="m 104.463,311.888 c -1.351,-2.366 -2.678,-4.943 -3.997,-7.728 1.319,2.785 2.647,5.362 3.997,7.728 z"
         id="path57"
         inkscape:connector-curvature="0" /><path
         style="fill:#fdd44b"
         d="m 100.908,113.936 c 0.529,-1.076 1.085,-2.13 1.669,-3.161 -0.583,1.031 -1.14,2.084 -1.669,3.161 z"
         id="path59"
         inkscape:connector-curvature="0" /><path
         style="fill:#fdd44b"
         d="m 111.457,321.901 c -0.729,-0.817 -1.447,-1.678 -2.152,-2.6 0.705,0.923 1.423,1.783 2.152,2.6 z"
         id="path61"
         inkscape:connector-curvature="0" /><path
         style="fill:#fdd44b"
         d="m 106.835,315.792 c -0.679,-1.04 -1.348,-2.136 -2.013,-3.277 0.664,1.141 1.334,2.237 2.013,3.277 z"
         id="path63"
         inkscape:connector-curvature="0" /><path
         style="fill:#fdd44b"
         d="m 109.098,319.021 c -0.673,-0.892 -1.335,-1.835 -1.99,-2.822 0.655,0.987 1.318,1.93 1.99,2.822 z"
         id="path65"
         inkscape:connector-curvature="0" /></g><g
       id="g67"><path
         style="fill:#fdd44b"
         d="m 262.37,262.753 c -0.662,1.899 -1.309,3.749 -1.95,5.574 0.641,-1.825 1.289,-3.676 1.95,-5.574 z"
         id="path69"
         inkscape:connector-curvature="0" /><path
         style="fill:#fdd44b"
         d="m 251.056,293.562 c 0.628,-1.548 1.26,-3.154 1.895,-4.793 -0.635,1.64 -1.267,3.245 -1.895,4.793 z"
         id="path71"
         inkscape:connector-curvature="0" /><path
         style="fill:#fdd44b"
         d="m 257.856,275.557 c 0.663,-1.848 1.336,-3.744 2.018,-5.679 -0.682,1.936 -1.355,3.83 -2.018,5.679 z"
         id="path73"
         inkscape:connector-curvature="0" /><path
         style="fill:#fdd44b"
         d="m 255.652,281.616 c 0.595,-1.612 1.196,-3.264 1.803,-4.95 -0.607,1.687 -1.208,3.337 -1.803,4.95 z"
         id="path75"
         inkscape:connector-curvature="0" /><path
         style="fill:#fdd44b"
         d="m 253.422,287.549 c 0.632,-1.648 1.268,-3.33 1.912,-5.067 -0.644,1.738 -1.28,3.419 -1.912,5.067 z"
         id="path77"
         inkscape:connector-curvature="0" /><path
         style="fill:#fdd44b"
         d="m 241.029,105.562 c 0.903,1.26 1.743,2.572 2.548,3.911 -0.806,-1.339 -1.645,-2.651 -2.548,-3.911 z"
         id="path79"
         inkscape:connector-curvature="0" /><path
         style="fill:#fdd44b"
         d="m 240.986,101.372 c 17.646,2.207 36.973,6.635 46.515,22.738 1.416,2.389 2.598,5.003 3.546,7.84 -0.948,-2.838 -2.129,-5.452 -3.546,-7.841 -9.542,-16.102 -28.868,-20.529 -46.513,-22.737 -0.083,-0.011 -0.154,-0.017 -0.236,-0.027 0.082,0.01 0.152,0.017 0.234,0.027 z"
         id="path81"
         inkscape:connector-curvature="0" /><path
         style="fill:#fdd44b"
         d="m 247.234,275.939 c 4.303,-12.359 8.753,-25.139 14.096,-38.66 18.563,-46.97 22.229,-80.479 10.901,-99.594 -5.429,-9.161 -14.027,-14.541 -23.678,-17.885 -0.575,-1.539 -1.214,-3.025 -1.887,-4.484 10.723,23.24 8.939,56.594 -5.387,99.421 -6.25,18.681 -10.675,37.237 -14.579,53.609 -5.123,21.479 -9.548,40.028 -16.626,53.795 -1.367,2.66 -2.832,5.076 -4.375,7.301 2.126,0.709 4.32,1.21 6.568,1.491 0.001,0 0.001,0 0.001,0 4.564,0.573 8.609,0.161 12.282,-1.198 7.684,-11.605 14.308,-29.741 22.684,-53.796 z"
         id="path83"
         inkscape:connector-curvature="0" /><path
         style="fill:#fdd44b"
         d="m 245.979,113.91 c -0.52,-1.058 -1.068,-2.094 -1.642,-3.109 0.575,1.014 1.122,2.051 1.642,3.109 z"
         id="path85"
         inkscape:connector-curvature="0" /><path
         style="fill:#fdd44b"
         d="m 249.082,298.28 c 0.564,-1.311 1.129,-2.656 1.695,-4.042 -0.567,1.386 -1.131,2.73 -1.695,4.042 z"
         id="path87"
         inkscape:connector-curvature="0" /><path
         style="fill:#fdd44b"
         d="m 242.502,311.77 c 0.642,-1.129 1.281,-2.289 1.914,-3.513 -0.633,1.224 -1.272,2.384 -1.914,3.513 z"
         id="path89"
         inkscape:connector-curvature="0" /><path
         style="fill:#fdd44b"
         d="m 240.105,315.728 c 0.648,-0.995 1.288,-2.043 1.923,-3.131 -0.635,1.088 -1.275,2.136 -1.923,3.131 z"
         id="path91"
         inkscape:connector-curvature="0" /><path
         style="fill:#fdd44b"
         d="m 237.896,318.888 c 0.613,-0.818 1.218,-1.677 1.816,-2.575 -0.598,0.898 -1.204,1.757 -1.816,2.575 z"
         id="path93"
         inkscape:connector-curvature="0" /><path
         style="fill:#fdd44b"
         d="m 235.49,321.846 c 0.699,-0.787 1.39,-1.614 2.068,-2.499 -0.679,0.885 -1.368,1.712 -2.068,2.499 z"
         id="path95"
         inkscape:connector-curvature="0" /><path
         style="fill:#fdd44b"
         d="m 244.567,307.956 c 0.603,-1.174 1.203,-2.401 1.801,-3.661 -0.598,1.26 -1.198,2.487 -1.801,3.661 z"
         id="path97"
         inkscape:connector-curvature="0" /><path
         style="fill:#fdd44b"
         d="m 248.658,299.265 c -0.612,1.403 -1.224,2.759 -1.837,4.073 0.613,-1.313 1.225,-2.67 1.837,-4.073 z"
         id="path99"
         inkscape:connector-curvature="0" /><path
         style="fill:#fdd44b"
         d="m 227.142,328.568 c -0.829,0.43 -1.672,0.821 -2.541,1.145 0.868,-0.324 1.712,-0.715 2.541,-1.145 z"
         id="path101"
         inkscape:connector-curvature="0" /><path
         style="fill:#fdd44b"
         d="m 229.993,326.84 c -0.779,0.548 -1.575,1.043 -2.389,1.488 0.814,-0.444 1.61,-0.94 2.389,-1.488 z"
         id="path103"
         inkscape:connector-curvature="0" /><path
         style="fill:#fdd44b"
         d="m 232.595,324.768 c -0.707,0.631 -1.429,1.21 -2.164,1.749 0.734,-0.539 1.457,-1.118 2.164,-1.749 z"
         id="path105"
         inkscape:connector-curvature="0" /><path
         style="fill:#fdd44b"
         d="m 232.817,324.578 c 0.742,-0.675 1.467,-1.415 2.183,-2.192 -0.716,0.777 -1.441,1.517 -2.183,2.192 z"
         id="path107"
         inkscape:connector-curvature="0" /></g><g
       id="g109"><path
         style="fill:#fdd44b"
         d="m 113.438,122.6 c 0.407,-0.931 0.863,-1.817 1.319,-2.703 -0.456,0.885 -0.911,1.773 -1.319,2.703 z"
         id="path111"
         inkscape:connector-curvature="0" /><path
         style="fill:#fdd44b"
         d="m 115.632,118.191 c 0.587,-1.033 1.234,-2.011 1.892,-2.979 -0.657,0.968 -1.304,1.947 -1.892,2.979 z"
         id="path113"
         inkscape:connector-curvature="0" /><path
         style="fill:#fdd44b"
         d="m 110.172,132.712 c 0.268,-1.187 0.572,-2.344 0.899,-3.478 -0.328,1.133 -0.629,2.292 -0.899,3.478 z"
         id="path115"
         inkscape:connector-curvature="0" /><path
         style="fill:#fdd44b"
         d="m 111.616,127.425 c 0.334,-1.028 0.708,-2.019 1.093,-3.001 -0.386,0.981 -0.758,1.975 -1.093,3.001 z"
         id="path117"
         inkscape:connector-curvature="0" /><path
         style="fill:#fdd44b"
         d="m 238.253,159.14 c -0.972,-11.485 -4.129,-21.013 -9.515,-28.494 -10.221,-14.197 -28.826,-21.396 -55.296,-21.396 -26.472,0 -45.077,7.199 -55.297,21.395 -5.385,7.48 -8.542,17.008 -9.514,28.491 -0.348,-4.73 -0.413,-9.209 -0.2,-13.439 -0.884,17.279 2.919,38.744 11.458,64.27 6.463,19.32 10.973,38.227 14.95,54.907 1.969,8.259 3.83,16.06 5.759,23.235 8.692,32.302 17.289,43.751 32.853,43.751 21.628,0 28.115,-22.975 38.616,-67.003 3.977,-16.675 7.22,-36.046 14.947,-54.89 11.311,-27.588 11.763,-57.941 11.239,-50.827 z"
         id="path119"
         inkscape:connector-curvature="0" /><path
         style="fill:#fdd44b"
         d="m 108.46,145.269 c 0.102,-1.853 0.263,-3.654 0.474,-5.41 -0.213,1.754 -0.37,3.558 -0.474,5.41 z"
         id="path121"
         inkscape:connector-curvature="0" /><path
         style="fill:#fdd44b"
         d="m 109.114,138.561 c 0.197,-1.429 0.429,-2.825 0.7,-4.187 -0.272,1.361 -0.502,2.76 -0.7,4.187 z"
         id="path123"
         inkscape:connector-curvature="0" /></g><path
       style="fill:#3f2d20"
       d="M 300.441,116.44 C 287.512,94.624 262.875,88.951 242.854,86.446 c -9.469,-1.184 -16.255,-1.534 -25.232,-0.111 -6.778,-3.207 -14.449,-5.527 -23.024,-6.922 l 0,-39.056 C 194.599,18.104 176.494,0 154.24,0 c -6.66,0 -13.263,1.66 -19.097,4.799 -2.437,1.312 -3.956,3.855 -3.956,6.623 l 0,26.094 c 0,2.661 1.406,5.123 3.697,6.476 2.294,1.354 5.127,1.392 7.457,0.11 5.785,-3.191 8.501,-3 8.996,-2.684 1.137,0.733 2.028,4.947 1.768,8.316 -0.019,0.219 -0.028,0.437 -0.028,0.656 l 0,28.912 c -8.881,1.381 -16.81,3.737 -23.788,7.037 -8.98,-1.426 -15.766,-1.075 -25.239,0.109 -20.02,2.505 -44.658,8.178 -57.589,29.994 -14.017,23.652 -10.794,60.547 9.85,112.792 5.229,13.233 9.627,25.863 13.88,38.078 7.983,22.928 14.878,42.729 24.086,56.764 9.757,14.871 21.674,22.166 36.295,22.166 1.928,0 3.905,-0.127 5.928,-0.38 0.002,0 0.004,-0.001 0.006,-0.001 5.631,-0.704 11.022,-2.36 16.072,-4.913 5.654,3.749 12.488,5.955 20.874,5.955 7.921,0 14.843,-1.976 20.856,-5.964 5.053,2.557 10.449,4.216 16.087,4.922 0.002,0 0.004,0.001 0.004,0.001 2.026,0.253 4.001,0.38 5.931,0.38 14.621,0 26.539,-7.296 36.296,-22.165 9.209,-14.035 16.103,-33.836 24.085,-56.762 4.254,-12.215 8.652,-24.847 13.881,-38.08 20.644,-52.249 23.866,-89.144 9.849,-112.795 z m -37.936,145.926 c -16.412,47.133 -26.099,71.601 -50.238,68.567 0,0 -0.001,0 -0.002,0 -2.248,-0.281 -4.442,-0.783 -6.568,-1.491 1.543,-2.225 3.008,-4.642 4.375,-7.301 7.078,-13.766 11.502,-32.316 16.626,-53.795 3.904,-16.371 8.33,-34.927 14.579,-53.609 16.495,-49.308 16.386,-86.078 -0.323,-109.288 -1.129,-1.569 -2.339,-3.061 -3.607,-4.497 1.159,0.122 2.355,0.258 3.64,0.42 17.645,2.207 36.971,6.635 46.513,22.737 11.329,19.115 7.662,52.625 -10.9,99.596 -5.342,13.522 -9.792,26.302 -14.095,38.661 z m -127.87,68.567 -0.002,0 c -24.149,3.034 -33.827,-21.436 -50.238,-68.569 -4.303,-12.359 -8.753,-25.139 -14.096,-38.66 -18.562,-46.97 -22.229,-80.479 -10.9,-99.594 9.543,-16.102 28.869,-20.53 46.515,-22.738 1.283,-0.161 2.488,-0.3 3.646,-0.424 -1.27,1.437 -2.482,2.93 -3.613,4.501 -16.71,23.21 -16.819,59.979 -0.323,109.288 6.25,18.687 10.678,37.249 14.583,53.626 1.995,8.367 3.88,16.269 5.866,23.654 3.576,13.29 7.904,27.026 15.108,37.432 -2.12,0.705 -4.306,1.204 -6.546,1.484 z m 5.962,-42.825 c -1.929,-7.175 -3.79,-14.976 -5.759,-23.235 -3.978,-16.681 -8.487,-35.587 -14.95,-54.907 -14.873,-44.461 -15.457,-76.669 -1.734,-95.729 10.221,-14.197 28.826,-21.395 55.297,-21.395 26.47,0 45.076,7.198 55.296,21.396 13.723,19.06 13.14,51.267 -1.733,95.728 -6.461,19.314 -10.969,38.215 -14.946,54.89 -10.502,44.029 -16.988,67.003 -38.616,67.003 -15.566,0 -24.163,-11.449 -32.855,-43.751 z m 5.63,-271.769 c 2.571,-0.855 5.282,-1.297 8.012,-1.297 13.961,0 25.318,11.356 25.318,25.316 l 0,37.568 c -1.999,-0.08 -4.031,-0.125 -6.107,-0.125 -1.81,0 -3.583,0.039 -5.335,0.1 l 0,-27.231 c 0.186,-2.783 0.546,-15.922 -8.574,-21.857 -3.757,-2.445 -8.21,-3.173 -13.315,-2.188 l 0,-10.286 z"
       id="path125"
       inkscape:connector-curvature="0" /></g><g
     id="g127" /><g
     id="g129" /><g
     id="g131" /><g
     id="g133" /><g
     id="g135" /><g
     id="g137" /><g
     id="g139" /><g
     id="g141" /><g
     id="g143" /><g
     id="g145" /><g
     id="g147" /><g
     id="g149" /><g
     id="g151" /><g
     id="g153" /><g
     id="g155" /></svg>