<?xml version="1.0" encoding="UTF-8" standalone="no"?>
<!-- Generator: Adobe Illustrator 18.0.0, SVG Export Plug-In . SVG Version: 6.00 Build 0)  -->

<svg
   xmlns:dc="http://purl.org/dc/elements/1.1/"
   xmlns:cc="http://creativecommons.org/ns#"
   xmlns:rdf="http://www.w3.org/1999/02/22-rdf-syntax-ns#"
   xmlns:svg="http://www.w3.org/2000/svg"
   xmlns="http://www.w3.org/2000/svg"
   xmlns:sodipodi="http://sodipodi.sourceforge.net/DTD/sodipodi-0.dtd"
   xmlns:inkscape="http://www.inkscape.org/namespaces/inkscape"
   version="1.1"
   id="Capa_1"
   x="0px"
   y="0px"
   viewBox="0 0 347.262 347.262"
   style="enable-background:new 0 0 347.262 347.262;"
   xml:space="preserve"
   inkscape:version="0.91 r13725"
   sodipodi:docname="t5.svg"><metadata
     id="metadata201"><rdf:RDF><cc:Work
         rdf:about=""><dc:format>image/svg+xml</dc:format><dc:type
           rdf:resource="http://purl.org/dc/dcmitype/StillImage" /></cc:Work></rdf:RDF></metadata><defs
     id="defs199" /><sodipodi:namedview
     pagecolor="#ffffff"
     bordercolor="#666666"
     borderopacity="1"
     objecttolerance="10"
     gridtolerance="10"
     guidetolerance="10"
     inkscape:pageopacity="0"
     inkscape:pageshadow="2"
     inkscape:window-width="737"
     inkscape:window-height="480"
     id="namedview197"
     showgrid="false"
     inkscape:zoom="0.67960216"
     inkscape:cx="173.631"
     inkscape:cy="173.631"
     inkscape:window-x="75"
     inkscape:window-y="34"
     inkscape:window-maximized="0"
     inkscape:current-layer="Capa_1" /><g
     id="g3"><g
       id="g5"><path
         style="fill:#ce593f"
         d="m 248.156,118.847 c 0.245,0.069 0.5,0.143 0.771,0.227 -0.272,-0.084 -0.525,-0.158 -0.771,-0.227 z"
         id="path7"
         inkscape:connector-curvature="0" /><path
         style="fill:#ce593f"
         d="m 247.319,118.623 c 0.209,0.052 0.426,0.108 0.664,0.174 -0.238,-0.065 -0.455,-0.121 -0.664,-0.174 z"
         id="path9"
         inkscape:connector-curvature="0" /><path
         style="fill:#ce593f"
         d="m 250.205,119.502 c 0.306,0.108 0.619,0.224 0.945,0.35 -0.326,-0.126 -0.639,-0.241 -0.945,-0.35 z"
         id="path11"
         inkscape:connector-curvature="0" /><path
         style="fill:#ce593f"
         d="m 249.128,119.139 c 0.276,0.087 0.559,0.18 0.858,0.284 -0.299,-0.103 -0.582,-0.196 -0.858,-0.284 z"
         id="path13"
         inkscape:connector-curvature="0" /><path
         style="fill:#ce593f"
         d="m 90.916,144.918 c -0.165,0.178 -0.314,0.365 -0.461,0.559 0.145,-0.193 0.297,-0.381 0.461,-0.559 z"
         id="path15"
         inkscape:connector-curvature="0" /><path
         style="fill:#ce593f"
         d="m 246.582,118.45 c 0.178,0.039 0.367,0.081 0.579,0.133 -0.212,-0.052 -0.4,-0.094 -0.579,-0.133 z"
         id="path17"
         inkscape:connector-curvature="0" /><path
         style="fill:#ce593f"
         d="m 89.709,146.687 c 0.117,-0.238 0.237,-0.474 0.378,-0.697 -0.141,0.224 -0.26,0.459 -0.378,0.697 z"
         id="path19"
         inkscape:connector-curvature="0" /><path
         style="fill:#ce593f"
         d="m 251.383,119.946 c 0.33,0.131 0.667,0.269 1.015,0.419 -0.349,-0.151 -0.685,-0.289 -1.015,-0.419 z"
         id="path21"
         inkscape:connector-curvature="0" /><path
         style="fill:#ce593f"
         d="m 246.048,118.34 c 0.131,0.025 0.27,0.052 0.434,0.087 -0.164,-0.035 -0.303,-0.062 -0.434,-0.087 z"
         id="path23"
         inkscape:connector-curvature="0" /><path
         style="fill:#ce593f"
         d="m 245.574,118.255 c 0.095,0.015 0.221,0.037 0.37,0.064 -0.15,-0.027 -0.275,-0.048 -0.37,-0.064 z"
         id="path25"
         inkscape:connector-curvature="0" /><path
         style="fill:#ce593f"
         d="m 259.951,124.739 c 0.383,0.284 0.768,0.581 1.153,0.891 -0.386,-0.309 -0.769,-0.606 -1.153,-0.891 z"
         id="path27"
         inkscape:connector-curvature="0" /><path
         style="fill:#ce593f"
         d="m 261.512,125.961 c 0.378,0.312 0.757,0.637 1.135,0.974 -0.379,-0.337 -0.756,-0.662 -1.135,-0.974 z"
         id="path29"
         inkscape:connector-curvature="0" /><path
         style="fill:#ce593f"
         d="m 263.075,127.32 c 0.372,0.34 0.743,0.696 1.113,1.062 -0.371,-0.367 -0.741,-0.722 -1.113,-1.062 z"
         id="path31"
         inkscape:connector-curvature="0" /><path
         style="fill:#ce593f"
         d="m 89.186,148.088 c 0.078,-0.299 0.159,-0.596 0.273,-0.879 -0.114,0.283 -0.194,0.58 -0.273,0.879 z"
         id="path33"
         inkscape:connector-curvature="0" /><path
         style="fill:#ce593f"
         d="m 254.007,121.11 c 0.364,0.179 0.734,0.366 1.111,0.567 -0.377,-0.201 -0.746,-0.389 -1.111,-0.567 z"
         id="path35"
         inkscape:connector-curvature="0" /><path
         style="fill:#ce593f"
         d="m 252.661,120.482 c 0.348,0.154 0.703,0.316 1.066,0.49 -0.363,-0.174 -0.717,-0.336 -1.066,-0.49 z"
         id="path37"
         inkscape:connector-curvature="0" /><path
         style="fill:#ce593f"
         d="m 256.897,122.689 c 0.38,0.23 0.765,0.47 1.153,0.724 -0.389,-0.254 -0.772,-0.494 -1.153,-0.724 z"
         id="path39"
         inkscape:connector-curvature="0" /><path
         style="fill:#ce593f"
         d="m 255.427,121.845 c 0.374,0.204 0.753,0.418 1.138,0.645 -0.385,-0.227 -0.763,-0.441 -1.138,-0.645 z"
         id="path41"
         inkscape:connector-curvature="0" /><path
         style="fill:#ce593f"
         d="m 258.412,123.654 c 0.383,0.256 0.77,0.525 1.158,0.806 -0.389,-0.282 -0.774,-0.55 -1.158,-0.806 z"
         id="path43"
         inkscape:connector-curvature="0" /><path
         style="fill:#ce593f"
         d="m 163.249,329.473 c -0.711,-0.306 -1.409,-0.635 -2.096,-0.985 0.687,0.35 1.385,0.68 2.096,0.985 z"
         id="path45"
         inkscape:connector-curvature="0" /><path
         style="fill:#ce593f"
         d="m 160.047,327.9 c -0.682,-0.377 -1.356,-0.767 -2.015,-1.185 0.659,0.419 1.333,0.808 2.015,1.185 z"
         id="path47"
         inkscape:connector-curvature="0" /><path
         style="fill:#ce593f"
         d="m 166.645,330.734 c -0.752,-0.234 -1.485,-0.503 -2.211,-0.784 0.726,0.281 1.459,0.549 2.211,0.784 z"
         id="path49"
         inkscape:connector-curvature="0" /><path
         style="fill:#ce593f"
         d="m 157.037,326.051 c -0.665,-0.45 -1.326,-0.907 -1.968,-1.397 0.643,0.491 1.304,0.947 1.968,1.397 z"
         id="path51"
         inkscape:connector-curvature="0" /><path
         style="fill:#ce593f"
         d="m 94.336,142.808 c -0.203,0.059 -0.407,0.112 -0.602,0.187 0.195,-0.076 0.4,-0.128 0.602,-0.187 z"
         id="path53"
         inkscape:connector-curvature="0" /><path
         style="fill:#ce593f"
         d="m 264.44,128.633 c -1.398,-0.408 -2.408,-0.596 -2.839,-0.665 -0.402,-0.033 -34.14,-7.404 -72.021,-7.064 -36.82,0.33 -71.339,7 -71.705,7.043 -0.807,0.11 -13.155,2 -22.714,14.644 -0.027,0.004 -0.051,0.016 -0.078,0.021 0.439,-0.08 1.39,-0.136 1.852,-0.136 4.154,0 8.024,3.367 8.024,7.521 l 0,11.197 c 0,4.154 -3.846,7.52 -8,7.52 -4.154,0 -8,-3.367 -8,-7.52 l 0,-7.392 c -2,7.404 -4.946,16.9 -4.946,29.087 0,34.562 12.071,60.81 38.013,82.607 9.054,7.608 15.64,19.634 22.619,32.368 6.628,12.092 13.393,24.407 22.318,32.959 2.122,0.639 4.324,1.128 6.669,1.359 22.069,-2.178 33.738,-23.445 45.019,-44.031 6.98,-12.732 13.57,-24.76 22.625,-32.367 25.943,-21.798 38.024,-48.046 38.024,-82.607 0,-23.303 -7.133,-36.771 -14.86,-44.544 z m -135.481,89.298 c 0,4.154 -2.846,7.521 -7,7.521 -4.154,0 -7,-3.367 -7,-7.521 l 0,-11.197 c 0,-4.154 2.846,-7.52 7,-7.52 4.154,0 7,3.367 7,7.52 l 0,11.197 z m 26,56.74 c 0,4.154 -3.846,7.521 -8,7.521 -4.154,0 -8,-3.367 -8,-7.521 l 0,-11.197 c 0,-4.154 3.846,-7.521 8,-7.521 4.154,0 8,3.367 8,7.521 l 0,11.197 z m 0,-113.479 c 0,4.154 -3.846,7.52 -8,7.52 -4.154,0 -8,-3.367 -8,-7.52 l 0,-11.197 c 0,-4.154 3.846,-7.521 8,-7.521 4.154,0 8,3.367 8,7.521 l 0,11.197 z m 26,56.739 c 0,4.154 -3.846,7.521 -8,7.521 -4.154,0 -8,-3.367 -8,-7.521 l 0,-11.197 c 0,-4.154 3.846,-7.52 8,-7.52 4.154,0 8,3.367 8,7.52 l 0,11.197 z m 26,56.74 c 0,4.154 -3.846,7.521 -8,7.521 -4.154,0 -8,-3.367 -8,-7.521 l 0,-11.197 c 0,-4.154 3.846,-7.521 8,-7.521 4.154,0 8,3.367 8,7.521 l 0,11.197 z m 0,-113.479 c 0,4.154 -3.846,7.52 -8,7.52 -4.154,0 -8,-3.367 -8,-7.52 l 0,-11.197 c 0,-4.154 3.846,-7.521 8,-7.521 4.154,0 8,3.367 8,7.521 l 0,11.197 z m 24,56.739 c 0,4.154 -1.846,7.521 -6,7.521 -4.154,0 -6,-3.367 -6,-7.521 l 0,-11.197 c 0,-4.154 1.846,-7.52 6,-7.52 4.154,0 6,3.367 6,7.52 l 0,11.197 z m 26,-56.739 c 0,4.154 -1.846,7.52 -6,7.52 -4.154,0 -6,-3.367 -6,-7.52 l 0,-11.197 c 0,-4.154 1.846,-7.521 6,-7.521 4.154,0 6,3.367 6,7.521 l 0,11.197 z"
         id="path55"
         inkscape:connector-curvature="0" /><path
         style="fill:#ce593f"
         d="m 93.061,143.307 c -0.192,0.097 -0.383,0.194 -0.566,0.307 0.183,-0.113 0.374,-0.21 0.566,-0.307 z"
         id="path57"
         inkscape:connector-curvature="0" /><path
         style="fill:#ce593f"
         d="m 154.238,323.986 c -0.67,-0.537 -1.338,-1.076 -1.984,-1.654 0.646,0.578 1.315,1.116 1.984,1.654 z"
         id="path59"
         inkscape:connector-curvature="0" /><path
         style="fill:#ce593f"
         d="m 91.914,144.018 c -0.181,0.136 -0.354,0.278 -0.521,0.43 0.166,-0.152 0.341,-0.294 0.521,-0.43 z"
         id="path61"
         inkscape:connector-curvature="0" /><path
         style="fill:#ce593f"
         d="m 133.577,297.076 c -0.328,-0.576 -0.657,-1.149 -0.982,-1.728 0.325,0.579 0.655,1.153 0.982,1.728 z"
         id="path63"
         inkscape:connector-curvature="0" /><path
         style="fill:#ce593f"
         d="m 88.912,149.995 c 0,-0.494 0.055,-0.975 0.145,-1.442 -0.091,0.468 -0.145,0.948 -0.145,1.442 z"
         id="path65"
         inkscape:connector-curvature="0" /><path
         style="fill:#ce593f"
         d="m 144.816,314.312 c -0.533,-0.675 -1.052,-1.375 -1.571,-2.075 0.519,0.7 1.038,1.399 1.571,2.075 z"
         id="path67"
         inkscape:connector-curvature="0" /><path
         style="fill:#ce593f"
         d="m 135.747,300.807 c -0.373,-0.629 -0.746,-1.258 -1.115,-1.893 0.368,0.636 0.742,1.264 1.115,1.893 z"
         id="path69"
         inkscape:connector-curvature="0" /><path
         style="fill:#ce593f"
         d="m 145.355,314.969 c 2.034,2.524 4.179,4.859 6.463,6.951 -2.285,-2.091 -4.428,-4.429 -6.463,-6.951 z"
         id="path71"
         inkscape:connector-curvature="0" /><path
         style="fill:#ce593f"
         d="m 131.325,293.07 c -0.249,-0.449 -0.5,-0.896 -0.748,-1.346 0.248,0.45 0.499,0.897 0.748,1.346 z"
         id="path73"
         inkscape:connector-curvature="0" /><path
         style="fill:#ce593f"
         d="m 142.439,311.15 c -0.475,-0.659 -0.94,-1.333 -1.404,-2.009 0.464,0.677 0.93,1.35 1.404,2.009 z"
         id="path75"
         inkscape:connector-curvature="0" /><path
         style="fill:#ce593f"
         d="m 137.917,304.375 c -0.403,-0.644 -0.802,-1.291 -1.198,-1.944 0.395,0.653 0.795,1.3 1.198,1.944 z"
         id="path77"
         inkscape:connector-curvature="0" /><path
         style="fill:#ce593f"
         d="m 140.142,307.829 c -0.433,-0.65 -0.861,-1.308 -1.286,-1.971 0.425,0.663 0.853,1.321 1.286,1.971 z"
         id="path79"
         inkscape:connector-curvature="0" /></g><g
       id="g81"><path
         style="fill:#84bd93"
         d="m 180.702,47.413 c 0.122,-0.336 0.221,-0.683 0.294,-1.036 -0.073,0.353 -0.172,0.699 -0.294,1.036 z"
         id="path83"
         inkscape:connector-curvature="0" /><path
         style="fill:#84bd93"
         d="m 180.267,48.388 c 0.062,-0.116 0.105,-0.24 0.16,-0.359 -0.056,0.119 -0.099,0.244 -0.16,0.359 z"
         id="path85"
         inkscape:connector-curvature="0" /><path
         style="fill:#84bd93"
         d="m 211.253,15.391 c 0.797,0.661 1.532,1.387 2.22,2.158 -0.688,-0.77 -1.423,-1.496 -2.22,-2.158 z"
         id="path87"
         inkscape:connector-curvature="0" /><path
         style="fill:#84bd93"
         d="m 156.72,26.891 c -0.283,-0.31 -0.568,-0.612 -0.856,-0.906 0.288,0.293 0.573,0.596 0.856,0.906 z"
         id="path89"
         inkscape:connector-curvature="0" /><path
         style="fill:#84bd93"
         d="m 179.702,49.288 c 0.025,-0.034 0.044,-0.074 0.069,-0.109 -0.025,0.035 -0.044,0.074 -0.069,0.109 z"
         id="path91"
         inkscape:connector-curvature="0" /><path
         style="fill:#84bd93"
         d="m 157.853,28.202 c 0.246,0.297 0.496,0.582 0.737,0.892 -0.241,-0.31 -0.491,-0.595 -0.737,-0.892 z"
         id="path93"
         inkscape:connector-curvature="0" /><path
         style="fill:#84bd93"
         d="m 214.053,18.28 c 0.463,0.565 0.922,1.134 1.335,1.745 -0.414,-0.61 -0.871,-1.18 -1.335,-1.745 z"
         id="path95"
         inkscape:connector-curvature="0" /><path
         style="fill:#84bd93"
         d="m 264.516,72.28 c 0.171,0.235 0.33,0.465 0.489,0.696 -0.16,-0.232 -0.316,-0.46 -0.489,-0.696 z"
         id="path97"
         inkscape:connector-curvature="0" /><path
         style="fill:#84bd93"
         d="m 261.68,68.934 c -0.155,-0.156 -0.324,-0.304 -0.485,-0.458 0.16,0.154 0.331,0.303 0.485,0.458 z"
         id="path99"
         inkscape:connector-curvature="0" /><path
         style="fill:#84bd93"
         d="m 263.197,70.587 c 0.129,0.153 0.24,0.306 0.364,0.459 -0.124,-0.154 -0.234,-0.306 -0.364,-0.459 z"
         id="path101"
         inkscape:connector-curvature="0" /><path
         style="fill:#84bd93"
         d="m 265.629,73.914 c 0.154,0.242 0.31,0.485 0.451,0.719 -0.143,-0.236 -0.295,-0.473 -0.451,-0.719 z"
         id="path103"
         inkscape:connector-curvature="0" /><path
         style="fill:#84bd93"
         d="m 153.903,24.114 c 0.265,0.232 0.524,0.488 0.786,0.732 -0.262,-0.245 -0.521,-0.5 -0.786,-0.732 z"
         id="path105"
         inkscape:connector-curvature="0" /><path
         style="fill:#84bd93"
         d="m 259.237,66.794 c 0.223,0.171 0.443,0.344 0.657,0.521 -0.214,-0.178 -0.433,-0.349 -0.657,-0.521 z"
         id="path107"
         inkscape:connector-curvature="0" /><path
         style="fill:#84bd93"
         d="m 217.484,23.75 c 0.307,0.644 0.606,1.294 0.874,1.964 -0.268,-0.67 -0.566,-1.319 -0.874,-1.964 z"
         id="path109"
         inkscape:connector-curvature="0" /><path
         style="fill:#84bd93"
         d="m 257.128,65.348 c 0.231,0.139 0.449,0.289 0.672,0.434 -0.224,-0.146 -0.44,-0.296 -0.672,-0.434 z"
         id="path111"
         inkscape:connector-curvature="0" /><path
         style="fill:#84bd93"
         d="m 215.941,20.925 c 0.373,0.601 0.74,1.207 1.071,1.842 -0.331,-0.635 -0.698,-1.241 -1.071,-1.842 z"
         id="path113"
         inkscape:connector-curvature="0" /><path
         style="fill:#84bd93"
         d="m 82.915,85.422 c 0.484,0.989 0.985,1.917 1.5,2.804 -0.515,-0.886 -1.016,-1.815 -1.5,-2.804 z"
         id="path115"
         inkscape:connector-curvature="0" /><path
         style="fill:#84bd93"
         d="m 81.35,81.894 c 0.467,1.152 0.946,2.257 1.444,3.29 -0.498,-1.032 -0.977,-2.138 -1.444,-3.29 z"
         id="path117"
         inkscape:connector-curvature="0" /><path
         style="fill:#84bd93"
         d="m 88.482,93.926 c 0.668,0.754 1.36,1.459 2.072,2.121 -0.713,-0.662 -1.403,-1.367 -2.072,-2.121 z"
         id="path119"
         inkscape:connector-curvature="0" /><path
         style="fill:#84bd93"
         d="m 84.678,88.68 c 0.556,0.931 1.13,1.812 1.722,2.637 -0.592,-0.824 -1.165,-1.706 -1.722,-2.637 z"
         id="path121"
         inkscape:connector-curvature="0" /><path
         style="fill:#84bd93"
         d="m 95.293,99.668 c -1.648,-1.035 -3.195,-2.201 -4.651,-3.542 1.455,1.342 3.003,2.507 4.651,3.542 z"
         id="path123"
         inkscape:connector-curvature="0" /><path
         style="fill:#84bd93"
         d="m 88.373,93.798 c -0.632,-0.721 -1.245,-1.488 -1.84,-2.304 0.595,0.817 1.208,1.583 1.84,2.304 z"
         id="path125"
         inkscape:connector-curvature="0" /><path
         style="fill:#84bd93"
         d="m 266.186,74.816 c -0.436,-0.23 -0.882,-0.447 -1.344,-0.648 -6.367,-2.764 -14.213,-2.132 -23.322,1.888 -2.534,1.119 -5.478,0.753 -7.662,-0.953 -2.186,-1.705 -3.255,-4.471 -2.785,-7.202 0.092,-0.548 0.182,-1.157 0.267,-1.817 0.05,-0.021 0.102,-0.033 0.152,-0.055 -2.534,1.119 -5.478,0.753 -7.662,-0.953 -2.186,-1.705 -3.255,-4.471 -2.785,-7.202 1.068,-6.341 1.797,-20.608 -2.55,-31.794 -8.084,2.231 -23.063,9.159 -27.456,30.262 -10e-4,0.005 -0.035,0.009 -0.036,0.013 -0.004,0.018 -0.045,0.033 -0.045,0.051 l 0,-10e-4 c -1,2.848 -2.778,5.215 -5.808,5.842 -4.066,0.834 -8.03,-1.773 -8.873,-5.841 -0.305,-1.471 -0.653,-2.872 -1.054,-4.208 -0.026,0.006 -0.046,0.016 -0.072,0.022 -4.066,0.834 -8.045,-1.773 -8.887,-5.841 -1.284,-6.207 -3.492,-11.168 -6.164,-15.168 -5.524,-3.675 -10.989,-5.19 -14.066,-5.788 -12.131,10.07 -11.257,33.769 -9.788,42.492 0.459,2.727 -0.614,5.494 -2.798,7.192 -2.182,1.698 -5.121,2.067 -7.652,0.951 -9.159,-4.041 -17.04,-4.661 -23.428,-1.841 -7.078,3.125 -11.04,9.82 -12.652,13.18 1.638,4.999 3.491,8.995 5.583,12.278 1.94,1.218 4.01,2.27 6.239,3.218 18.491,-4.291 44.517,-6.742 72.014,-6.742 27.546,0 53.617,2.46 72.117,6.765 9.938,-4.219 16.898,-10.275 21.902,-25.542 -0.344,-0.718 -0.82,-1.605 -1.385,-2.558 z"
         id="path127"
         inkscape:connector-curvature="0" /><path
         style="fill:#84bd93"
         d="m 79.689,77.367 c 0.433,1.321 0.886,2.549 1.349,3.737 -0.463,-1.187 -0.916,-2.416 -1.349,-3.737 z"
         id="path129"
         inkscape:connector-curvature="0" /><path
         style="fill:#84bd93"
         d="m 140.843,16.678 c 0.118,0.039 0.244,0.088 0.364,0.13 -0.12,-0.041 -0.246,-0.09 -0.364,-0.13 z"
         id="path131"
         inkscape:connector-curvature="0" /><path
         style="fill:#84bd93"
         d="m 147.117,19.401 c 0.239,0.129 0.481,0.278 0.721,0.414 -0.241,-0.136 -0.482,-0.284 -0.721,-0.414 z"
         id="path133"
         inkscape:connector-curvature="0" /><path
         style="fill:#84bd93"
         d="m 137.244,15.66 c 0.136,0.031 0.28,0.068 0.422,0.102 -0.143,-0.035 -0.285,-0.07 -0.422,-0.102 z"
         id="path135"
         inkscape:connector-curvature="0" /><path
         style="fill:#84bd93"
         d="m 144.507,18.121 c 0.258,0.116 0.514,0.228 0.776,0.352 -0.263,-0.125 -0.518,-0.236 -0.776,-0.352 z"
         id="path137"
         inkscape:connector-curvature="0" /><path
         style="fill:#84bd93"
         d="m 149.113,20.571 c 0.3,0.187 0.6,0.382 0.9,0.582 -0.301,-0.2 -0.6,-0.395 -0.9,-0.582 z"
         id="path139"
         inkscape:connector-curvature="0" /><path
         style="fill:#84bd93"
         d="m 138.73,16.04 c 0.166,0.045 0.328,0.088 0.499,0.138 -0.173,-0.05 -0.333,-0.093 -0.499,-0.138 z"
         id="path141"
         inkscape:connector-curvature="0" /><path
         style="fill:#84bd93"
         d="m 142.594,17.317 c 0.239,0.092 0.483,0.192 0.727,0.293 -0.245,-0.101 -0.487,-0.2 -0.727,-0.293 z"
         id="path143"
         inkscape:connector-curvature="0" /><path
         style="fill:#84bd93"
         d="m 151.195,21.976 c 0.29,0.209 0.581,0.411 0.87,0.633 -0.29,-0.222 -0.579,-0.424 -0.87,-0.633 z"
         id="path145"
         inkscape:connector-curvature="0" /></g><path
       style="fill:#3f2d20"
       d="m 96.433,142.475 c -4.154,0 -7.521,3.367 -7.521,7.521 l 0,11.197 c 0,4.154 3.367,7.521 7.521,7.521 4.154,0 7.521,-3.367 7.521,-7.521 l 0,-11.197 c -10e-4,-4.155 -3.367,-7.521 -7.521,-7.521 z"
       id="path147"
       inkscape:connector-curvature="0" /><path
       style="fill:#3f2d20"
       d="m 147.899,142.475 c -4.154,0 -7.521,3.367 -7.521,7.521 l 0,11.197 c 0,4.154 3.367,7.521 7.521,7.521 4.154,0 7.521,-3.367 7.521,-7.521 l 0,-11.197 c -10e-4,-4.155 -3.367,-7.521 -7.521,-7.521 z"
       id="path149"
       inkscape:connector-curvature="0" /><path
       style="fill:#3f2d20"
       d="m 199.365,142.475 c -4.154,0 -7.521,3.367 -7.521,7.521 l 0,11.197 c 0,4.154 3.367,7.521 7.521,7.521 4.154,0 7.521,-3.367 7.521,-7.521 l 0,-11.197 c 0,-4.155 -3.367,-7.521 -7.521,-7.521 z"
       id="path151"
       inkscape:connector-curvature="0" /><path
       style="fill:#3f2d20"
       d="m 258.351,161.192 0,-11.197 c 0,-4.154 -3.367,-7.521 -7.521,-7.521 -4.154,0 -7.521,3.367 -7.521,7.521 l 0,11.197 c 0,4.154 3.367,7.521 7.521,7.521 4.154,0 7.521,-3.367 7.521,-7.521 z"
       id="path153"
       inkscape:connector-curvature="0" /><path
       style="fill:#3f2d20"
       d="m 122.166,199.213 c -4.154,0 -7.521,3.367 -7.521,7.521 l 0,11.197 c 0,4.154 3.367,7.521 7.521,7.521 4.154,0 7.521,-3.367 7.521,-7.521 l 0,-11.197 c 0,-4.154 -3.367,-7.521 -7.521,-7.521 z"
       id="path155"
       inkscape:connector-curvature="0" /><path
       style="fill:#3f2d20"
       d="m 173.631,199.213 c -4.154,0 -7.521,3.367 -7.521,7.521 l 0,11.197 c 0,4.154 3.367,7.521 7.521,7.521 4.154,0 7.521,-3.367 7.521,-7.521 l 0,-11.197 c 0,-4.154 -3.367,-7.521 -7.521,-7.521 z"
       id="path157"
       inkscape:connector-curvature="0" /><path
       style="fill:#3f2d20"
       d="m 225.095,199.213 c -4.154,0 -7.521,3.367 -7.521,7.521 l 0,11.197 c 0,4.154 3.367,7.521 7.521,7.521 4.154,0 7.521,-3.367 7.521,-7.521 l 0,-11.197 c 0,-4.154 -3.367,-7.521 -7.521,-7.521 z"
       id="path159"
       inkscape:connector-curvature="0" /><path
       style="fill:#3f2d20"
       d="m 147.899,255.954 c -4.154,0 -7.521,3.367 -7.521,7.521 l 0,11.197 c 0,4.154 3.367,7.521 7.521,7.521 4.154,0 7.521,-3.367 7.521,-7.521 l 0,-11.197 c -10e-4,-4.155 -3.367,-7.521 -7.521,-7.521 z"
       id="path161"
       inkscape:connector-curvature="0" /><path
       style="fill:#3f2d20"
       d="m 199.365,255.954 c -4.154,0 -7.521,3.367 -7.521,7.521 l 0,11.197 c 0,4.154 3.367,7.521 7.521,7.521 4.154,0 7.521,-3.367 7.521,-7.521 l 0,-11.197 c 0,-4.155 -3.367,-7.521 -7.521,-7.521 z"
       id="path163"
       inkscape:connector-curvature="0" /><path
       style="fill:#3f2d20"
       d="m 271.379,114.589 c -2.452,-2.035 -4.896,-3.705 -7.241,-5.08 7.448,-5.886 14.09,-14.963 18.643,-30.397 0.437,-1.48 0.407,-3.058 -0.084,-4.52 -0.233,-0.699 -5.924,-17.198 -21.7,-24.164 C 253.684,47.199 245.603,46.54 236.874,48.452 237.144,34.521 234.596,12.088 217.181,1.153 215.83,0.304 214.237,-0.096 212.654,0.02 202.542,0.732 184.456,6.974 173.629,24.468 162.801,6.978 144.722,0.732 134.61,0.02 133.024,-0.097 131.432,0.304 130.082,1.153 112.668,12.087 110.12,34.52 110.389,48.452 101.661,46.542 93.581,47.199 86.266,50.428 70.49,57.393 64.798,73.892 64.565,74.591 c -0.491,1.463 -0.52,3.041 -0.083,4.52 4.556,15.438 11.2,24.516 18.651,30.403 -2.342,1.374 -4.786,3.042 -7.234,5.073 -10.482,8.697 -22.978,25.92 -22.978,58.587 0,38.804 14.194,69.592 43.39,94.123 6.895,5.793 12.829,16.619 19.11,28.082 12.051,21.985 27.047,49.347 57.57,51.858 0.21,0.018 0.418,0.025 0.625,0.025 0.005,0 0.01,-10e-4 0.014,-10e-4 0.005,0 0.01,10e-4 0.014,10e-4 0.207,0 0.414,-0.008 0.625,-0.025 30.525,-2.511 45.52,-29.873 57.571,-51.859 6.283,-11.461 12.215,-22.287 19.111,-28.08 29.196,-24.532 43.389,-55.321 43.389,-94.123 0.001,-32.666 -12.486,-49.889 -22.961,-58.586 z M 218.65,288.148 c -11.281,20.586 -22.951,41.854 -45.02,44.031 -22.066,-2.177 -33.736,-23.445 -45.018,-44.031 -6.979,-12.733 -13.571,-24.76 -22.625,-32.368 -25.942,-21.796 -38.025,-48.044 -38.025,-82.607 0,-49.768 32.559,-54.759 33.885,-54.941 0.365,-0.043 34.884,-6.713 71.705,-7.043 37.881,-0.34 71.619,7.031 72.021,7.064 3.012,0.48 33.726,6.563 33.726,54.919 0,34.56 -12.082,60.809 -38.025,82.607 -9.054,7.609 -15.644,19.637 -22.624,32.369 z M 92.341,64.187 c 6.388,-2.82 14.269,-2.2 23.428,1.841 2.531,1.116 5.47,0.747 7.652,-0.951 2.184,-1.698 3.257,-4.465 2.798,-7.192 -1.469,-8.723 -2.342,-32.422 9.789,-42.492 6.808,1.325 25.316,7.089 30.259,30.984 0.842,4.068 4.823,6.676 8.889,5.841 3.03,-0.628 5.25,-2.995 5.84,-5.842 l 0.001,0.001 c 0.004,-0.018 0.008,-0.033 0.012,-0.051 0.001,-0.004 0.002,-0.008 0.003,-0.013 4.968,-23.865 23.482,-29.609 30.242,-30.922 12.136,10.067 11.259,33.769 9.792,42.482 -0.47,2.731 0.599,5.498 2.785,7.202 2.184,1.706 5.127,2.071 7.662,0.953 9.109,-4.02 16.955,-4.653 23.322,-1.888 7.131,3.099 11.132,9.855 12.758,13.232 -5.004,15.268 -11.965,21.324 -21.902,25.542 -18.5,-4.305 -44.571,-6.765 -72.117,-6.765 -27.497,0 -53.523,2.45 -72.014,6.741 -9.91,-4.218 -16.853,-10.28 -21.849,-25.524 1.61,-3.359 5.572,-10.054 12.65,-13.179 z"
       id="path165"
       inkscape:connector-curvature="0" /></g><g
     id="g167" /><g
     id="g169" /><g
     id="g171" /><g
     id="g173" /><g
     id="g175" /><g
     id="g177" /><g
     id="g179" /><g
     id="g181" /><g
     id="g183" /><g
     id="g185" /><g
     id="g187" /><g
     id="g189" /><g
     id="g191" /><g
     id="g193" /><g
     id="g195" /></svg>