<?xml version="1.0" encoding="UTF-8" standalone="no"?>
<!-- Generator: Adobe Illustrator 18.0.0, SVG Export Plug-In . SVG Version: 6.00 Build 0)  -->

<svg
   xmlns:dc="http://purl.org/dc/elements/1.1/"
   xmlns:cc="http://creativecommons.org/ns#"
   xmlns:rdf="http://www.w3.org/1999/02/22-rdf-syntax-ns#"
   xmlns:svg="http://www.w3.org/2000/svg"
   xmlns="http://www.w3.org/2000/svg"
   xmlns:sodipodi="http://sodipodi.sourceforge.net/DTD/sodipodi-0.dtd"
   xmlns:inkscape="http://www.inkscape.org/namespaces/inkscape"
   version="1.1"
   id="Capa_1"
   x="0px"
   y="0px"
   viewBox="0 0 330.754 330.754"
   style="enable-background:new 0 0 330.754 330.754;"
   xml:space="preserve"
   inkscape:version="0.91 r13725"
   sodipodi:docname="t6.svg"><metadata
     id="metadata129"><rdf:RDF><cc:Work
         rdf:about=""><dc:format>image/svg+xml</dc:format><dc:type
           rdf:resource="http://purl.org/dc/dcmitype/StillImage" /></cc:Work></rdf:RDF></metadata><defs
     id="defs127" /><sodipodi:namedview
     pagecolor="#ffffff"
     bordercolor="#666666"
     borderopacity="1"
     objecttolerance="10"
     gridtolerance="10"
     guidetolerance="10"
     inkscape:pageopacity="0"
     inkscape:pageshadow="2"
     inkscape:window-width="737"
     inkscape:window-height="480"
     id="namedview125"
     showgrid="false"
     inkscape:zoom="0.71352123"
     inkscape:cx="165.377"
     inkscape:cy="165.377"
     inkscape:window-x="75"
     inkscape:window-y="34"
     inkscape:window-maximized="0"
     inkscape:current-layer="Capa_1" /><g
     id="g3"><path
       style="fill:#ef8829"
       d="m 93.119,193.979 c -5.194,-3.871 -9.297,-6.929 -18.1,-6.929 -8.803,0 -12.906,3.058 -18.1,6.929 -2.666,1.987 -5.637,4.184 -9.345,6.007 0.709,0.094 1.427,0.158 2.162,0.158 l 53.04,0 c -3.854,-1.853 -6.916,-4.122 -9.657,-6.165 z"
       id="path5"
       inkscape:connector-curvature="0" /><path
       style="fill:#ef8829"
       d="m 183.481,193.979 c -5.194,-3.871 -9.297,-6.929 -18.098,-6.929 -8.801,0 -12.903,3.058 -18.097,6.929 -2.741,2.043 -5.802,4.312 -9.655,6.165 l 55.505,0 c -3.853,-1.853 -6.915,-4.122 -9.655,-6.165 z"
       id="path7"
       inkscape:connector-curvature="0" /><path
       style="fill:#ef8829"
       d="m 255.742,187.05 c -8.801,0 -12.904,3.058 -18.097,6.929 -2.741,2.043 -5.802,4.312 -9.655,6.165 l 53.028,0 c 0.731,0 1.448,-0.065 2.154,-0.158 -3.704,-1.822 -6.669,-4.022 -9.334,-6.008 -5.193,-3.87 -9.295,-6.928 -18.096,-6.928 z"
       id="path9"
       inkscape:connector-curvature="0" /><path
       style="fill:#84bd93"
       d="m 281.018,166.777 -216.248,0 c -8.373,0 -15.292,6.48 -16.333,14.573 -0.168,0.124 -0.338,0.351 -0.503,0.474 5.923,-4.414 13.295,-9.858 27.084,-9.858 13.789,0 21.161,5.519 27.085,9.934 5.194,3.871 9.297,6.942 18.1,6.942 8.801,0 12.903,-3.052 18.097,-6.923 5.923,-4.415 13.294,-9.906 27.082,-9.906 13.79,0 21.16,5.496 27.084,9.911 5.193,3.871 9.295,6.93 18.097,6.93 8.801,0 12.903,-3.057 18.096,-6.928 5.924,-4.415 13.294,-9.909 27.083,-9.909 13.788,0 21.159,5.495 27.082,9.909 4.295,3.201 7.85,5.839 13.924,6.66 0.488,-1.555 0.753,-3.41 0.753,-5.125 0,-9.089 -7.395,-16.684 -16.483,-16.684 z"
       id="path11"
       inkscape:connector-curvature="0" /><g
       id="g13"><path
         style="fill:#ce593f"
         d="m 292.964,216.151 c 0.311,0.122 0.61,0.268 0.91,0.412 -0.302,-0.144 -0.598,-0.289 -0.91,-0.412 z"
         id="path15"
         inkscape:connector-curvature="0" /><path
         style="fill:#ce593f"
         d="m 295.166,217.266 c 0.302,0.188 0.599,0.383 0.885,0.593 -0.287,-0.211 -0.581,-0.405 -0.885,-0.593 z"
         id="path17"
         inkscape:connector-curvature="0" /><path
         style="fill:#ce593f"
         d="m 298.782,220.533 c 0.23,0.296 0.481,0.576 0.686,0.89 -0.206,-0.315 -0.455,-0.594 -0.686,-0.89 z"
         id="path19"
         inkscape:connector-curvature="0" /><path
         style="fill:#ce593f"
         d="m 300.355,223.055 c 0.238,0.5 0.429,1.021 0.606,1.552 -0.178,-0.532 -0.367,-1.052 -0.606,-1.552 z"
         id="path21"
         inkscape:connector-curvature="0" /><path
         style="fill:#ce593f"
         d="m 290.549,215.44 c 0.28,0.054 0.544,0.145 0.818,0.215 -0.274,-0.071 -0.538,-0.162 -0.818,-0.215 z"
         id="path23"
         inkscape:connector-curvature="0" /><path
         style="fill:#ce593f"
         d="m 297.925,219.494 c -0.256,-0.269 -0.533,-0.51 -0.81,-0.758 0.275,0.248 0.555,0.49 0.81,0.758 z"
         id="path25"
         inkscape:connector-curvature="0" /><path
         style="fill:#ce593f"
         d="m 29.504,232.339 c -0.071,-0.274 -0.162,-0.54 -0.217,-0.82 0.055,0.281 0.146,0.545 0.217,0.82 z"
         id="path27"
         inkscape:connector-curvature="0" /><path
         style="fill:#ce593f"
         d="m 38.46,241.932 c -0.543,-0.182 -1.077,-0.379 -1.588,-0.625 0.513,0.246 1.044,0.443 1.588,0.625 z"
         id="path29"
         inkscape:connector-curvature="0" /><path
         style="fill:#ce593f"
         d="m 35.273,240.438 c -0.317,-0.207 -0.598,-0.459 -0.897,-0.691 0.299,0.233 0.58,0.483 0.897,0.691 z"
         id="path31"
         inkscape:connector-curvature="0" /><path
         style="fill:#ce593f"
         d="m 301.275,224.904 c -1.055,-0.26 -2.152,-1.127 -3.286,-1.127 l -245.18,0 c -7.587,0 -13.76,6.884 -13.76,14.47 0,1.134 0.155,2.627 0.416,3.682 1.069,0.268 2.171,0.848 3.322,0.848 l 245.181,0 c 7.587,0 13.76,-6.569 13.76,-14.156 -0.001,-1.151 -0.186,-2.648 -0.453,-3.717 z"
         id="path33"
         inkscape:connector-curvature="0" /><path
         style="fill:#ce593f"
         d="m 32.583,238.082 c 0.249,0.278 0.49,0.556 0.76,0.813 -0.269,-0.255 -0.512,-0.537 -0.76,-0.813 z"
         id="path35"
         inkscape:connector-curvature="0" /><path
         style="fill:#ce593f"
         d="m 30.413,234.846 c -0.145,-0.301 -0.291,-0.601 -0.414,-0.914 0.123,0.314 0.269,0.611 0.414,0.914 z"
         id="path37"
         inkscape:connector-curvature="0" /><path
         style="fill:#ce593f"
         d="m 31.708,237.022 c -0.211,-0.288 -0.407,-0.586 -0.596,-0.889 0.19,0.305 0.384,0.601 0.596,0.889 z"
         id="path39"
         inkscape:connector-curvature="0" /></g><path
       style="fill:#fdd44b"
       d="m 298.687,257.777 -251.586,0 c -15.847,0 -17.033,3.841 -17.033,10.564 0,11.581 7.64,20.436 17.033,20.436 l 251.585,0 c 9.391,0 17.033,-8.855 17.033,-20.436 0,-6.723 -1.186,-10.564 -17.032,-10.564 z"
       id="path41"
       inkscape:connector-curvature="0" /><g
       id="g43"><path
         style="fill:#fdd44b"
         d="m 21.737,144.704 c 0.142,0.148 0.275,0.305 0.42,0.449 -0.146,-0.144 -0.278,-0.301 -0.42,-0.449 z"
         id="path45"
         inkscape:connector-curvature="0" /><path
         style="fill:#fdd44b"
         d="m 277.745,70.461 c 0.499,0.327 0.978,0.66 1.467,0.99 -0.489,-0.33 -0.968,-0.664 -1.467,-0.99 z"
         id="path47"
         inkscape:connector-curvature="0" /><path
         style="fill:#fdd44b"
         d="m 15.625,133.32 c -0.057,-0.254 -0.11,-0.509 -0.158,-0.765 0.048,0.256 0.101,0.511 0.158,0.765 z"
         id="path49"
         inkscape:connector-curvature="0" /><path
         style="fill:#fdd44b"
         d="m 15.234,131.037 c -0.029,-0.232 -0.064,-0.463 -0.085,-0.697 0.021,0.235 0.057,0.465 0.085,0.697 z"
         id="path51"
         inkscape:connector-curvature="0" /><path
         style="fill:#fdd44b"
         d="m 296.143,85.362 c -0.373,-0.379 -0.726,-0.764 -1.109,-1.141 0.383,0.376 0.736,0.761 1.109,1.141 z"
         id="path53"
         inkscape:connector-curvature="0" /><path
         style="fill:#fdd44b"
         d="m 298.247,87.557 c 0.467,0.508 0.909,1.023 1.357,1.535 -0.449,-0.513 -0.891,-1.027 -1.357,-1.535 z"
         id="path55"
         inkscape:connector-curvature="0" /><path
         style="fill:#fdd44b"
         d="m 286.268,76.574 c 0.541,0.424 1.082,0.848 1.608,1.276 -0.526,-0.428 -1.067,-0.852 -1.608,-1.276 z"
         id="path57"
         inkscape:connector-curvature="0" /><path
         style="fill:#fdd44b"
         d="m 16.197,135.451 c -0.074,-0.227 -0.135,-0.46 -0.202,-0.691 0.067,0.231 0.129,0.463 0.202,0.691 z"
         id="path59"
         inkscape:connector-curvature="0" /><path
         style="fill:#fdd44b"
         d="m 290.265,79.863 c 0.468,0.405 0.95,0.805 1.407,1.214 -0.457,-0.409 -0.939,-0.809 -1.407,-1.214 z"
         id="path61"
         inkscape:connector-curvature="0" /><path
         style="fill:#fdd44b"
         d="m 282.118,73.461 c 0.556,0.398 1.102,0.8 1.645,1.203 -0.544,-0.403 -1.089,-0.805 -1.645,-1.203 z"
         id="path63"
         inkscape:connector-curvature="0" /><path
         style="fill:#fdd44b"
         d="m 26.098,148.303 c -0.261,-0.168 -0.519,-0.337 -0.772,-0.515 0.253,0.178 0.512,0.347 0.772,0.515 z"
         id="path65"
         inkscape:connector-curvature="0" /><path
         style="fill:#fdd44b"
         d="m 16.943,137.475 c -0.037,-0.088 -0.066,-0.18 -0.102,-0.268 0.036,0.088 0.065,0.18 0.102,0.268 z"
         id="path67"
         inkscape:connector-curvature="0" /><path
         style="fill:#fdd44b"
         d="m 29.867,150.3 c -0.25,-0.104 -0.489,-0.227 -0.735,-0.339 0.246,0.112 0.486,0.235 0.735,0.339 z"
         id="path69"
         inkscape:connector-curvature="0" /><path
         style="fill:#fdd44b"
         d="m 300.57,90.225 c -3.804,-2.93 -7.935,-5.748 -12.404,-8.429 -28.665,-17.199 -66.933,-26.67 -107.755,-26.67 -40.824,0 -79.093,9.472 -107.757,26.67 -27.462,16.477 -42.586,37.973 -42.586,60.528 0,3.045 0.574,5.273 1.611,7.956 2.337,0.759 4.823,0.496 7.409,0.496 l 252.576,0 c 13.263,0 24.054,-10.108 24.054,-23.373 10e-4,-13.257 -5.262,-25.456 -15.148,-37.178 z M 85.442,120.778 c -1.393,1.393 -3.338,2.194 -5.312,2.194 -1.974,0 -3.909,-0.801 -5.312,-2.194 -1.403,-1.404 -2.205,-3.338 -2.205,-5.323 0,-1.974 0.802,-3.908 2.205,-5.312 1.403,-1.404 3.338,-2.205 5.312,-2.205 1.975,0 3.919,0.801 5.312,2.205 1.403,1.403 2.205,3.338 2.205,5.312 0,1.985 -0.802,3.919 -2.205,5.323 z m 44.852,-37.887 c -1.393,1.394 -3.328,2.196 -5.312,2.196 -1.975,0 -3.909,-0.801 -5.312,-2.196 -1.403,-1.402 -2.204,-3.337 -2.204,-5.321 0,-1.974 0.801,-3.919 2.204,-5.312 1.394,-1.404 3.338,-2.205 5.312,-2.205 1.984,0 3.919,0.802 5.312,2.205 1.403,1.393 2.205,3.338 2.205,5.312 0,1.984 -0.802,3.918 -2.205,5.321 z m 40.402,37.887 c -1.404,1.393 -3.348,2.194 -5.323,2.194 -1.974,0 -3.908,-0.801 -5.312,-2.194 -1.403,-1.404 -2.205,-3.338 -2.205,-5.323 0,-1.974 0.802,-3.908 2.205,-5.312 1.403,-1.404 3.338,-2.205 5.312,-2.205 1.975,0 3.919,0.801 5.323,2.205 1.394,1.403 2.194,3.338 2.194,5.312 0,1.985 -0.8,3.919 -2.194,5.323 z m 40.382,-37.887 c -1.393,1.394 -3.327,2.196 -5.312,2.196 -1.975,0 -3.909,-0.801 -5.313,-2.196 -1.403,-1.402 -2.204,-3.337 -2.204,-5.321 0,-1.974 0.801,-3.919 2.204,-5.312 1.403,-1.404 3.338,-2.205 5.313,-2.205 1.985,0 3.919,0.802 5.312,2.205 1.403,1.393 2.205,3.338 2.205,5.312 0,1.984 -0.802,3.918 -2.205,5.321 z m 44.852,37.887 c -1.393,1.393 -3.327,2.194 -5.312,2.194 -1.975,0 -3.909,-0.801 -5.313,-2.194 -1.402,-1.404 -2.204,-3.338 -2.204,-5.323 0,-1.974 0.802,-3.908 2.204,-5.312 1.404,-1.404 3.338,-2.205 5.313,-2.205 1.985,0 3.919,0.801 5.312,2.205 1.402,1.403 2.205,3.338 2.205,5.312 0,1.985 -0.803,3.919 -2.205,5.323 z"
         id="path71"
         inkscape:connector-curvature="0" /><path
         style="fill:#fdd44b"
         d="m 27.944,149.387 c -0.276,-0.145 -0.545,-0.301 -0.815,-0.456 0.27,0.155 0.539,0.311 0.815,0.456 z"
         id="path73"
         inkscape:connector-curvature="0" /><path
         style="fill:#fdd44b"
         d="m 18.219,139.999 c -0.12,-0.209 -0.246,-0.413 -0.359,-0.625 0.113,0.213 0.239,0.417 0.359,0.625 z"
         id="path75"
         inkscape:connector-curvature="0" /><path
         style="fill:#fdd44b"
         d="m 19.418,141.89 c -0.16,-0.226 -0.317,-0.455 -0.468,-0.687 0.152,0.232 0.309,0.46 0.468,0.687 z"
         id="path77"
         inkscape:connector-curvature="0" /><path
         style="fill:#fdd44b"
         d="m 24.301,147.021 c -0.217,-0.17 -0.44,-0.334 -0.651,-0.511 0.212,0.178 0.433,0.341 0.651,0.511 z"
         id="path79"
         inkscape:connector-curvature="0" /><path
         style="fill:#fdd44b"
         d="m 20.727,143.593 c -0.177,-0.21 -0.345,-0.427 -0.515,-0.643 0.17,0.216 0.338,0.433 0.515,0.643 z"
         id="path81"
         inkscape:connector-curvature="0" /></g><path
       style="fill:#3f2d20"
       d="m 80.13,107.938 c -1.975,0 -3.909,0.802 -5.312,2.205 -1.403,1.404 -2.205,3.338 -2.205,5.312 0,1.985 0.801,3.919 2.205,5.323 1.403,1.393 3.338,2.194 5.312,2.194 1.974,0 3.919,-0.801 5.312,-2.194 1.403,-1.404 2.205,-3.338 2.205,-5.323 0,-1.974 -0.802,-3.908 -2.205,-5.312 -1.394,-1.403 -3.338,-2.205 -5.312,-2.205 z"
       id="path83"
       inkscape:connector-curvature="0" /><path
       style="fill:#3f2d20"
       d="m 165.373,107.938 c -1.974,0 -3.908,0.802 -5.311,2.205 -1.404,1.404 -2.205,3.338 -2.205,5.312 0,1.985 0.802,3.919 2.205,5.323 1.403,1.393 3.338,2.194 5.311,2.194 1.975,0 3.919,-0.801 5.323,-2.194 1.394,-1.404 2.195,-3.338 2.195,-5.323 0,-1.974 -0.801,-3.908 -2.195,-5.312 -1.404,-1.403 -3.348,-2.205 -5.323,-2.205 z"
       id="path85"
       inkscape:connector-curvature="0" /><path
       style="fill:#3f2d20"
       d="m 250.618,107.938 c -1.975,0 -3.909,0.802 -5.313,2.205 -1.402,1.404 -2.204,3.338 -2.204,5.312 0,1.985 0.802,3.919 2.204,5.323 1.404,1.393 3.338,2.194 5.313,2.194 1.985,0 3.919,-0.801 5.312,-2.194 1.403,-1.404 2.205,-3.338 2.205,-5.323 0,-1.974 -0.802,-3.908 -2.205,-5.312 -1.393,-1.403 -3.327,-2.205 -5.312,-2.205 z"
       id="path87"
       inkscape:connector-curvature="0" /><path
       style="fill:#3f2d20"
       d="m 124.982,70.052 c -1.975,0 -3.919,0.801 -5.312,2.205 -1.403,1.393 -2.205,3.338 -2.205,5.312 0,1.985 0.802,3.919 2.205,5.322 1.403,1.394 3.338,2.195 5.312,2.195 1.984,0 3.919,-0.801 5.312,-2.195 1.403,-1.403 2.205,-3.337 2.205,-5.322 0,-1.974 -0.802,-3.919 -2.205,-5.312 -1.394,-1.403 -3.328,-2.205 -5.312,-2.205 z"
       id="path89"
       inkscape:connector-curvature="0" /><path
       style="fill:#3f2d20"
       d="m 205.766,70.052 c -1.975,0 -3.909,0.801 -5.313,2.205 -1.402,1.393 -2.204,3.338 -2.204,5.312 0,1.985 0.802,3.919 2.204,5.322 1.404,1.394 3.338,2.195 5.313,2.195 1.985,0 3.919,-0.801 5.312,-2.195 1.403,-1.403 2.205,-3.337 2.205,-5.322 0,-1.974 -0.803,-3.919 -2.205,-5.312 -1.393,-1.403 -3.327,-2.205 -5.312,-2.205 z"
       id="path91"
       inkscape:connector-curvature="0" /><path
       style="fill:#3f2d20"
       d="m 312.417,244.104 c 2.746,-4.409 4.344,-9.602 4.344,-15.167 0,-9.906 -5.031,-18.66 -12.669,-23.842 5.233,-5.628 8.444,-13.16 8.444,-21.433 0,-7.227 -2.45,-13.888 -6.557,-19.209 14.492,-5.726 24.775,-19.862 24.775,-36.364 0,-28.044 -17.717,-54.118 -49.886,-73.42 C 249.901,36.089 208.885,25.856 165.378,25.856 121.869,25.856 80.853,36.088 49.886,54.669 17.716,73.969 0,100.043 0,128.088 c 0,16.502 10.283,30.639 24.774,36.364 -4.108,5.321 -6.556,11.982 -6.556,19.209 0,8.274 3.215,15.803 8.448,21.43 -7.642,5.183 -12.674,13.937 -12.674,23.845 0,5.566 1.598,10.759 4.344,15.167 C 9.359,246.423 0,252.569 0,268.861 c 0,19.872 14.385,36.037 32.067,36.037 l 266.619,0 c 17.682,0 32.067,-16.166 32.067,-36.037 0.001,-16.294 -9.359,-22.438 -18.336,-24.757 z m -13.731,45.76 -266.619,0 c -9.392,0 -17.033,-9.422 -17.033,-21.003 0,-6.723 1.186,-11.131 17.033,-11.131 l 266.619,0 c 15.847,0 17.033,4.407 17.033,11.131 0,11.581 -7.641,21.003 -17.033,21.003 z m -17.668,-89.72 -53.028,0 c 3.852,-1.854 6.914,-4.123 9.655,-6.165 5.193,-3.871 9.296,-6.929 18.097,-6.929 8.801,0 12.903,3.058 18.097,6.929 2.664,1.986 5.63,4.185 9.334,6.008 -0.707,0.093 -1.424,0.157 -2.155,0.157 z m -143.387,0 c 3.853,-1.854 6.914,-4.123 9.655,-6.165 5.193,-3.871 9.296,-6.929 18.097,-6.929 8.801,0 12.904,3.058 18.098,6.929 2.74,2.043 5.802,4.312 9.655,6.165 l -55.505,0 z m -87.895,0 c -0.735,0 -1.453,-0.065 -2.162,-0.158 3.708,-1.823 6.679,-4.02 9.345,-6.007 5.194,-3.871 9.297,-6.929 18.1,-6.929 8.803,0 12.906,3.058 18.1,6.929 2.741,2.043 5.803,4.312 9.656,6.165 l -53.039,0 z m 247.012,-11.559 c -6.074,-0.82 -9.629,-3.459 -13.924,-6.66 -5.923,-4.414 -13.294,-9.909 -27.082,-9.909 -13.788,0 -21.159,5.494 -27.082,9.909 -5.194,3.871 -9.296,6.929 -18.097,6.929 -8.801,0 -12.903,-3.058 -18.097,-6.929 -5.924,-4.415 -13.294,-9.909 -27.083,-9.909 -13.788,0 -21.159,5.494 -27.082,9.909 -5.194,3.871 -9.296,6.929 -18.097,6.929 -8.803,0 -12.906,-3.058 -18.1,-6.929 -5.924,-4.415 -13.295,-9.909 -27.085,-9.909 -13.789,0 -21.161,5.494 -27.085,9.908 -4.295,3.202 -7.852,5.842 -13.93,6.661 -0.488,-1.555 -0.753,-3.209 -0.753,-4.924 0,-9.088 7.395,-16.482 16.484,-16.482 l 231.282,0 c 9.088,0 16.483,7.394 16.483,16.482 10e-4,1.714 -0.264,3.369 -0.752,4.924 z m -5.083,-36.441 -252.576,0 c -13.264,0 -24.055,-10.792 -24.055,-24.057 0,-22.555 15.124,-44.051 42.586,-60.528 28.664,-17.198 66.933,-26.67 107.757,-26.67 40.822,0 79.09,9.472 107.755,26.67 27.463,16.477 42.587,37.973 42.587,60.528 0,13.265 -10.791,24.057 -24.054,24.057 z m -248.879,63.035 245.18,0 c 7.588,0 13.76,6.171 13.76,13.758 0,7.588 -6.172,13.76 -13.76,13.76 l -245.18,0 c -7.587,0 -13.76,-6.172 -13.76,-13.76 0.001,-7.587 6.173,-13.758 13.76,-13.758 z"
       id="path93"
       inkscape:connector-curvature="0" /></g><g
     id="g95" /><g
     id="g97" /><g
     id="g99" /><g
     id="g101" /><g
     id="g103" /><g
     id="g105" /><g
     id="g107" /><g
     id="g109" /><g
     id="g111" /><g
     id="g113" /><g
     id="g115" /><g
     id="g117" /><g
     id="g119" /><g
     id="g121" /><g
     id="g123" /></svg>