<?xml version="1.0" encoding="UTF-8" standalone="no"?>
<!-- Generator: Adobe Illustrator 18.0.0, SVG Export Plug-In . SVG Version: 6.00 Build 0)  -->

<svg
   xmlns:dc="http://purl.org/dc/elements/1.1/"
   xmlns:cc="http://creativecommons.org/ns#"
   xmlns:rdf="http://www.w3.org/1999/02/22-rdf-syntax-ns#"
   xmlns:svg="http://www.w3.org/2000/svg"
   xmlns="http://www.w3.org/2000/svg"
   xmlns:sodipodi="http://sodipodi.sourceforge.net/DTD/sodipodi-0.dtd"
   xmlns:inkscape="http://www.inkscape.org/namespaces/inkscape"
   version="1.1"
   id="Capa_1"
   x="0px"
   y="0px"
   viewBox="0 0 335.071 335.071"
   style="enable-background:new 0 0 335.071 335.071;"
   xml:space="preserve"
   inkscape:version="0.91 r13725"
   sodipodi:docname="t7.svg"><metadata
     id="metadata77"><rdf:RDF><cc:Work
         rdf:about=""><dc:format>image/svg+xml</dc:format><dc:type
           rdf:resource="http://purl.org/dc/dcmitype/StillImage" /></cc:Work></rdf:RDF></metadata><defs
     id="defs75" /><sodipodi:namedview
     pagecolor="#ffffff"
     bordercolor="#666666"
     borderopacity="1"
     objecttolerance="10"
     gridtolerance="10"
     guidetolerance="10"
     inkscape:pageopacity="0"
     inkscape:pageshadow="2"
     inkscape:window-width="737"
     inkscape:window-height="480"
     id="namedview73"
     showgrid="false"
     inkscape:zoom="0.70432831"
     inkscape:cx="167.53551"
     inkscape:cy="167.53551"
     inkscape:window-x="75"
     inkscape:window-y="34"
     inkscape:window-maximized="0"
     inkscape:current-layer="Capa_1" /><g
     id="g3"><g
       id="g5"><polygon
         style="fill:#ce593f"
         points="61.108,176.647 55.67,149.939 55.625,149.939 "
         id="polygon7" /><path
         style="fill:#ce593f"
         d="m 236.89,165.939 c -12.736,16 -39.376,28.931 -69.354,28.931 -34.364,0 -70.277,-31.931 -68.4,-28.931 l -28.477,0 31.344,153 142.831,0 31.582,-153 -39.526,0 z M 210.727,287.36 c -11.637,8.147 -26.977,12.634 -43.191,12.634 -16.215,0 -31.554,-4.487 -43.191,-12.634 -12.452,-8.718 -19.31,-20.572 -19.31,-33.379 0,-12.807 6.858,-24.661 19.31,-33.379 11.637,-8.147 26.977,-12.634 43.191,-12.634 16.214,0 31.554,4.487 43.191,12.634 12.453,8.718 19.31,20.572 19.31,33.379 0,12.807 -6.857,24.661 -19.31,33.379 z"
         id="path9"
         inkscape:connector-curvature="0" /></g><path
       style="fill:#fdd44b"
       d="m 90.873,134.939 4.995,0 c 4.735,0 8.856,3.407 8.856,7.559 0,4.792 0.149,9.519 6.149,13.852 l 0,-96.411 -20,0 0,75 z"
       id="path11"
       inkscape:connector-curvature="0" /><path
       style="fill:#fdd44b"
       d="m 209.873,15.034 0,12.905 -18,0 0,148.046 c 8,-1.786 13,-4.255 18,-7.223 l 0,-153.728 0,0 z"
       id="path13"
       inkscape:connector-curvature="0" /><path
       style="fill:#fdd44b"
       d="m 242.873,48.133 0,13.806 -20,0 0,94.412 c 2,-4.332 5.573,-9.061 5.573,-13.853 0,-4.152 3.602,-7.559 8.199,-7.559 l 6.228,0 0,-86.806 0,0 z"
       id="path15"
       inkscape:connector-curvature="0" /><path
       style="fill:#fdd44b"
       d="m 177.873,64.91 0,15.029 -23,0 0,-15.029 0,0 0,113.82 c 3,0.291 7.826,0.444 11.5,0.444 3.673,0 9.5,-0.153 11.5,-0.444 l 0,-113.82 0,0 z"
       id="path17"
       inkscape:connector-curvature="0" /><path
       style="fill:#fdd44b"
       d="m 144.873,29.972 0,13.967 -20,0 0,124.822 c 8,2.97 15,5.438 20,7.224 l 0,-146.013 0,0 z"
       id="path19"
       inkscape:connector-curvature="0" /><path
       style="fill:#ce593f"
       d="m 257.712,92.412 0,42.611 24.208,0 c 0.581,-8.53 0.355,-23.939 -7.301,-33.743 -3.976,-5.091 -9.52,-8 -16.907,-8.868 z"
       id="path21"
       inkscape:connector-curvature="0" /><path
       style="fill:#3f2d20"
       d="M 286.509,92.079 C 279.682,83.305 269.991,78.345 257.712,77.311 l 0,-36.695 c 0,-4.152 -3.366,-7.517 -7.517,-7.517 l -25.547,0 0,-25.582 C 224.648,3.365 221.282,0 217.131,0 l -33.064,0 c -4.152,0 -7.517,3.365 -7.517,7.517 l 0,42.359 -18.029,0 0,-27.421 c 0,-4.152 -3.366,-7.517 -7.517,-7.517 l -33.064,0 c -4.151,0 -7.517,3.365 -7.517,7.517 l 0,8.538 -25.546,0 c -4.151,0 -7.517,3.365 -7.517,7.517 l 0,38.8 c -12.279,1.034 -21.969,5.994 -28.797,14.768 -15.092,19.394 -9.774,50.465 -9.54,51.779 0.006,0.033 37.707,185.196 37.707,185.196 0.713,3.502 3.792,6.018 7.366,6.018 l 166.88,0 c 3.574,0 6.653,-2.516 7.366,-6.018 0,0 37.701,-185.163 37.707,-185.196 0.233,-1.313 5.552,-32.385 -9.54,-51.778 z M 90.236,320.037 55.625,150.057 l 35.476,0 c 5.635,24.596 38.349,44.151 76.435,44.151 38.085,0 70.8,-19.555 76.434,-44.151 l 35.477,0 -34.612,169.98 -154.599,0 z M 77.36,92.412 l 0,42.611 -24.245,0 c -0.631,-9.436 0.106,-24.45 7.313,-33.711 3.977,-5.111 9.531,-8.03 16.932,-8.9 z m 15.034,-46.385 18.028,0 0,110.323 c -3.29,-4.333 -5.144,-9.018 -5.144,-13.81 0,-4.152 -3.366,-7.517 -7.517,-7.517 l -5.368,0 0,-88.996 z m 150.283,88.996 -5.368,0 c -4.152,0 -7.517,3.365 -7.517,7.517 0,4.792 -1.855,9.479 -5.145,13.811 l 0,-108.218 18.029,0 0,86.89 z m -51.092,-119.989 18.029,0 0,153.728 c -5.311,2.968 -11.418,5.437 -18.029,7.223 l 0,-160.951 z M 176.55,178.731 c -2.966,0.291 -5.977,0.444 -9.014,0.444 -3.038,0 -6.049,-0.153 -9.015,-0.444 l 0,-113.821 18.029,0 0,113.821 z m -51.093,-148.759 18.03,0 0,146.013 c -6.611,-1.786 -12.719,-4.255 -18.03,-7.224 l 0,-138.789 z m 156.463,105.051 -24.208,0 0,-42.611 c 7.387,0.867 12.932,3.776 16.908,8.868 7.656,9.804 7.881,25.213 7.3,33.743 z"
       id="path23"
       inkscape:connector-curvature="0" /><path
       style="fill:#3f2d20"
       d="m 210.727,220.603 c -11.637,-8.147 -26.976,-12.634 -43.191,-12.634 -16.215,0 -31.554,4.487 -43.191,12.634 -12.453,8.718 -19.311,20.572 -19.311,33.379 0,12.806 6.858,24.661 19.311,33.379 11.637,8.147 26.976,12.634 43.191,12.634 16.214,0 31.554,-4.487 43.191,-12.634 12.453,-8.718 19.311,-20.572 19.311,-33.379 -0.001,-12.807 -6.858,-24.661 -19.311,-33.379 z m -43.191,64.357 c -25.731,0 -47.468,-14.187 -47.468,-30.979 0,-16.792 21.737,-30.979 47.468,-30.979 25.73,0 47.467,14.187 47.467,30.979 0,16.792 -21.737,30.979 -47.467,30.979 z"
       id="path25"
       inkscape:connector-curvature="0" /><polygon
       style="fill:#ce593f"
       points="243.97,150.061 243.971,150.057 243.97,150.057 "
       id="polygon27" /><g
       id="g29"><path
         style="fill:#ce593f"
         d="m 55.411,111.334 c -2.288,7.344 -2.672,15.552 -2.397,21.858 -0.275,-6.307 0.109,-14.515 2.397,-21.858 z"
         id="path31"
         inkscape:connector-curvature="0" /><path
         style="fill:#ce593f"
         d="m 77.873,92.412 0,14.985 c -13,3.007 -11.678,22.542 -12.57,27.542 l 12.57,0 0,-42.527 0,0 z"
         id="path33"
         inkscape:connector-curvature="0" /></g><g
       id="g35"><path
         style="fill:#ef8829"
         d="m 171.864,223.151 c 0.638,0.041 1.265,0.107 1.897,0.165 -0.632,-0.058 -1.258,-0.125 -1.897,-0.165 z"
         id="path37"
         inkscape:connector-curvature="0" /><path
         style="fill:#ef8829"
         d="m 175.306,223.474 c -22.086,2.562 -39.483,15.487 -39.483,30.507 0,15.02 17.397,27.945 39.482,30.507 22.183,-2.506 39.698,-15.44 39.698,-30.507 0,-15.066 -17.515,-28.001 -39.697,-30.507 z"
         id="path39"
         inkscape:connector-curvature="0" /><path
         style="fill:#ef8829"
         d="m 173.755,284.648 c -0.629,0.057 -1.255,0.123 -1.891,0.164 0.637,-0.04 1.261,-0.107 1.891,-0.164 z"
         id="path41"
         inkscape:connector-curvature="0" /></g></g><g
     id="g43" /><g
     id="g45" /><g
     id="g47" /><g
     id="g49" /><g
     id="g51" /><g
     id="g53" /><g
     id="g55" /><g
     id="g57" /><g
     id="g59" /><g
     id="g61" /><g
     id="g63" /><g
     id="g65" /><g
     id="g67" /><g
     id="g69" /><g
     id="g71" /></svg>