<?xml version="1.0" encoding="UTF-8" standalone="no"?>
<!-- Generator: Adobe Illustrator 18.0.0, SVG Export Plug-In . SVG Version: 6.00 Build 0)  -->

<svg
   xmlns:dc="http://purl.org/dc/elements/1.1/"
   xmlns:cc="http://creativecommons.org/ns#"
   xmlns:rdf="http://www.w3.org/1999/02/22-rdf-syntax-ns#"
   xmlns:svg="http://www.w3.org/2000/svg"
   xmlns="http://www.w3.org/2000/svg"
   xmlns:sodipodi="http://sodipodi.sourceforge.net/DTD/sodipodi-0.dtd"
   xmlns:inkscape="http://www.inkscape.org/namespaces/inkscape"
   version="1.1"
   id="Capa_1"
   x="0px"
   y="0px"
   viewBox="0 0 319.777 319.777"
   style="enable-background:new 0 0 319.777 319.777;"
   xml:space="preserve"
   inkscape:version="0.91 r13725"
   sodipodi:docname="t8.svg"><metadata
     id="metadata359"><rdf:RDF><cc:Work
         rdf:about=""><dc:format>image/svg+xml</dc:format><dc:type
           rdf:resource="http://purl.org/dc/dcmitype/StillImage" /></cc:Work></rdf:RDF></metadata><defs
     id="defs357" /><sodipodi:namedview
     pagecolor="#ffffff"
     bordercolor="#666666"
     borderopacity="1"
     objecttolerance="10"
     gridtolerance="10"
     guidetolerance="10"
     inkscape:pageopacity="0"
     inkscape:pageshadow="2"
     inkscape:window-width="737"
     inkscape:window-height="480"
     id="namedview355"
     showgrid="false"
     inkscape:zoom="0.73801429"
     inkscape:cx="159.8885"
     inkscape:cy="159.8885"
     inkscape:window-x="75"
     inkscape:window-y="34"
     inkscape:window-maximized="0"
     inkscape:current-layer="Capa_1" /><g
     id="g3"><path
       style="fill:#ef8829"
       d="m 118.156,304.743 16.134,0 -2.318,-54.997 c -7.909,-2.448 -15.213,-5.942 -21.567,-10.396 l 7.751,65.393 z"
       id="path5"
       inkscape:connector-curvature="0" /><path
       style="fill:#ce593f"
       d="m 147.157,253.04 2.181,51.703 21.101,0 2.181,-51.703 c -4.164,0.544 -8.418,0.835 -12.731,0.835 -4.314,0 -8.568,-0.291 -12.732,-0.835 z"
       id="path7"
       inkscape:connector-curvature="0" /><path
       style="fill:#ef8829"
       d="m 209.371,239.35 c -6.354,4.453 -13.658,7.948 -21.566,10.396 l -2.319,54.997 16.085,0 0.112,-0.524 7.688,-64.869 z"
       id="path9"
       inkscape:connector-curvature="0" /><path
       style="fill:#ce593f"
       d="m 66.311,116.565 34.178,167.199 -7.487,-63.345 c -3.216,-6.106 -4.918,-12.77 -4.918,-19.581 0,-3.562 0.469,-7.102 1.366,-10.504 l -10.007,-84.117 1.188,10.347 -14.32,0 z"
       id="path11"
       inkscape:connector-curvature="0" /><g
       id="g13"><path
         style="fill:#84bd93"
         d="m 207.947,180.661 c -0.278,-0.295 -0.579,-0.582 -0.869,-0.873 0.29,0.291 0.592,0.578 0.869,0.873 z"
         id="path15"
         inkscape:connector-curvature="0" /><path
         style="fill:#84bd93"
         d="m 204.156,177.097 c 0.322,0.27 0.632,0.546 0.943,0.821 -0.312,-0.275 -0.62,-0.551 -0.943,-0.821 z"
         id="path17"
         inkscape:connector-curvature="0" /><path
         style="fill:#84bd93"
         d="m 210.046,183.098 c -10.593,-6.726 -24.235,-10.409 -38.77,-10.409 -15.626,0 -30.226,4.252 -41.108,11.971 -10.099,7.165 -15.661,16.44 -15.661,26.116 0,6.149 2.261,12.131 6.49,17.518 10.615,6.79 24.284,10.547 38.892,10.547 15.626,0 30.226,-4.252 41.108,-11.971 10.099,-7.164 15.66,-16.439 15.66,-26.116 0,-6.203 -2.311,-12.233 -6.611,-17.656 z"
         id="path19"
         inkscape:connector-curvature="0" /></g><path
       style="fill:#ef8829"
       d="m 125.904,106.197 0.404,10.369 -30.536,0 6.309,52.89 c 2.387,-2.382 5.047,-4.812 8.001,-6.907 5.327,-3.779 11.338,-6.784 17.815,-9.153 l -1.993,-47.199 z"
       id="path21"
       inkscape:connector-curvature="0" /><path
       style="fill:#ce593f"
       d="m 141.374,116.565 1.402,32.91 c 5.538,-0.988 11.276,-1.671 17.112,-1.671 5.836,0 11.574,0.769 17.112,1.758 l 1.402,-32.997 -37.028,0 z"
       id="path23"
       inkscape:connector-curvature="0" /><path
       style="fill:#ce593f"
       d="m 239.145,116.565 -8.82,74.073 c 0.898,3.401 1.366,6.726 1.366,10.288 0,6.811 -1.701,13.714 -4.917,19.819 l -10.015,84.82 7.159,0 38.528,-189 -23.301,0 z"
       id="path25"
       inkscape:connector-curvature="0" /><path
       style="fill:#ef8829"
       d="m 193.458,116.565 0.415,-10.369 -1.994,47.111 c 6.476,2.369 12.488,5.374 17.815,9.153 2.954,2.095 5.614,4.655 8.002,7.037 l 6.31,-52.933 -30.548,0 z"
       id="path27"
       inkscape:connector-curvature="0" /><g
       id="g29"><path
         style="fill:#fdd44b"
         d="m 84.098,48.325 c -0.65,-0.107 -1.285,-0.267 -1.88,-0.518 0.596,0.251 1.231,0.41 1.88,0.518 z"
         id="path31"
         inkscape:connector-curvature="0" /><path
         style="fill:#fdd44b"
         d="m 105.667,28.415 c -0.376,-0.054 -0.755,-0.089 -1.142,-0.089 -0.506,0 -1.017,0.048 -1.522,0.141 -0.081,0.022 -0.161,0.041 -0.243,0.06 -2.678,0.615 -5.476,-0.279 -7.302,-2.332 -1.586,-1.784 -3.843,-2.807 -6.194,-2.807 -0.557,0 -1.12,0.058 -1.676,0.173 -2.173,0.445 -4.039,1.71 -5.259,3.561 -1.22,1.85 -1.645,4.064 -1.2,6.235 0.294,1.432 0.944,2.72 1.931,3.829 1.789,2.01 2.368,4.825 1.516,7.378 -0.415,1.243 -0.512,2.511 -0.332,3.777 0.384,0.057 0.766,0.12 1.163,0.121 0.56,0 1.126,-0.059 1.684,-0.174 2.883,-0.592 5.258,-2.709 6.194,-5.524 0.875,-2.628 3.125,-4.562 5.855,-5.033 0.062,-0.011 0.124,-0.021 0.185,-0.03 4.234,-0.967 6.962,-5.034 6.342,-9.286 z"
         id="path33"
         inkscape:connector-curvature="0" /></g><g
       id="g35"><path
         style="fill:#fdd44b"
         d="m 126.801,60.89 c 0.206,0.083 0.397,0.192 0.594,0.291 -0.197,-0.098 -0.387,-0.207 -0.594,-0.291 z"
         id="path37"
         inkscape:connector-curvature="0" /><path
         style="fill:#fdd44b"
         d="m 128.154,61.594 c 0.204,0.13 0.393,0.281 0.584,0.428 -0.192,-0.148 -0.379,-0.297 -0.584,-0.428 z"
         id="path39"
         inkscape:connector-curvature="0" /><path
         style="fill:#fdd44b"
         d="m 107.856,84.784 c -0.05,-0.174 -0.118,-0.34 -0.156,-0.519 0.038,0.179 0.106,0.344 0.156,0.519 z"
         id="path41"
         inkscape:connector-curvature="0" /><path
         style="fill:#fdd44b"
         d="m 125.312,60.442 c 0.18,0.035 0.348,0.101 0.524,0.148 -0.176,-0.047 -0.343,-0.113 -0.524,-0.148 z"
         id="path43"
         inkscape:connector-curvature="0" /><path
         style="fill:#fdd44b"
         d="m 131.661,66.337 c 0.081,0.286 0.158,0.574 0.208,0.872 -0.05,-0.299 -0.126,-0.585 -0.208,-0.872 z"
         id="path45"
         inkscape:connector-curvature="0" /><path
         style="fill:#fdd44b"
         d="m 131.117,64.914 c 0.128,0.258 0.247,0.519 0.348,0.791 -0.101,-0.273 -0.219,-0.533 -0.348,-0.791 z"
         id="path47"
         inkscape:connector-curvature="0" /><path
         style="fill:#fdd44b"
         d="m 130.335,63.634 c 0.164,0.22 0.316,0.448 0.458,0.684 -0.142,-0.237 -0.293,-0.464 -0.458,-0.684 z"
         id="path49"
         inkscape:connector-curvature="0" /><path
         style="fill:#fdd44b"
         d="m 129.878,63.08 c -0.174,-0.194 -0.348,-0.384 -0.539,-0.562 0.19,0.177 0.366,0.368 0.539,0.562 z"
         id="path51"
         inkscape:connector-curvature="0" /><path
         style="fill:#fdd44b"
         d="m 108.462,86.308 c -0.101,-0.193 -0.211,-0.381 -0.296,-0.583 0.085,0.203 0.195,0.389 0.296,0.583 z"
         id="path53"
         inkscape:connector-curvature="0" /><path
         style="fill:#fdd44b"
         d="m 131.888,67.389 c -0.38,-0.055 -0.765,-0.093 -1.159,-0.093 -1.461,0 -2.855,0.378 -4.141,1.121 -2.33,1.349 -5.203,1.348 -7.533,-0.001 -1.284,-0.744 -2.677,-1.12 -4.139,-1.12 -4.575,0 -8.297,3.722 -8.297,8.297 0,2.943 1.595,5.695 4.166,7.18 2.376,1.373 3.815,3.934 3.752,6.678 -0.002,0.088 -0.006,0.175 -0.01,0.262 0.007,0.335 0.042,0.662 0.088,0.986 0.392,0.057 0.784,0.119 1.192,0.119 4.517,0 8.203,-3.628 8.294,-8.124 -0.003,-0.059 -0.005,-0.117 -0.007,-0.176 -0.094,-2.773 1.349,-5.373 3.751,-6.762 1.267,-0.732 2.294,-1.775 3.013,-2.994 0.168,-0.362 0.346,-0.721 0.532,-1.073 0.4,-0.977 0.619,-2.03 0.619,-3.112 -10e-4,-0.407 -0.065,-0.797 -0.121,-1.188 z"
         id="path55"
         inkscape:connector-curvature="0" /><path
         style="fill:#fdd44b"
         d="m 112.958,90.284 c -0.268,-0.098 -0.526,-0.215 -0.78,-0.339 0.255,0.125 0.511,0.241 0.78,0.339 z"
         id="path57"
         inkscape:connector-curvature="0" /><path
         style="fill:#fdd44b"
         d="m 114.443,90.681 c -0.293,-0.049 -0.576,-0.125 -0.858,-0.203 0.284,0.078 0.565,0.154 0.858,0.203 z"
         id="path59"
         inkscape:connector-curvature="0" /><path
         style="fill:#fdd44b"
         d="m 109.308,87.623 c -0.149,-0.188 -0.299,-0.375 -0.432,-0.576 0.133,0.202 0.283,0.387 0.432,0.576 z"
         id="path61"
         inkscape:connector-curvature="0" /><path
         style="fill:#fdd44b"
         d="m 111.588,89.629 c -0.234,-0.139 -0.46,-0.289 -0.679,-0.449 0.219,0.162 0.444,0.309 0.679,0.449 z"
         id="path63"
         inkscape:connector-curvature="0" /><path
         style="fill:#fdd44b"
         d="m 109.8,88.206 c 0.177,0.187 0.366,0.358 0.56,0.529 -0.193,-0.169 -0.382,-0.343 -0.56,-0.529 z"
         id="path65"
         inkscape:connector-curvature="0" /></g><g
       id="g67"><path
         style="fill:#fdd44b"
         d="m 244.463,20.105 c 0.33,0.5 0.592,1.029 0.802,1.575 -0.212,-0.545 -0.472,-1.075 -0.802,-1.575 z"
         id="path69"
         inkscape:connector-curvature="0" /><path
         style="fill:#fdd44b"
         d="m 245.374,22.047 c 0.144,0.435 0.267,0.876 0.339,1.329 -0.072,-0.453 -0.193,-0.894 -0.339,-1.329 z"
         id="path71"
         inkscape:connector-curvature="0" /><path
         style="fill:#fdd44b"
         d="m 245.723,23.494 c -2.747,-0.393 -5.525,0.619 -7.373,2.701 -1.829,2.058 -4.638,2.948 -7.32,2.328 -0.077,-0.018 -0.152,-0.037 -0.227,-0.057 -0.499,-0.092 -1.011,-0.14 -1.518,-0.14 -3.91,0 -7.321,2.788 -8.11,6.631 -0.201,0.979 -0.21,1.952 -0.07,2.888 -0.152,-0.037 -0.3,-0.085 -0.456,-0.113 2.725,0.476 4.968,2.408 5.842,5.031 0.937,2.815 3.31,4.932 6.195,5.524 0.557,0.115 1.125,0.174 1.684,0.174 1.12,0 2.194,-0.235 3.183,-0.651 0.3,-0.155 0.603,-0.304 0.911,-0.444 2.014,-1.155 3.526,-3.14 4.018,-5.535 0.295,-1.434 0.206,-2.874 -0.264,-4.28 -0.854,-2.555 -0.275,-5.37 1.515,-7.381 0.988,-1.109 1.638,-2.397 1.931,-3.83 0.195,-0.954 0.193,-1.91 0.059,-2.846 z"
         id="path73"
         inkscape:connector-curvature="0" /></g><g
       id="g75"><path
         style="fill:#fdd44b"
         d="m 56.331,86.2 c -0.098,-0.195 -0.205,-0.384 -0.288,-0.588 0.082,0.204 0.19,0.392 0.288,0.588 z"
         id="path77"
         inkscape:connector-curvature="0" /><path
         style="fill:#fdd44b"
         d="m 57.171,87.544 c -0.146,-0.19 -0.295,-0.377 -0.425,-0.58 0.13,0.204 0.279,0.39 0.425,0.58 z"
         id="path79"
         inkscape:connector-curvature="0" /><path
         style="fill:#fdd44b"
         d="m 55.741,84.64 c -0.047,-0.174 -0.112,-0.34 -0.147,-0.519 0.035,0.179 0.1,0.345 0.147,0.519 z"
         id="path81"
         inkscape:connector-curvature="0" /><path
         style="fill:#fdd44b"
         d="m 60.073,89.931 c 0.254,0.126 0.509,0.242 0.776,0.341 -0.267,-0.099 -0.523,-0.216 -0.776,-0.341 z"
         id="path83"
         inkscape:connector-curvature="0" /><path
         style="fill:#fdd44b"
         d="m 75.72,61.364 c 0.505,0.287 0.968,0.637 1.4,1.02 -0.433,-0.382 -0.895,-0.732 -1.4,-1.02 z"
         id="path85"
         inkscape:connector-curvature="0" /><path
         style="fill:#fdd44b"
         d="m 77.281,62.522 c 0.407,0.38 0.771,0.803 1.095,1.256 -0.326,-0.453 -0.688,-0.876 -1.095,-1.256 z"
         id="path87"
         inkscape:connector-curvature="0" /><path
         style="fill:#fdd44b"
         d="m 83.673,75.34 c -2.376,-1.373 -3.815,-3.934 -3.753,-6.678 0.002,-0.092 0.006,-0.183 0.01,-0.273 -0.022,-0.972 -0.227,-1.895 -0.557,-2.756 0.214,0.562 0.38,1.148 0.468,1.761 -0.39,-0.058 -0.785,-0.098 -1.19,-0.098 -4.521,0 -8.208,3.634 -8.295,8.134 0.005,0.083 0.008,0.165 0.01,0.249 0.063,2.744 -1.376,5.305 -3.753,6.678 -2.569,1.485 -4.164,4.236 -4.164,7.18 0,0.395 0.038,0.779 0.092,1.16 0.391,0.057 0.781,0.12 1.187,0.12 1.462,0 2.855,-0.377 4.14,-1.121 1.165,-0.674 2.466,-1.012 3.766,-1.012 1.3,0 2.602,0.338 3.766,1.012 1.285,0.744 2.678,1.121 4.142,1.121 4.574,0 8.296,-3.721 8.296,-8.296 0,-2.944 -1.597,-5.696 -4.165,-7.181 z"
         id="path89"
         inkscape:connector-curvature="0" /><path
         style="fill:#fdd44b"
         d="m 57.672,88.152 c 0.175,0.188 0.362,0.36 0.553,0.531 -0.19,-0.171 -0.378,-0.344 -0.553,-0.531 z"
         id="path91"
         inkscape:connector-curvature="0" /><path
         style="fill:#fdd44b"
         d="m 78.512,63.973 c 0.315,0.469 0.587,0.97 0.802,1.5 -0.216,-0.53 -0.485,-1.03 -0.802,-1.5 z"
         id="path93"
         inkscape:connector-curvature="0" /><path
         style="fill:#fdd44b"
         d="M 62.353,90.678 C 62.062,90.629 61.78,90.554 61.5,90.475 c 0.281,0.079 0.561,0.154 0.853,0.203 z"
         id="path95"
         inkscape:connector-curvature="0" /><path
         style="fill:#fdd44b"
         d="m 58.79,89.149 c 0.217,0.162 0.441,0.311 0.673,0.451 -0.231,-0.14 -0.456,-0.29 -0.673,-0.451 z"
         id="path97"
         inkscape:connector-curvature="0" /></g><g
       id="g99"><path
         style="fill:#fdd44b"
         d="m 158.287,60.445 c 0.292,-0.059 0.6,-0.062 0.901,-0.09 -0.301,0.027 -0.609,0.031 -0.901,0.09 z"
         id="path101"
         inkscape:connector-curvature="0" /><path
         style="fill:#fdd44b"
         d="m 156.749,60.917 c 0.047,-0.019 0.099,-0.026 0.147,-0.045 -0.048,0.019 -0.101,0.026 -0.147,0.045 z"
         id="path103"
         inkscape:connector-curvature="0" /><path
         style="fill:#fdd44b"
         d="m 155.351,61.665 c 0.08,-0.053 0.173,-0.086 0.255,-0.136 -0.082,0.05 -0.175,0.083 -0.255,0.136 z"
         id="path105"
         inkscape:connector-curvature="0" /><path
         style="fill:#fdd44b"
         d="m 151.694,67.975 c -0.01,0.144 -0.048,0.28 -0.052,0.426 0,0.001 0,0.003 0,0.004 0.003,-0.148 0.041,-0.285 0.052,-0.43 z"
         id="path107"
         inkscape:connector-curvature="0" /><path
         style="fill:#fdd44b"
         d="m 154.48,62.372 c -0.113,0.099 -0.243,0.179 -0.35,0.285 0.107,-0.106 0.237,-0.186 0.35,-0.285 z"
         id="path109"
         inkscape:connector-curvature="0" /><path
         style="fill:#fdd44b"
         d="m 167.6,65.444 c -0.457,-1.113 -1.143,-2.102 -2.009,-2.912 0.864,0.809 1.552,1.8 2.009,2.912 z"
         id="path111"
         inkscape:connector-curvature="0" /><path
         style="fill:#fdd44b"
         d="m 152.341,65.239 c 0.079,-0.179 0.193,-0.335 0.283,-0.507 -0.09,0.172 -0.204,0.329 -0.283,0.507 z"
         id="path113"
         inkscape:connector-curvature="0" /><path
         style="fill:#fdd44b"
         d="m 167.728,65.832 c 0.153,0.431 0.275,0.876 0.355,1.336 -0.08,-0.461 -0.202,-0.903 -0.355,-1.336 z"
         id="path115"
         inkscape:connector-curvature="0" /><path
         style="fill:#fdd44b"
         d="m 161.672,60.471 c -0.56,-0.12 -1.139,-0.191 -1.734,-0.191 0,0 0,0 0,0 0.595,0 1.174,0.069 1.734,0.191 z"
         id="path117"
         inkscape:connector-curvature="0" /><path
         style="fill:#fdd44b"
         d="m 161.992,60.569 c 0.445,0.116 0.884,0.251 1.297,0.435 -0.415,-0.184 -0.851,-0.32 -1.297,-0.435 z"
         id="path119"
         inkscape:connector-curvature="0" /><path
         style="fill:#fdd44b"
         d="m 164.187,61.485 c 0.397,0.239 0.767,0.514 1.117,0.814 -0.351,-0.3 -0.719,-0.574 -1.117,-0.814 z"
         id="path121"
         inkscape:connector-curvature="0" /><path
         style="fill:#fdd44b"
         d="m 153.115,63.859 c 0.106,-0.153 0.243,-0.281 0.359,-0.426 -0.115,0.145 -0.252,0.272 -0.359,0.426 z"
         id="path123"
         inkscape:connector-curvature="0" /><path
         style="fill:#fdd44b"
         d="m 145.974,88.152 c 0.175,0.188 0.362,0.36 0.553,0.531 -0.191,-0.171 -0.378,-0.344 -0.553,-0.531 z"
         id="path125"
         inkscape:connector-curvature="0" /><path
         style="fill:#fdd44b"
         d="m 145.472,87.544 c -0.146,-0.19 -0.294,-0.377 -0.424,-0.58 0.13,0.204 0.278,0.39 0.424,0.58 z"
         id="path127"
         inkscape:connector-curvature="0" /><path
         style="fill:#fdd44b"
         d="m 151.84,66.765 c 0.038,-0.167 0.111,-0.32 0.159,-0.483 -0.048,0.163 -0.122,0.315 -0.159,0.483 z"
         id="path129"
         inkscape:connector-curvature="0" /><path
         style="fill:#fdd44b"
         d="m 175.681,79.874 c -0.352,-0.634 -0.675,-1.285 -0.967,-1.95 -0.699,-1.04 -1.619,-1.937 -2.739,-2.584 -2.376,-1.373 -3.815,-3.934 -3.754,-6.678 0.002,-0.088 0.005,-0.174 0.01,-0.262 -0.007,-0.346 -0.073,-0.675 -0.122,-1.01 -0.379,-0.055 -0.763,-0.095 -1.157,-0.095 -4.521,0 -8.208,3.634 -8.296,8.134 0.005,0.083 0.008,0.165 0.01,0.249 0.063,2.744 -1.376,5.305 -3.753,6.678 -2.569,1.485 -4.165,4.236 -4.165,7.18 0,0.395 0.039,0.779 0.093,1.16 0.391,0.057 0.781,0.12 1.187,0.12 1.462,0 2.855,-0.377 4.141,-1.121 1.165,-0.674 2.465,-1.012 3.766,-1.012 1.301,0 2.601,0.338 3.766,1.012 1.285,0.744 2.678,1.121 4.14,1.121 4.575,0 8.297,-3.721 8.297,-8.296 0.002,-0.913 -0.169,-1.801 -0.457,-2.646 z"
         id="path131"
         inkscape:connector-curvature="0" /><path
         style="fill:#fdd44b"
         d="m 150.654,90.678 c -0.29,-0.049 -0.571,-0.124 -0.85,-0.203 0.28,0.079 0.559,0.154 0.85,0.203 z"
         id="path133"
         inkscape:connector-curvature="0" /><path
         style="fill:#fdd44b"
         d="m 147.093,89.149 c 0.217,0.162 0.44,0.31 0.672,0.45 -0.232,-0.139 -0.456,-0.289 -0.672,-0.45 z"
         id="path135"
         inkscape:connector-curvature="0" /><path
         style="fill:#fdd44b"
         d="m 148.375,89.931 c 0.253,0.125 0.508,0.241 0.774,0.34 -0.265,-0.098 -0.521,-0.215 -0.774,-0.34 z"
         id="path137"
         inkscape:connector-curvature="0" /><path
         style="fill:#fdd44b"
         d="m 143.895,84.121 c 0.035,0.179 0.1,0.344 0.147,0.519 -0.046,-0.174 -0.111,-0.34 -0.147,-0.519 z"
         id="path139"
         inkscape:connector-curvature="0" /><polygon
         style="fill:#fdd44b"
         points="144.351,79.413 144.353,79.408 144.352,79.409 "
         id="polygon141" /><path
         style="fill:#fdd44b"
         d="m 143.877,81.082 c 0.019,-0.107 0.041,-0.212 0.065,-0.318 -0.023,0.106 -0.045,0.211 -0.065,0.318 z"
         id="path143"
         inkscape:connector-curvature="0" /><path
         style="fill:#fdd44b"
         d="m 144.345,85.613 c 0.082,0.204 0.19,0.392 0.288,0.588 -0.098,-0.196 -0.206,-0.385 -0.288,-0.588 z"
         id="path145"
         inkscape:connector-curvature="0" /></g><g
       id="g147"><path
         style="fill:#fdd44b"
         d="m 246.091,60.568 c 0.109,-0.028 0.21,-0.075 0.321,-0.099 -0.11,0.024 -0.211,0.07 -0.321,0.099 z"
         id="path149"
         inkscape:connector-curvature="0" /><path
         style="fill:#fdd44b"
         d="m 244.803,60.997 c -0.02,0.009 -0.044,0.012 -0.064,0.021 -0.229,0.115 -0.452,0.241 -0.685,0.348 -0.094,0.054 -0.18,0.121 -0.272,0.179 0.327,-0.204 0.665,-0.39 1.021,-0.548 z"
         id="path151"
         inkscape:connector-curvature="0" /><path
         style="fill:#fdd44b"
         d="m 241.464,63.688 c 0.224,-0.305 0.468,-0.596 0.731,-0.868 -0.263,0.273 -0.506,0.563 -0.731,0.868 z"
         id="path153"
         inkscape:connector-curvature="0" /><path
         style="fill:#fdd44b"
         d="m 242.407,62.599 c 0.301,-0.288 0.629,-0.547 0.97,-0.788 -0.342,0.24 -0.669,0.499 -0.97,0.788 z"
         id="path155"
         inkscape:connector-curvature="0" /><path
         style="fill:#fdd44b"
         d="m 240.022,66.949 c -0.095,0.472 -0.165,0.954 -0.175,1.451 0,0.003 0,0.006 0,0.009 0.01,-0.499 0.079,-0.984 0.175,-1.46 z"
         id="path157"
         inkscape:connector-curvature="0" /><path
         style="fill:#fdd44b"
         d="m 255.937,65.847 c 0.149,0.425 0.271,0.863 0.35,1.316 -0.079,-0.454 -0.2,-0.89 -0.35,-1.316 z"
         id="path159"
         inkscape:connector-curvature="0" /><path
         style="fill:#fdd44b"
         d="m 248.15,60.281 c 0.592,10e-4 1.168,0.069 1.724,0.19 -0.557,-0.12 -1.132,-0.19 -1.724,-0.19 z"
         id="path161"
         inkscape:connector-curvature="0" /><path
         style="fill:#fdd44b"
         d="m 255.803,65.439 c -0.457,-1.11 -1.141,-2.096 -2.004,-2.905 0.862,0.808 1.548,1.796 2.004,2.905 z"
         id="path163"
         inkscape:connector-curvature="0" /><path
         style="fill:#fdd44b"
         d="m 250.217,60.575 c 0.436,0.115 0.867,0.247 1.272,0.427 -0.406,-0.18 -0.834,-0.313 -1.272,-0.427 z"
         id="path165"
         inkscape:connector-curvature="0" /><path
         style="fill:#fdd44b"
         d="m 252.396,61.488 c 0.391,0.236 0.756,0.508 1.102,0.803 -0.346,-0.296 -0.71,-0.567 -1.102,-0.803 z"
         id="path167"
         inkscape:connector-curvature="0" /><polygon
         style="fill:#fdd44b"
         points="248.133,60.281 248.142,60.28 248.141,60.28 "
         id="polygon169" /><path
         style="fill:#fdd44b"
         d="m 235.301,89.151 c 0.215,0.161 0.437,0.307 0.667,0.447 -0.23,-0.139 -0.452,-0.287 -0.667,-0.447 z"
         id="path171"
         inkscape:connector-curvature="0" /><path
         style="fill:#fdd44b"
         d="m 240.554,65.226 c 0.185,-0.418 0.416,-0.81 0.665,-1.188 -0.249,0.379 -0.479,0.77 -0.665,1.188 z"
         id="path173"
         inkscape:connector-curvature="0" /><path
         style="fill:#fdd44b"
         d="m 233.676,87.541 c -0.145,-0.188 -0.292,-0.374 -0.42,-0.574 0.128,0.201 0.275,0.385 0.42,0.574 z"
         id="path175"
         inkscape:connector-curvature="0" /><path
         style="fill:#fdd44b"
         d="m 260.181,75.34 c -2.377,-1.373 -3.815,-3.934 -3.754,-6.678 0.002,-0.088 0.004,-0.174 0.009,-0.262 -0.007,-0.346 -0.073,-0.676 -0.122,-1.01 -0.378,-0.055 -0.762,-0.095 -1.156,-0.095 -4.521,0 -8.208,3.634 -8.296,8.134 0.005,0.083 0.008,0.165 0.01,0.249 0.062,2.744 -1.376,5.305 -3.752,6.678 -2.57,1.485 -4.165,4.236 -4.165,7.18 0,0.395 0.039,0.78 0.093,1.16 0.391,0.057 0.781,0.12 1.187,0.12 1.462,0 2.855,-0.377 4.139,-1.121 1.166,-0.674 2.466,-1.012 3.767,-1.012 1.301,0 2.602,0.338 3.767,1.012 1.284,0.744 2.677,1.121 4.139,1.121 4.574,0 8.296,-3.721 8.296,-8.296 0.002,-2.943 -1.594,-5.695 -4.162,-7.18 z"
         id="path177"
         inkscape:connector-curvature="0" /><path
         style="fill:#fdd44b"
         d="m 238.86,90.678 c -0.29,-0.049 -0.57,-0.124 -0.849,-0.202 0.28,0.078 0.558,0.153 0.849,0.202 z"
         id="path179"
         inkscape:connector-curvature="0" /><path
         style="fill:#fdd44b"
         d="m 234.182,88.154 c 0.174,0.186 0.358,0.356 0.548,0.526 -0.189,-0.169 -0.375,-0.341 -0.548,-0.526 z"
         id="path181"
         inkscape:connector-curvature="0" /><path
         style="fill:#fdd44b"
         d="m 236.584,89.932 c 0.252,0.125 0.506,0.24 0.771,0.339 -0.265,-0.098 -0.52,-0.215 -0.771,-0.339 z"
         id="path183"
         inkscape:connector-curvature="0" /><path
         style="fill:#fdd44b"
         d="m 240.103,66.589 c 0.107,-0.433 0.241,-0.856 0.413,-1.26 -0.172,0.403 -0.305,0.826 -0.413,1.26 z"
         id="path185"
         inkscape:connector-curvature="0" /><path
         style="fill:#fdd44b"
         d="m 232.837,86.196 c -0.097,-0.193 -0.204,-0.381 -0.286,-0.583 0.081,0.203 0.189,0.389 0.286,0.583 z"
         id="path187"
         inkscape:connector-curvature="0" /><path
         style="fill:#fdd44b"
         d="m 232.247,84.639 c -0.046,-0.174 -0.111,-0.339 -0.146,-0.517 0.035,0.178 0.1,0.342 0.146,0.517 z"
         id="path189"
         inkscape:connector-curvature="0" /></g><g
       id="g191"><path
         style="fill:#fdd44b"
         d="m 138.226,15.325 c 0.444,0.116 0.881,0.25 1.293,0.434 -0.413,-0.184 -0.848,-0.32 -1.293,-0.434 z"
         id="path193"
         inkscape:connector-curvature="0" /><path
         style="fill:#fdd44b"
         d="m 132.868,15.731 c -2.4,1.046 -4.218,3.186 -4.799,5.794 0.582,-2.608 2.4,-4.747 4.799,-5.794 z"
         id="path195"
         inkscape:connector-curvature="0" /><path
         style="fill:#fdd44b"
         d="m 136.168,15.035 c -0.565,0 -1.117,0.057 -1.65,0.165 0.533,-0.109 1.086,-0.165 1.65,-0.165 z"
         id="path197"
         inkscape:connector-curvature="0" /><path
         style="fill:#fdd44b"
         d="m 132.978,15.672 c 0.383,-0.16 0.792,-0.267 1.201,-0.369 -0.41,0.102 -0.818,0.209 -1.201,0.369 z"
         id="path199"
         inkscape:connector-curvature="0" /><path
         style="fill:#fdd44b"
         d="m 140.421,16.241 c 0.394,0.237 0.762,0.511 1.11,0.809 -0.349,-0.299 -0.715,-0.571 -1.11,-0.809 z"
         id="path201"
         inkscape:connector-curvature="0" /><path
         style="fill:#fdd44b"
         d="m 143.963,20.599 c 0.15,0.426 0.271,0.865 0.35,1.319 -0.079,-0.455 -0.199,-0.892 -0.35,-1.319 z"
         id="path203"
         inkscape:connector-curvature="0" /><path
         style="fill:#fdd44b"
         d="m 143.83,20.195 c -0.457,-1.111 -1.142,-2.098 -2.006,-2.907 0.864,0.808 1.55,1.797 2.006,2.907 z"
         id="path205"
         inkscape:connector-curvature="0" /><path
         style="fill:#fdd44b"
         d="m 136.168,15.035 c 0.596,0 1.175,0.069 1.735,0.191 -0.561,-0.121 -1.139,-0.191 -1.735,-0.191 z"
         id="path207"
         inkscape:connector-curvature="0" /><path
         style="fill:#fdd44b"
         d="m 128.035,21.814 c -0.082,0.439 -0.152,0.881 -0.161,1.341 0,0.003 0,0.007 0,0.01 0.009,-0.463 0.078,-0.91 0.161,-1.351 z"
         id="path209"
         inkscape:connector-curvature="0" /><path
         style="fill:#fdd44b"
         d="m 126.888,45.432 c -0.291,-0.049 -0.572,-0.124 -0.852,-0.203 0.281,0.079 0.56,0.155 0.852,0.203 z"
         id="path211"
         inkscape:connector-curvature="0" /><path
         style="fill:#fdd44b"
         d="m 123.328,43.906 c 0.215,0.16 0.435,0.306 0.665,0.446 -0.229,-0.139 -0.451,-0.287 -0.665,-0.446 z"
         id="path213"
         inkscape:connector-curvature="0" /><path
         style="fill:#fdd44b"
         d="m 122.21,42.91 c 0.172,0.185 0.356,0.354 0.544,0.522 -0.188,-0.168 -0.372,-0.338 -0.544,-0.522 z"
         id="path215"
         inkscape:connector-curvature="0" /><path
         style="fill:#fdd44b"
         d="m 121.698,42.29 c -0.143,-0.186 -0.289,-0.37 -0.416,-0.568 0.128,0.199 0.273,0.381 0.416,0.568 z"
         id="path217"
         inkscape:connector-curvature="0" /><path
         style="fill:#fdd44b"
         d="m 148.207,30.096 c -2.402,-1.389 -3.845,-3.989 -3.751,-6.762 0.002,-0.06 0.004,-0.118 0.007,-0.176 -0.007,-0.347 -0.073,-0.677 -0.122,-1.013 -0.379,-0.055 -0.762,-0.095 -1.156,-0.095 -4.521,0 -8.208,3.635 -8.295,8.134 0.004,0.083 0.008,0.165 0.01,0.249 0.063,2.744 -1.376,5.305 -3.752,6.678 -2.569,1.485 -4.165,4.236 -4.165,7.18 0,0.395 0.039,0.779 0.092,1.16 0.391,0.057 0.781,0.12 1.188,0.12 1.462,0 2.855,-0.377 4.139,-1.121 1.165,-0.675 2.466,-1.013 3.767,-1.013 1.301,0 2.601,0.337 3.765,1.011 1.286,0.744 2.68,1.122 4.141,1.122 4.574,0 8.297,-3.723 8.297,-8.298 -0.001,-2.942 -1.596,-5.692 -4.165,-7.176 z"
         id="path219"
         inkscape:connector-curvature="0" /><path
         style="fill:#fdd44b"
         d="m 120.272,39.386 c -0.046,-0.171 -0.11,-0.335 -0.144,-0.51 0.034,0.176 0.098,0.339 0.144,0.51 z"
         id="path221"
         inkscape:connector-curvature="0" /><path
         style="fill:#fdd44b"
         d="m 122.396,31.429 c -1.533,1.538 -2.43,3.638 -2.43,5.845 0,0 0,0 0,10e-4 0,-2.208 0.897,-4.308 2.43,-5.846 z"
         id="path223"
         inkscape:connector-curvature="0" /><path
         style="fill:#fdd44b"
         d="m 124.611,44.687 c 0.252,0.124 0.505,0.239 0.77,0.338 -0.264,-0.098 -0.519,-0.214 -0.77,-0.338 z"
         id="path225"
         inkscape:connector-curvature="0" /><path
         style="fill:#fdd44b"
         d="m 120.861,40.946 c -0.096,-0.192 -0.202,-0.377 -0.283,-0.578 0.081,0.201 0.187,0.385 0.283,0.578 z"
         id="path227"
         inkscape:connector-curvature="0" /></g><g
       id="g229"><path
         style="fill:#fdd44b"
         d="m 185.669,15.325 c 0.443,0.116 0.878,0.25 1.289,0.433 -0.411,-0.183 -0.845,-0.318 -1.289,-0.433 z"
         id="path231"
         inkscape:connector-curvature="0" /><path
         style="fill:#fdd44b"
         d="m 178.985,16.45 c -0.424,0.286 -0.823,0.606 -1.186,0.963 0.363,-0.357 0.762,-0.677 1.186,-0.963 z"
         id="path233"
         inkscape:connector-curvature="0" /><path
         style="fill:#fdd44b"
         d="m 180.418,15.672 c 0.403,-0.168 0.831,-0.284 1.264,-0.388 -0.432,0.104 -0.86,0.22 -1.264,0.388 z"
         id="path235"
         inkscape:connector-curvature="0" /><path
         style="fill:#fdd44b"
         d="m 175.451,22.01 c -0.061,0.377 -0.13,0.753 -0.138,1.145 0,0.003 0,0.007 0,0.01 0.008,-0.396 0.077,-0.775 0.138,-1.155 z"
         id="path237"
         inkscape:connector-curvature="0" /><path
         style="fill:#fdd44b"
         d="m 176.784,18.617 c 0.274,-0.395 0.589,-0.757 0.925,-1.098 -0.336,0.342 -0.651,0.703 -0.925,1.098 z"
         id="path239"
         inkscape:connector-curvature="0" /><path
         style="fill:#fdd44b"
         d="m 179.02,16.422 c 0.338,-0.225 0.708,-0.404 1.078,-0.578 -0.37,0.174 -0.739,0.352 -1.078,0.578 z"
         id="path241"
         inkscape:connector-curvature="0" /><path
         style="fill:#fdd44b"
         d="m 191.27,20.194 c -0.457,-1.111 -1.141,-2.097 -2.005,-2.906 0.862,0.808 1.548,1.797 2.005,2.906 z"
         id="path243"
         inkscape:connector-curvature="0" /><path
         style="fill:#fdd44b"
         d="m 183.608,15.035 c -0.565,0 -1.117,0.057 -1.65,0.165 0.533,-0.109 1.086,-0.165 1.65,-0.165 z"
         id="path245"
         inkscape:connector-curvature="0" /><path
         style="fill:#fdd44b"
         d="m 191.403,20.6 c 0.15,0.426 0.271,0.864 0.35,1.318 -0.079,-0.456 -0.2,-0.892 -0.35,-1.318 z"
         id="path247"
         inkscape:connector-curvature="0" /><path
         style="fill:#fdd44b"
         d="m 183.608,15.035 c 0.596,0 1.175,0.069 1.734,0.191 -0.56,-0.121 -1.138,-0.191 -1.734,-0.191 z"
         id="path249"
         inkscape:connector-curvature="0" /><path
         style="fill:#fdd44b"
         d="m 187.861,16.241 c 0.393,0.237 0.76,0.51 1.107,0.807 -0.348,-0.297 -0.713,-0.569 -1.107,-0.807 z"
         id="path251"
         inkscape:connector-curvature="0" /><path
         style="fill:#fdd44b"
         d="m 176.011,19.998 c 0.212,-0.481 0.469,-0.937 0.765,-1.366 -0.296,0.429 -0.553,0.885 -0.765,1.366 z"
         id="path253"
         inkscape:connector-curvature="0" /><path
         style="fill:#fdd44b"
         d="m 169.648,42.908 c 0.174,0.187 0.36,0.357 0.55,0.527 -0.19,-0.169 -0.377,-0.341 -0.55,-0.527 z"
         id="path255"
         inkscape:connector-curvature="0" /><path
         style="fill:#fdd44b"
         d="m 169.141,42.294 c -0.144,-0.188 -0.292,-0.374 -0.42,-0.574 0.129,0.202 0.276,0.386 0.42,0.574 z"
         id="path257"
         inkscape:connector-curvature="0" /><path
         style="fill:#fdd44b"
         d="m 170.765,43.904 c 0.217,0.161 0.439,0.31 0.672,0.45 -0.232,-0.14 -0.456,-0.289 -0.672,-0.45 z"
         id="path259"
         inkscape:connector-curvature="0" /><path
         style="fill:#fdd44b"
         d="m 195.647,30.095 c -2.376,-1.373 -3.815,-3.934 -3.754,-6.678 0.002,-0.088 0.005,-0.175 0.01,-0.262 -0.007,-0.346 -0.073,-0.675 -0.122,-1.01 -0.379,-0.055 -0.762,-0.095 -1.156,-0.095 -4.521,0 -8.209,3.635 -8.295,8.134 0.005,0.083 0.008,0.165 0.01,0.249 0.063,2.744 -1.376,5.305 -3.753,6.678 -2.57,1.485 -4.165,4.236 -4.165,7.18 0,0.395 0.039,0.779 0.092,1.16 0.391,0.057 0.78,0.12 1.187,0.12 1.462,0 2.855,-0.377 4.14,-1.121 1.165,-0.675 2.465,-1.013 3.767,-1.013 1.301,0 2.601,0.338 3.766,1.013 1.285,0.744 2.678,1.121 4.141,1.121 4.574,0 8.296,-3.723 8.296,-8.298 0,-2.942 -1.596,-5.693 -4.164,-7.178 z"
         id="path261"
         inkscape:connector-curvature="0" /><path
         style="fill:#fdd44b"
         d="m 174.329,45.433 c -0.293,-0.049 -0.575,-0.125 -0.856,-0.204 0.282,0.079 0.562,0.155 0.856,0.204 z"
         id="path263"
         inkscape:connector-curvature="0" /><path
         style="fill:#fdd44b"
         d="m 175.322,23.384 c 0,0.011 0.001,0.022 0.001,0.033 0,0 0,-0.001 0,-0.001 0,-0.01 -0.001,-0.021 -0.001,-0.032 z"
         id="path265"
         inkscape:connector-curvature="0" /><path
         style="fill:#fdd44b"
         d="m 175.51,21.523 c 0.099,-0.443 0.252,-0.864 0.419,-1.278 -0.167,0.414 -0.32,0.835 -0.419,1.278 z"
         id="path267"
         inkscape:connector-curvature="0" /><path
         style="fill:#fdd44b"
         d="m 171.57,30.095 c 2.226,-1.286 3.578,-3.624 3.695,-6.169 -0.118,2.545 -1.471,4.883 -3.697,6.17 -2.567,1.484 -4.163,4.234 -4.163,7.178 0,0 0,0 0,10e-4 0.001,-2.944 1.596,-5.696 4.165,-7.18 z"
         id="path269"
         inkscape:connector-curvature="0" /><path
         style="fill:#fdd44b"
         d="m 172.047,44.686 c 0.253,0.125 0.508,0.241 0.776,0.341 -0.267,-0.1 -0.523,-0.216 -0.776,-0.341 z"
         id="path271"
         inkscape:connector-curvature="0" /><path
         style="fill:#fdd44b"
         d="m 168.302,40.95 c -0.097,-0.194 -0.204,-0.381 -0.285,-0.583 0.082,0.203 0.189,0.388 0.285,0.583 z"
         id="path273"
         inkscape:connector-curvature="0" /><path
         style="fill:#fdd44b"
         d="m 167.713,39.388 c -0.046,-0.172 -0.11,-0.336 -0.145,-0.512 0.034,0.176 0.099,0.339 0.145,0.512 z"
         id="path275"
         inkscape:connector-curvature="0" /></g><g
       id="g277"><path
         style="fill:#fdd44b"
         d="m 207.737,61.401 c 1.286,-0.744 2.68,-1.122 4.141,-1.122 0,0 0,0 0,0 -1.462,10e-4 -2.855,0.377 -4.141,1.122 -0.47,0.272 -0.974,0.45 -1.48,0.613 0.506,-0.162 1.01,-0.34 1.48,-0.613 z"
         id="path279"
         inkscape:connector-curvature="0" /><path
         style="fill:#fdd44b"
         d="m 214.97,60.891 c 0.203,0.082 0.391,0.19 0.585,0.287 -0.195,-0.097 -0.382,-0.205 -0.585,-0.287 z"
         id="path281"
         inkscape:connector-curvature="0" /><path
         style="fill:#fdd44b"
         d="m 213.479,60.442 c 0.177,0.035 0.342,0.1 0.515,0.146 -0.173,-0.046 -0.337,-0.111 -0.515,-0.146 z"
         id="path283"
         inkscape:connector-curvature="0" /><path
         style="fill:#fdd44b"
         d="m 205.792,62.175 c 0.038,-0.009 0.076,-0.005 0.114,-0.015 -0.038,0.01 -0.076,0.005 -0.114,0.015 z"
         id="path285"
         inkscape:connector-curvature="0" /><path
         style="fill:#fdd44b"
         d="m 196.065,60.565 c -0.001,0 -0.001,0 -0.001,0 -3.43,0 -6.381,2.094 -7.642,5.071 1.26,-2.977 4.212,-5.071 7.643,-5.071 z"
         id="path287"
         inkscape:connector-curvature="0" /><path
         style="fill:#fdd44b"
         d="m 216.323,61.596 c 0.201,0.129 0.388,0.277 0.577,0.422 -0.19,-0.146 -0.375,-0.293 -0.577,-0.422 z"
         id="path289"
         inkscape:connector-curvature="0" /><path
         style="fill:#fdd44b"
         d="m 218.041,63.076 c -0.172,-0.192 -0.344,-0.38 -0.533,-0.556 0.188,0.175 0.362,0.364 0.533,0.556 z"
         id="path291"
         inkscape:connector-curvature="0" /><path
         style="fill:#fdd44b"
         d="m 219.829,66.339 c 0.08,0.285 0.157,0.572 0.207,0.869 -0.05,-0.298 -0.127,-0.583 -0.207,-0.869 z"
         id="path293"
         inkscape:connector-curvature="0" /><path
         style="fill:#fdd44b"
         d="m 218.504,63.637 c 0.162,0.218 0.313,0.444 0.453,0.677 -0.141,-0.234 -0.29,-0.458 -0.453,-0.677 z"
         id="path295"
         inkscape:connector-curvature="0" /><path
         style="fill:#fdd44b"
         d="m 187.886,69.884 c 0.007,0.042 0.017,0.083 0.025,0.124 -0.008,-0.042 -0.019,-0.082 -0.025,-0.124 z"
         id="path297"
         inkscape:connector-curvature="0" /><path
         style="fill:#fdd44b"
         d="m 219.286,64.917 c 0.127,0.256 0.245,0.516 0.345,0.785 -0.101,-0.27 -0.218,-0.528 -0.345,-0.785 z"
         id="path299"
         inkscape:connector-curvature="0" /><path
         style="fill:#fdd44b"
         d="m 201.128,90.286 c -0.271,-0.099 -0.532,-0.217 -0.789,-0.343 0.257,0.126 0.517,0.243 0.789,0.343 z"
         id="path301"
         inkscape:connector-curvature="0" /><polygon
         style="fill:#fdd44b"
         points="189.195,73.173 189.194,73.171 189.194,73.172 "
         id="polygon303" /><path
         style="fill:#fdd44b"
         d="m 197.486,87.639 c -0.155,-0.196 -0.312,-0.389 -0.448,-0.599 0.137,0.21 0.293,0.403 0.448,0.599 z"
         id="path305"
         inkscape:connector-curvature="0" /><path
         style="fill:#fdd44b"
         d="m 199.76,89.633 c -0.239,-0.142 -0.469,-0.294 -0.691,-0.458 0.223,0.165 0.452,0.316 0.691,0.458 z"
         id="path307"
         inkscape:connector-curvature="0" /><path
         style="fill:#fdd44b"
         d="m 220.054,67.389 c -0.38,-0.055 -0.765,-0.093 -1.159,-0.093 -1.461,0 -2.855,0.378 -4.141,1.121 -2.33,1.349 -5.203,1.348 -7.533,-0.001 -1.284,-0.744 -2.677,-1.12 -4.139,-1.12 -4.574,0 -8.297,3.722 -8.297,8.297 0,2.943 1.595,5.695 4.166,7.18 2.376,1.373 3.815,3.934 3.752,6.678 -0.002,0.088 -0.006,0.175 -0.009,0.262 0.006,0.335 0.041,0.662 0.087,0.986 0.392,0.057 0.783,0.119 1.19,0.119 4.521,0 8.209,-3.634 8.296,-8.134 -0.005,-0.083 -0.008,-0.165 -0.01,-0.249 -0.063,-2.745 1.376,-5.305 3.752,-6.678 2.569,-1.485 4.165,-4.236 4.165,-7.18 0,-0.407 -0.063,-0.797 -0.12,-1.188 z"
         id="path309"
         inkscape:connector-curvature="0" /><path
         style="fill:#fdd44b"
         d="m 202.611,90.681 c -0.295,-0.049 -0.58,-0.126 -0.863,-0.205 0.284,0.08 0.567,0.156 0.863,0.205 z"
         id="path311"
         inkscape:connector-curvature="0" /><path
         style="fill:#fdd44b"
         d="m 197.96,88.2 c 0.182,0.193 0.377,0.369 0.577,0.544 -0.2,-0.174 -0.395,-0.352 -0.577,-0.544 z"
         id="path313"
         inkscape:connector-curvature="0" /><path
         style="fill:#fdd44b"
         d="m 196.641,86.333 c -0.106,-0.204 -0.222,-0.402 -0.312,-0.615 0.09,0.214 0.205,0.411 0.312,0.615 z"
         id="path315"
         inkscape:connector-curvature="0" /><path
         style="fill:#fdd44b"
         d="m 195.692,82.832 c -0.002,-0.046 -0.014,-0.089 -0.015,-0.136 0.004,-0.086 0.008,-0.174 0.009,-0.262 0.063,-2.745 -1.376,-5.305 -3.752,-6.678 -0.005,-0.003 -0.01,-0.007 -0.015,-0.009 0.004,0.003 0.008,0.006 0.011,0.009 2.376,1.373 3.816,3.934 3.755,6.677 -0.002,0.089 -0.006,0.177 -0.01,0.265 0.002,0.045 0.015,0.088 0.017,0.134 z"
         id="path317"
         inkscape:connector-curvature="0" /><path
         style="fill:#fdd44b"
         d="m 190.378,74.579 c 0.029,0.028 0.061,0.052 0.09,0.079 -0.03,-0.026 -0.062,-0.051 -0.09,-0.079 z"
         id="path319"
         inkscape:connector-curvature="0" /><path
         style="fill:#fdd44b"
         d="m 196.035,84.826 c -0.056,-0.19 -0.129,-0.372 -0.171,-0.568 0.042,0.196 0.116,0.378 0.171,0.568 z"
         id="path321"
         inkscape:connector-curvature="0" /></g><path
       style="fill:#3f2d20"
       d="m 279.519,93.579 c -0.587,-0.717 -1.296,-1.303 -2.081,-1.755 1.245,-2.852 1.941,-5.997 1.941,-9.303 0,-6.871 -3.07,-13.361 -8.217,-17.752 -1.348,-8.173 -6.963,-14.917 -14.468,-17.886 0.2,-0.663 0.372,-1.339 0.514,-2.027 0.543,-2.644 0.618,-5.362 0.23,-8.025 1.406,-2.295 2.409,-4.821 2.952,-7.464 1.255,-6.105 0.056,-12.332 -3.374,-17.535 -3.431,-5.203 -8.681,-8.759 -14.783,-10.013 -1.55,-0.318 -3.132,-0.48 -4.704,-0.48 -5.225,0 -10.272,1.771 -14.346,4.957 -0.304,-0.013 -0.61,-0.019 -0.914,-0.019 -6.757,0 -12.974,2.959 -17.288,7.733 C 201.374,5.775 193.159,0 183.608,0 172.04,0 162.411,8.463 160.587,19.523 c -0.24,0.204 -0.469,0.417 -0.7,0.63 -0.229,-0.213 -0.46,-0.427 -0.699,-0.63 C 157.365,8.463 147.737,0 136.168,0 126.618,0 118.402,5.774 114.796,14.008 110.48,9.235 104.263,6.276 97.508,6.276 c -0.304,0 -0.61,0.006 -0.915,0.019 -4.075,-3.185 -9.12,-4.957 -14.345,-4.957 -1.572,0 -3.154,0.162 -4.702,0.48 -6.104,1.254 -11.355,4.81 -14.786,10.013 -3.43,5.202 -4.628,11.43 -3.374,17.535 0.543,2.643 1.547,5.17 2.953,7.465 -0.388,2.663 -0.313,5.381 0.23,8.024 0.142,0.688 0.314,1.364 0.514,2.027 -7.505,2.97 -13.12,9.712 -14.468,17.885 -5.147,4.392 -8.217,10.881 -8.217,17.753 0,3.306 0.696,6.451 1.941,9.304 -0.785,0.451 -1.494,1.037 -2.081,1.754 -1.427,1.749 -1.994,4.046 -1.543,6.257 l 43.641,213.926 c 0.714,3.5 3.793,6.015 7.365,6.015 l 140.335,0 c 3.573,0 6.651,-2.515 7.366,-6.015 l 43.64,-213.926 c 0.451,-2.21 -0.116,-4.507 -1.543,-6.256 z m -62.76,211.164 10.015,-84.495 c 3.216,-6.106 4.917,-12.683 4.917,-19.495 0,-3.562 -0.469,-7.059 -1.366,-10.46 l 10.007,-84.441 24.158,0 -40.573,198.891 -7.158,0 z m -46.32,0 -21.101,0 -2.181,-51.703 c 4.164,0.544 8.418,0.835 12.731,0.835 4.313,0 8.567,-0.291 12.731,-0.835 l -2.18,51.703 z M 63.339,68.414 c 0.087,-4.5 3.774,-8.134 8.295,-8.134 1.22,0 2.376,0.272 3.419,0.747 0.223,0.11 0.439,0.234 0.666,0.338 2.461,1.4 4.144,4.014 4.211,7.025 -0.005,0.09 -0.009,0.181 -0.011,0.273 -0.062,2.744 1.377,5.305 3.754,6.678 2.568,1.485 4.165,4.236 4.165,7.18 0,4.575 -3.722,8.296 -8.296,8.296 -1.463,0 -2.856,-0.377 -4.141,-1.121 -1.165,-0.674 -2.466,-1.012 -3.766,-1.012 -1.3,0 -2.602,0.338 -3.766,1.012 -1.285,0.744 -2.678,1.121 -4.14,1.121 -4.574,0 -8.295,-3.721 -8.295,-8.296 0,-2.944 1.595,-5.695 4.165,-7.18 2.377,-1.373 3.816,-3.934 3.753,-6.678 -0.005,-0.084 -0.008,-0.166 -0.013,-0.249 z M 95.743,21.511 c 0.081,-0.018 0.161,-0.038 0.243,-0.06 0.505,-0.093 1.016,-0.141 1.522,-0.141 3.909,0 7.32,2.788 8.109,6.63 0.908,4.421 -1.901,8.758 -6.292,9.76 -0.061,0.01 -0.123,0.02 -0.185,0.03 -2.73,0.471 -4.98,2.405 -5.855,5.033 -0.937,2.815 -3.311,4.932 -6.194,5.524 -0.559,0.115 -1.124,0.174 -1.684,0.174 -1.122,-10e-4 -2.199,-0.236 -3.189,-0.654 -0.297,-0.152 -0.596,-0.3 -0.901,-0.44 C 79.3,46.212 77.788,44.226 77.295,41.83 77,40.396 77.089,38.955 77.559,37.547 c 0.853,-2.554 0.273,-5.368 -1.516,-7.378 -0.987,-1.109 -1.637,-2.397 -1.931,-3.829 -0.445,-2.171 -0.02,-4.385 1.2,-6.235 1.22,-1.851 3.086,-3.115 5.259,-3.561 0.555,-0.114 1.119,-0.172 1.676,-0.172 2.351,0 4.608,1.023 6.194,2.807 1.826,2.053 4.624,2.946 7.302,2.332 z m 32.14,1.906 c -0.002,-0.087 -0.006,-0.174 -0.01,-0.261 0.092,-4.494 3.778,-8.121 8.295,-8.121 4.517,0 8.203,3.628 8.294,8.124 -0.003,0.058 -0.005,0.116 -0.007,0.176 -0.094,2.773 1.349,5.373 3.751,6.761 2.569,1.484 4.165,4.234 4.165,7.178 0,4.575 -3.722,8.297 -8.296,8.297 -1.461,0 -2.855,-0.378 -4.141,-1.122 -1.165,-0.674 -2.465,-1.011 -3.765,-1.011 -1.301,0 -2.603,0.338 -3.767,1.012 -1.284,0.744 -2.677,1.121 -4.139,1.121 -4.574,0 -8.296,-3.722 -8.296,-8.297 0,-2.943 1.595,-5.694 4.164,-7.179 2.376,-1.374 3.815,-3.934 3.752,-6.678 z m 43.685,6.679 c 2.376,-1.373 3.816,-3.934 3.755,-6.677 -0.002,-0.088 -0.006,-0.175 -0.01,-0.263 0.093,-4.494 3.778,-8.121 8.295,-8.121 4.516,0 8.201,3.627 8.294,8.121 -0.005,0.086 -0.008,0.173 -0.01,0.261 -0.061,2.744 1.377,5.305 3.754,6.678 2.568,1.485 4.165,4.236 4.165,7.179 0,4.575 -3.722,8.297 -8.296,8.297 -1.463,0 -2.856,-0.377 -4.141,-1.121 -1.165,-0.675 -2.466,-1.012 -3.766,-1.012 -1.301,0 -2.602,0.338 -3.767,1.012 -1.285,0.744 -2.678,1.121 -4.14,1.121 -4.574,0 -8.295,-3.722 -8.295,-8.297 0,-2.944 1.595,-5.694 4.162,-7.178 z m 50.701,-8.786 c 0.507,0 1.019,0.048 1.518,0.14 0.075,0.019 0.151,0.038 0.227,0.057 2.682,0.621 5.491,-0.27 7.32,-2.328 1.961,-2.208 4.967,-3.236 7.872,-2.635 2.17,0.446 4.037,1.71 5.256,3.561 1.22,1.85 1.646,4.064 1.2,6.234 -0.294,1.433 -0.944,2.721 -1.931,3.83 -1.79,2.011 -2.369,4.826 -1.515,7.381 0.47,1.407 0.559,2.846 0.264,4.28 -0.492,2.395 -2.004,4.38 -4.018,5.535 -0.307,0.141 -0.611,0.29 -0.91,0.444 -0.988,0.416 -2.063,0.651 -3.183,0.651 -0.56,0 -1.127,-0.059 -1.684,-0.174 -2.885,-0.592 -5.258,-2.709 -6.195,-5.524 -0.873,-2.623 -3.117,-4.555 -5.842,-5.031 -0.066,-0.012 -0.135,-0.023 -0.204,-0.032 -4.383,-0.995 -7.194,-5.335 -6.286,-9.759 0.79,-3.841 4.201,-6.63 8.111,-6.63 z m 34.167,47.091 c -0.005,0.087 -0.008,0.173 -0.01,0.261 -0.062,2.744 1.377,5.305 3.754,6.678 2.568,1.485 4.165,4.236 4.165,7.18 0,4.575 -3.722,8.296 -8.296,8.296 -1.462,0 -2.855,-0.377 -4.139,-1.121 -1.166,-0.674 -2.467,-1.012 -3.768,-1.012 -1.301,0 -2.601,0.338 -3.767,1.012 -1.284,0.744 -2.677,1.121 -4.139,1.121 -4.574,0 -8.296,-3.721 -8.296,-8.296 0,-2.944 1.595,-5.695 4.165,-7.18 2.377,-1.373 3.815,-3.934 3.753,-6.678 -0.002,-0.087 -0.006,-0.173 -0.01,-0.261 0.063,-3.014 1.745,-5.633 4.207,-7.035 0.233,-0.107 0.456,-0.233 0.685,-0.347 1.04,-0.47 2.189,-0.739 3.402,-0.739 4.515,0 8.201,3.627 8.294,8.121 z m -122.146,236.342 -16.134,0 -7.75,-65.393 c 6.354,4.453 13.658,7.948 21.567,10.396 l 2.317,54.997 z m 8.486,-155.613 -1.825,-43.279 37.873,0 L 177,149.13 c -5.538,-0.988 -11.276,-1.498 -17.112,-1.498 -5.836,0 -11.574,0.51 -17.112,1.498 z m -40.695,19.98 -7.497,-63.258 31.32,0 1.994,47.284 c -6.477,2.369 -12.488,5.461 -17.815,9.24 -2.954,2.094 -5.615,4.352 -8.002,6.734 z m 115.615,0 c -2.387,-2.382 -5.048,-4.64 -8.002,-6.734 -5.326,-3.779 -11.338,-6.871 -17.815,-9.24 l 1.994,-47.284 31.321,0 -7.498,63.258 z m -98.916,5.527 c 10.882,-7.719 25.482,-11.971 41.108,-11.971 15.626,0 30.226,4.252 41.108,11.971 10.099,7.165 15.66,16.44 15.66,26.116 0,9.677 -5.561,18.952 -15.66,26.116 -10.882,7.72 -25.482,11.972 -41.108,11.972 -15.626,0 -30.226,-4.252 -41.108,-11.972 -10.099,-7.164 -15.661,-16.439 -15.661,-26.116 0.001,-9.676 5.562,-18.951 15.661,-26.116 z M 211.878,60.28 c 4.574,0 8.296,3.722 8.296,8.297 0,2.943 -1.596,5.695 -4.165,7.18 -2.377,1.373 -3.816,3.934 -3.753,6.678 0.002,0.083 0.005,0.165 0.01,0.248 -0.086,4.5 -3.774,8.134 -8.295,8.134 -4.517,0 -8.202,-3.626 -8.295,-8.12 0.004,-0.088 0.008,-0.175 0.01,-0.264 0.062,-2.743 -1.378,-5.304 -3.755,-6.677 -1.12,-0.647 -2.04,-1.544 -2.737,-2.583 -0.294,-0.666 -0.615,-1.316 -0.967,-1.95 -0.29,-0.844 -0.459,-1.733 -0.459,-2.646 0,-4.575 3.721,-8.297 8.295,-8.297 1.462,0 2.856,0.378 4.142,1.122 2.329,1.35 5.203,1.349 7.533,-10e-4 1.285,-0.744 2.678,-1.121 4.14,-1.121 z m -43.646,8.121 c -0.005,0.087 -0.008,0.173 -0.01,0.261 -0.062,2.744 1.377,5.305 3.754,6.678 1.12,0.647 2.04,1.545 2.739,2.584 0.292,0.665 0.614,1.316 0.967,1.95 0.288,0.845 0.458,1.733 0.458,2.647 0,4.575 -3.721,8.296 -8.296,8.296 -1.462,0 -2.855,-0.377 -4.14,-1.121 -1.165,-0.674 -2.466,-1.012 -3.766,-1.012 -1.301,0 -2.602,0.338 -3.767,1.012 -1.285,0.744 -2.678,1.121 -4.14,1.121 -4.575,0 -8.296,-3.721 -8.296,-8.296 0,-1.082 0.219,-2.136 0.619,-3.112 0.186,-0.353 0.364,-0.71 0.532,-1.073 0.718,-1.221 1.746,-2.263 3.014,-2.996 2.378,-1.373 3.816,-3.934 3.754,-6.678 -0.002,-0.087 -0.006,-0.173 -0.01,-0.261 0.093,-4.494 3.778,-8.121 8.295,-8.121 4.514,0 8.2,3.627 8.293,8.121 z m -48.661,-7 c 1.286,-0.744 2.68,-1.122 4.141,-1.122 4.574,0 8.295,3.722 8.295,8.297 0,1.082 -0.219,2.135 -0.619,3.112 -0.186,0.352 -0.364,0.711 -0.532,1.073 -0.718,1.22 -1.746,2.262 -3.013,2.994 -2.402,1.389 -3.845,3.989 -3.751,6.761 0.002,0.059 0.004,0.117 0.007,0.176 -0.091,4.496 -3.777,8.124 -8.294,8.124 -4.517,0 -8.202,-3.627 -8.295,-8.121 0.004,-0.086 0.008,-0.174 0.01,-0.261 0.063,-2.745 -1.376,-5.305 -3.753,-6.678 -2.57,-1.485 -4.166,-4.236 -4.166,-7.18 0,-4.575 3.722,-8.297 8.297,-8.297 1.462,0 2.855,0.377 4.139,1.12 2.332,1.35 5.205,1.351 7.534,0.002 z m -40.126,44.45 10.007,84.441 c -0.898,3.401 -1.366,6.898 -1.366,10.46 0,6.811 1.701,13.389 4.917,19.495 l 10.014,84.495 -7.158,0 -40.573,-198.891 24.159,0 z m 122.127,198.892 -16.085,0 2.319,-54.997 c 7.908,-2.448 15.211,-5.942 21.566,-10.396 l -7.688,64.869 -0.062,0.524 -0.05,0 z"
       id="path323"
       inkscape:connector-curvature="0" /></g><g
     id="g325" /><g
     id="g327" /><g
     id="g329" /><g
     id="g331" /><g
     id="g333" /><g
     id="g335" /><g
     id="g337" /><g
     id="g339" /><g
     id="g341" /><g
     id="g343" /><g
     id="g345" /><g
     id="g347" /><g
     id="g349" /><g
     id="g351" /><g
     id="g353" /></svg>