<?xml version="1.0" encoding="UTF-8" standalone="no"?>
<!-- Generator: Adobe Illustrator 18.0.0, SVG Export Plug-In . SVG Version: 6.00 Build 0)  -->

<svg
   xmlns:dc="http://purl.org/dc/elements/1.1/"
   xmlns:cc="http://creativecommons.org/ns#"
   xmlns:rdf="http://www.w3.org/1999/02/22-rdf-syntax-ns#"
   xmlns:svg="http://www.w3.org/2000/svg"
   xmlns="http://www.w3.org/2000/svg"
   xmlns:sodipodi="http://sodipodi.sourceforge.net/DTD/sodipodi-0.dtd"
   xmlns:inkscape="http://www.inkscape.org/namespaces/inkscape"
   version="1.1"
   id="Capa_1"
   x="0px"
   y="0px"
   viewBox="0 0 295.38 295.38"
   style="enable-background:new 0 0 295.38 295.38;"
   xml:space="preserve"
   inkscape:version="0.91 r13725"
   sodipodi:docname="t9.svg"><metadata
     id="metadata169"><rdf:RDF><cc:Work
         rdf:about=""><dc:format>image/svg+xml</dc:format><dc:type
           rdf:resource="http://purl.org/dc/dcmitype/StillImage" /></cc:Work></rdf:RDF></metadata><defs
     id="defs167" /><sodipodi:namedview
     pagecolor="#ffffff"
     bordercolor="#666666"
     borderopacity="1"
     objecttolerance="10"
     gridtolerance="10"
     guidetolerance="10"
     inkscape:pageopacity="0"
     inkscape:pageshadow="2"
     inkscape:window-width="737"
     inkscape:window-height="480"
     id="namedview165"
     showgrid="false"
     inkscape:zoom="0.7989708"
     inkscape:cx="147.69"
     inkscape:cy="147.69"
     inkscape:window-x="75"
     inkscape:window-y="34"
     inkscape:window-maximized="0"
     inkscape:current-layer="Capa_1" /><g
     id="g3"><path
       style="fill:#3f2d20"
       d="m 147.69,32.59 c -14.647,0 -26.12,9.322 -26.12,21.224 0,11.903 11.473,21.227 26.12,21.227 14.647,0 26.12,-9.324 26.12,-21.227 0,-11.902 -11.473,-21.224 -26.12,-21.224 z m 0,27.409 c -6.239,0 -11.079,-3.325 -11.079,-6.185 0,-2.859 4.84,-6.183 11.079,-6.183 6.239,0 11.079,3.323 11.079,6.183 0,2.861 -4.84,6.185 -11.079,6.185 z"
       id="path5"
       inkscape:connector-curvature="0" /><path
       style="fill:#3f2d20"
       d="m 205.754,78.099 c -6.997,0 -14.236,3.225 -19.86,8.849 -4.641,4.639 -7.687,10.438 -8.58,16.329 -1.006,6.639 0.859,12.89 5.119,17.151 3.475,3.473 8.312,5.387 13.617,5.387 6.998,0 14.237,-3.226 19.861,-8.849 4.64,-4.641 7.686,-10.439 8.578,-16.329 1.007,-6.64 -0.859,-12.891 -5.118,-17.149 -3.474,-3.475 -8.31,-5.389 -13.617,-5.389 z m 3.864,20.284 c -0.409,2.699 -1.992,5.596 -4.344,7.947 -2.74,2.741 -6.275,4.444 -9.224,4.444 -0.912,0 -2.17,-0.171 -2.982,-0.982 -1.198,-1.199 -1.016,-3.379 -0.882,-4.261 0.408,-2.699 1.992,-5.595 4.344,-7.946 2.741,-2.742 6.275,-4.444 9.224,-4.444 0.912,0 2.169,0.17 2.982,0.983 1.198,1.198 1.015,3.377 0.882,4.259 z"
       id="path7"
       inkscape:connector-curvature="0" /><path
       style="fill:#3f2d20"
       d="m 109.488,86.948 c -5.625,-5.624 -12.864,-8.849 -19.861,-8.849 -5.306,0 -10.143,1.914 -13.619,5.388 -4.258,4.259 -6.123,10.509 -5.118,17.15 0.893,5.89 3.94,11.689 8.579,16.329 5.624,5.623 12.862,8.848 19.86,8.849 l 0.001,0 c 5.306,0 10.142,-1.914 13.618,-5.388 4.259,-4.26 6.124,-10.511 5.118,-17.15 -0.891,-5.89 -3.938,-11.689 -8.578,-16.329 z m -10.156,23.825 c -2.949,-10e-4 -6.484,-1.703 -9.225,-4.444 -2.351,-2.351 -3.935,-5.248 -4.343,-7.947 -0.134,-0.881 -0.315,-3.062 0.882,-4.259 0.812,-0.813 2.07,-0.983 2.982,-0.983 2.949,0 6.483,1.702 9.225,4.444 2.351,2.351 3.934,5.247 4.343,7.946 0.133,0.881 0.315,3.062 -0.882,4.26 -0.813,0.813 -2.069,0.983 -2.981,0.983 l -0.001,0 z"
       id="path9"
       inkscape:connector-curvature="0" /><g
       id="g11"><path
         style="fill:#ef8829"
         d="m 233.254,52.349 c -2.018,-2.416 -4.231,-4.738 -6.626,-6.959 2.394,2.221 4.609,4.544 6.626,6.959 z"
         id="path13"
         inkscape:connector-curvature="0" /><path
         style="fill:#ef8829"
         d="m 147.607,17.588 c 2.059,0 4.099,0.059 6.128,0.147 -2.029,-0.088 -4.068,-0.147 -6.128,-0.147 z"
         id="path15"
         inkscape:connector-curvature="0" /><path
         style="fill:#ef8829"
         d="m 257.2,96.019 c 1.027,0.095 2.036,0.25 3.024,0.463 -0.989,-0.213 -1.997,-0.369 -3.024,-0.463 z"
         id="path17"
         inkscape:connector-curvature="0" /><path
         style="fill:#ef8829"
         d="m 222.79,42.055 c 1.038,0.851 2.048,1.718 3.028,2.604 -0.981,-0.886 -1.99,-1.754 -3.028,-2.604 z"
         id="path19"
         inkscape:connector-curvature="0" /><path
         style="fill:#ef8829"
         d="m 209.039,32.735 c 1.207,0.675 2.392,1.37 3.554,2.084 -1.162,-0.714 -2.346,-1.409 -3.554,-2.084 z"
         id="path21"
         inkscape:connector-curvature="0" /><path
         style="fill:#ef8829"
         d="m 260.597,96.578 c 0.828,0.192 1.64,0.424 2.435,0.695 -0.795,-0.271 -1.607,-0.503 -2.435,-0.695 z"
         id="path23"
         inkscape:connector-curvature="0" /><path
         style="fill:#ef8829"
         d="m 213.662,35.478 c 2.921,1.847 5.689,3.812 8.288,5.888 -2.599,-2.077 -5.366,-4.042 -8.288,-5.888 z"
         id="path25"
         inkscape:connector-curvature="0" /><path
         style="fill:#ef8829"
         d="m 275.67,106.737 c 0.492,0.698 0.953,1.419 1.375,2.166 -0.422,-0.748 -0.882,-1.468 -1.375,-2.166 z"
         id="path27"
         inkscape:connector-curvature="0" /><path
         style="fill:#ef8829"
         d="m 273.864,104.476 c 0.464,0.521 0.905,1.061 1.325,1.618 -0.42,-0.558 -0.861,-1.097 -1.325,-1.618 z"
         id="path29"
         inkscape:connector-curvature="0" /><path
         style="fill:#ef8829"
         d="m 198.268,27.473 c 3.352,1.416 6.579,2.966 9.663,4.643 -3.085,-1.677 -6.31,-3.227 -9.663,-4.643 z"
         id="path31"
         inkscape:connector-curvature="0" /><path
         style="fill:#ef8829"
         d="m 273.304,103.86 c -0.527,-0.555 -1.08,-1.082 -1.654,-1.588 0.575,0.505 1.128,1.033 1.654,1.588 z"
         id="path33"
         inkscape:connector-curvature="0" /><path
         style="fill:#ef8829"
         d="m 268.934,100.165 c 0.805,0.536 1.576,1.119 2.314,1.741 -0.738,-0.622 -1.509,-1.205 -2.314,-1.741 z"
         id="path35"
         inkscape:connector-curvature="0" /><path
         style="fill:#ef8829"
         d="m 263.762,97.54 c 0.685,0.257 1.356,0.543 2.013,0.856 -0.657,-0.313 -1.327,-0.598 -2.013,-0.856 z"
         id="path37"
         inkscape:connector-curvature="0" /><path
         style="fill:#ef8829"
         d="m 266.466,98.729 c 0.751,0.387 1.481,0.808 2.186,1.265 -0.705,-0.457 -1.434,-0.877 -2.186,-1.265 z"
         id="path39"
         inkscape:connector-curvature="0" /><path
         style="fill:#ef8829"
         d="m 17.114,131.444 c -0.401,-0.929 -0.738,-1.891 -1.026,-2.873 0.289,0.983 0.626,1.944 1.026,2.873 z"
         id="path41"
         inkscape:connector-curvature="0" /><path
         style="fill:#ef8829"
         d="m 18.51,134.172 c -0.44,-0.754 -0.843,-1.531 -1.205,-2.332 0.362,0.801 0.765,1.577 1.205,2.332 z"
         id="path43"
         inkscape:connector-curvature="0" /><path
         style="fill:#ef8829"
         d="m 15.888,127.798 c -0.199,-0.765 -0.363,-1.545 -0.491,-2.336 0.128,0.792 0.292,1.57 0.491,2.336 z"
         id="path45"
         inkscape:connector-curvature="0" /><path
         style="fill:#ef8829"
         d="m 20.374,136.936 c -0.508,-0.658 -0.984,-1.341 -1.427,-2.048 0.442,0.708 0.918,1.39 1.427,2.048 z"
         id="path47"
         inkscape:connector-curvature="0" /><path
         style="fill:#ef8829"
         d="m 15.261,124.569 c -0.13,-1.043 -0.219,-2.098 -0.219,-3.176 0,1.078 0.089,2.133 0.219,3.176 z"
         id="path49"
         inkscape:connector-curvature="0" /><path
         style="fill:#ef8829"
         d="m 25.096,141.633 c -0.668,-0.51 -1.309,-1.052 -1.923,-1.624 0.614,0.572 1.255,1.113 1.923,1.624 z"
         id="path51"
         inkscape:connector-curvature="0" /><path
         style="fill:#ef8829"
         d="m 277.162,109.094 c -3.647,-2.016 -7.836,-3.168 -12.289,-3.168 -0.028,0 -0.054,-0.004 -0.081,-0.004 -0.027,0 -0.055,0.004 -0.082,0.004 -4.154,0 -7.52,-3.366 -7.52,-7.52 0,-0.8 -0.026,-1.597 -0.064,-2.391 -0.752,-0.067 -1.51,-0.116 -2.28,-0.116 -0.027,0 -0.054,-0.004 -0.081,-0.004 -0.027,0 -0.055,0.004 -0.082,0.004 -4.154,0 -7.521,-3.367 -7.521,-7.52 0,-13.06 -5.019,-25.296 -13.728,-35.809 -18.275,-15.257 -45.471,-24.954 -75.797,-24.954 -54.893,0 -99.551,31.756 -99.551,70.791 0,4.154 -3.367,7.52 -7.521,7.52 -14.057,0 -25.494,11.437 -25.494,25.495 0,4.454 1.152,8.316 3.168,11.964 3.65,2.019 7.84,2.85 12.298,2.85 l 214.309,0 c 14.057,0 25.494,-11.111 25.494,-25.168 -10e-4,-4.459 -1.159,-8.324 -3.178,-11.974 z m -164.213,11.333 c -3.476,3.475 -8.312,5.388 -13.618,5.388 l -0.001,0 c -6.998,-0.001 -14.236,-3.225 -19.86,-8.848 -4.639,-4.64 -7.686,-10.439 -8.579,-16.329 -1.006,-6.64 0.859,-12.891 5.117,-17.15 3.476,-3.474 8.312,-5.388 13.619,-5.388 6.997,0 14.235,3.225 19.86,8.849 4.64,4.64 7.686,10.439 8.579,16.329 1.008,6.638 -0.858,12.889 -5.117,17.149 z m 34.742,-45.386 c -14.647,0 -26.12,-9.324 -26.12,-21.227 0,-11.902 11.473,-21.225 26.12,-21.225 14.647,0 26.12,9.322 26.12,21.225 -0.001,11.903 -11.474,21.227 -26.12,21.227 z m 76.798,25.596 c -0.892,5.89 -3.939,11.688 -8.578,16.329 -5.624,5.623 -12.863,8.848 -19.861,8.848 -5.305,0 -10.142,-1.913 -13.617,-5.387 -4.26,-4.261 -6.124,-10.512 -5.118,-17.151 0.893,-5.891 3.939,-11.69 8.58,-16.329 5.624,-5.624 12.863,-8.849 19.86,-8.849 5.307,0 10.143,1.914 13.618,5.389 4.258,4.259 6.123,10.51 5.116,17.15 z"
         id="path53"
         inkscape:connector-curvature="0" /><path
         style="fill:#ef8829"
         d="m 28.118,143.638 c -0.836,-0.468 -1.637,-0.992 -2.411,-1.548 0.775,0.557 1.575,1.08 2.411,1.548 z"
         id="path55"
         inkscape:connector-curvature="0" /><path
         style="fill:#ef8829"
         d="m 155.529,17.832 c 1.496,0.084 2.983,0.192 4.459,0.323 -1.477,-0.132 -2.963,-0.239 -4.459,-0.323 z"
         id="path57"
         inkscape:connector-curvature="0" /><path
         style="fill:#ef8829"
         d="m 167.629,19.026 c 1.949,0.284 3.87,0.621 5.775,0.985 -1.905,-0.364 -3.826,-0.701 -5.775,-0.985 z"
         id="path59"
         inkscape:connector-curvature="0" /><path
         style="fill:#ef8829"
         d="m 175.037,20.342 c 1.416,0.289 2.819,0.599 4.209,0.932 -1.39,-0.333 -2.793,-0.643 -4.209,-0.932 z"
         id="path61"
         inkscape:connector-curvature="0" /><path
         style="fill:#ef8829"
         d="m 20.706,137.381 c 0.638,0.79 1.322,1.539 2.049,2.247 -0.727,-0.708 -1.411,-1.458 -2.049,-2.247 z"
         id="path63"
         inkscape:connector-curvature="0" /><path
         style="fill:#ef8829"
         d="m 180.836,21.657 c 3.695,0.933 7.29,2.016 10.77,3.242 -3.48,-1.225 -7.074,-2.308 -10.77,-3.242 z"
         id="path65"
         inkscape:connector-curvature="0" /><path
         style="fill:#ef8829"
         d="m 161.743,18.313 c 1.969,0.2 3.925,0.428 5.855,0.709 -1.93,-0.28 -3.886,-0.509 -5.855,-0.709 z"
         id="path67"
         inkscape:connector-curvature="0" /><path
         style="fill:#ef8829"
         d="m 193,25.407 c 1.327,0.486 2.637,0.992 3.929,1.518 -1.293,-0.527 -2.602,-1.032 -3.929,-1.518 z"
         id="path69"
         inkscape:connector-curvature="0" /></g><g
       id="g71"><path
         style="fill:#ce593f"
         d="m 155.282,49.506 c 0.243,0.137 0.468,0.282 0.689,0.429 -0.223,-0.147 -0.444,-0.291 -0.689,-0.429 z"
         id="path73"
         inkscape:connector-curvature="0" /><path
         style="fill:#ce593f"
         d="m 151.884,48.162 c 0.27,0.07 0.519,0.159 0.778,0.24 -0.259,-0.082 -0.507,-0.171 -0.778,-0.24 z"
         id="path75"
         inkscape:connector-curvature="0" /><path
         style="fill:#ce593f"
         d="m 157.183,50.885 c -0.182,-0.172 -0.373,-0.338 -0.583,-0.503 0.209,0.164 0.402,0.332 0.583,0.503 z"
         id="path77"
         inkscape:connector-curvature="0" /><path
         style="fill:#ce593f"
         d="m 153.701,48.753 c 0.264,0.105 0.508,0.224 0.756,0.34 -0.249,-0.116 -0.491,-0.234 -0.756,-0.34 z"
         id="path79"
         inkscape:connector-curvature="0" /><path
         style="fill:#ce593f"
         d="m 157.625,51.341 c 0.162,0.184 0.312,0.369 0.44,0.557 -0.129,-0.189 -0.277,-0.372 -0.44,-0.557 z"
         id="path81"
         inkscape:connector-curvature="0" /><path
         style="fill:#ce593f"
         d="m 158.331,52.354 c 0.102,0.194 0.197,0.388 0.26,0.582 -0.063,-0.195 -0.158,-0.387 -0.26,-0.582 z"
         id="path83"
         inkscape:connector-curvature="0" /><path
         style="fill:#ce593f"
         d="m 141.717,58.889 c -0.132,-0.052 -0.27,-0.1 -0.398,-0.155 0.129,0.056 0.265,0.103 0.398,0.155 z"
         id="path85"
         inkscape:connector-curvature="0" /><path
         style="fill:#ce593f"
         d="m 138.376,56.928 c 0.092,0.081 0.191,0.158 0.289,0.237 -0.098,-0.078 -0.198,-0.156 -0.289,-0.237 z"
         id="path87"
         inkscape:connector-curvature="0" /><path
         style="fill:#ce593f"
         d="m 139.907,58.027 c -0.103,-0.061 -0.194,-0.126 -0.293,-0.188 0.1,0.063 0.19,0.128 0.293,0.188 z"
         id="path89"
         inkscape:connector-curvature="0" /><path
         style="fill:#ce593f"
         d="m 158.618,53.069 c -1.558,-0.521 -3.345,-0.841 -5.27,-0.841 -6.239,0 -11.078,3.324 -11.078,6.183 0,0.232 0.047,0.467 0.11,0.703 1.573,0.535 3.359,0.886 5.311,0.886 6.239,0 11.078,-3.325 11.078,-6.185 0,-0.246 -0.082,-0.496 -0.151,-0.746 z"
         id="path91"
         inkscape:connector-curvature="0" /><path
         style="fill:#ce593f"
         d="m 136.914,55.042 c -0.038,-0.086 -0.075,-0.172 -0.106,-0.259 0.031,0.087 0.068,0.172 0.106,0.259 z"
         id="path93"
         inkscape:connector-curvature="0" /><path
         style="fill:#ce593f"
         d="m 149.869,47.774 c 0.242,0.031 0.465,0.087 0.7,0.127 -0.235,-0.04 -0.458,-0.096 -0.7,-0.127 z"
         id="path95"
         inkscape:connector-curvature="0" /><path
         style="fill:#ce593f"
         d="m 137.495,56.018 c -0.036,-0.045 -0.058,-0.092 -0.092,-0.138 0.034,0.046 0.056,0.092 0.092,0.138 z"
         id="path97"
         inkscape:connector-curvature="0" /></g><g
       id="g99"><path
         style="fill:#ce593f"
         d="m 209.64,96.216 c 0.02,0.148 0.034,0.292 0.043,0.437 -0.009,-0.149 -0.022,-0.285 -0.043,-0.437 z"
         id="path101"
         inkscape:connector-curvature="0" /><path
         style="fill:#ce593f"
         d="m 209.354,95.101 c 0.049,0.119 0.076,0.245 0.113,0.368 -0.037,-0.125 -0.064,-0.247 -0.113,-0.368 z"
         id="path103"
         inkscape:connector-curvature="0" /><path
         style="fill:#ce593f"
         d="m 201.48,102.181 c -2.352,2.351 -3.936,5.247 -4.344,7.946 -0.023,0.152 -0.045,0.355 -0.065,0.575 2.718,-0.334 5.773,-1.941 8.203,-4.373 2.352,-2.351 3.935,-5.248 4.344,-7.947 0.022,-0.145 0.039,-0.367 0.057,-0.574 -2.715,0.337 -5.766,1.942 -8.195,4.373 z"
         id="path105"
         inkscape:connector-curvature="0" /><path
         style="fill:#ce593f"
         d="m 209.685,97.713 c 0.011,-0.14 0.011,-0.273 0.014,-0.429 -0.003,0.146 -0.004,0.297 -0.014,0.429 z"
         id="path107"
         inkscape:connector-curvature="0" /></g><g
       id="g109"><path
         style="fill:#ce593f"
         d="m 93.536,108.985 c -0.546,-0.32 -1.081,-0.689 -1.604,-1.083 0.524,0.394 1.057,0.762 1.604,1.083 z"
         id="path111"
         inkscape:connector-curvature="0" /><path
         style="fill:#ce593f"
         d="m 91.595,107.639 c -0.513,-0.407 -1.015,-0.837 -1.488,-1.309 0.473,0.472 0.975,0.901 1.488,1.309 z"
         id="path113"
         inkscape:connector-curvature="0" /><path
         style="fill:#ce593f"
         d="m 97.207,110.498 c -0.576,-0.137 -1.16,-0.334 -1.745,-0.57 0.585,0.238 1.168,0.432 1.745,0.57 z"
         id="path115"
         inkscape:connector-curvature="0" /><path
         style="fill:#ce593f"
         d="m 95.255,109.84 c -0.569,-0.241 -1.137,-0.518 -1.697,-0.844 0.56,0.327 1.127,0.602 1.697,0.844 z"
         id="path117"
         inkscape:connector-curvature="0" /><path
         style="fill:#ce593f"
         d="m 103.196,105.53 c -0.347,-2.29 -1.575,-4.701 -3.364,-6.821 -0.709,-0.167 -1.407,-0.265 -2.072,-0.265 -0.912,0 -2.17,0.17 -2.982,0.983 -1.198,1.197 -1.016,3.377 -0.882,4.259 0.345,2.28 1.537,4.929 3.313,7.043 0.727,0.174 1.442,0.506 2.123,0.506 l 0.001,0 c 0.912,0 2.168,-0.401 2.981,-1.214 1.197,-1.197 1.015,-3.609 0.882,-4.491 z"
         id="path119"
         inkscape:connector-curvature="0" /></g><polygon
       style="fill:#84bd93"
       points="62.725,172.235 57.628,172.235 74.951,242.856 "
       id="polygon121" /><polygon
       style="fill:#84bd93"
       points="139.08,172.235 112.536,172.235 123.627,277.235 139.08,277.235 "
       id="polygon123" /><polygon
       style="fill:#84bd93"
       points="171.755,277.235 182.845,172.235 155.08,172.235 155.08,277.235 "
       id="polygon125" /><polygon
       style="fill:#84bd93"
       points="199.02,172.235 197.969,172.235 186.879,277.235 199.072,277.235 219.128,161.79 217.392,172.235 206.497,172.235 "
       id="polygon127" /><polygon
       style="fill:#84bd93"
       points="234.393,172.235 232.657,172.235 214.336,277.235 218.359,277.235 246.779,161.79 244.32,172.235 239.808,172.235 "
       id="polygon129" /><polygon
       style="fill:#84bd93"
       points="96.363,172.235 79.745,172.235 77.99,172.235 96.31,277.235 108.504,277.235 96.363,161.79 97.413,172.235 "
       id="polygon131" /><path
       style="fill:#3f2d20"
       d="M 261.837,81.475 C 259.672,60.727 247.767,41.567 227.76,26.934 206.257,11.207 177.792,2.546 147.607,2.546 117.423,2.546 88.959,11.207 67.456,26.934 47.439,41.574 35.531,60.746 33.375,81.505 14.428,84.896 0,101.486 0,121.393 c 0,19.754 14.207,36.244 32.938,39.811 l 30.881,125.901 c 0.826,3.364 3.841,5.729 7.305,5.729 l 153.134,0 c 3.464,0 6.479,-2.365 7.305,-5.729 l 30.882,-125.901 c 18.729,-3.568 32.936,-20.057 32.936,-39.811 -10e-4,-19.966 -14.514,-36.595 -33.544,-39.918 z m -153.333,196.318 -12.194,0 -20.056,-115.864 20.108,0 12.142,115.864 z m 31.666,-115.864 0,115.864 -16.543,0 -12.142,-115.864 28.685,0 z m 15.041,0 28.685,0 -12.141,115.864 -16.544,0 0,-115.864 z m 43.809,0 20.108,0 -20.056,115.864 -12.193,0 12.141,-115.864 z m -138.031,0 20.057,115.864 -4.024,0 -28.42,-115.864 12.387,0 z m 153.346,115.864 20.057,-115.864 12.387,0 -28.42,115.864 -4.024,0 z m 40.51,-130.906 -214.309,0 c -14.057,0 -25.494,-11.437 -25.494,-25.494 0,-14.057 11.437,-25.494 25.494,-25.494 4.154,0 7.521,-3.367 7.521,-7.521 0,-39.034 44.658,-70.791 99.551,-70.791 54.894,0 99.553,31.757 99.553,70.791 0,4.154 3.367,7.521 7.521,7.521 0.027,0 0.055,-0.004 0.082,-0.004 0.028,0 0.054,0.004 0.081,0.004 14.057,0 25.494,11.437 25.494,25.494 0,14.058 -11.437,25.494 -25.494,25.494 z"
       id="path133"
       inkscape:connector-curvature="0" /></g><g
     id="g135" /><g
     id="g137" /><g
     id="g139" /><g
     id="g141" /><g
     id="g143" /><g
     id="g145" /><g
     id="g147" /><g
     id="g149" /><g
     id="g151" /><g
     id="g153" /><g
     id="g155" /><g
     id="g157" /><g
     id="g159" /><g
     id="g161" /><g
     id="g163" /></svg>