<?xml version="1.0" encoding="UTF-8" standalone="no"?>
<svg
   xmlns:dc="http://purl.org/dc/elements/1.1/"
   xmlns:cc="http://creativecommons.org/ns#"
   xmlns:rdf="http://www.w3.org/1999/02/22-rdf-syntax-ns#"
   xmlns:svg="http://www.w3.org/2000/svg"
   xmlns="http://www.w3.org/2000/svg"
   xmlns:sodipodi="http://sodipodi.sourceforge.net/DTD/sodipodi-0.dtd"
   xmlns:inkscape="http://www.inkscape.org/namespaces/inkscape"
   version="1.1"
   id="Capa_1"
   x="0px"
   y="0px"
   viewBox="0 0 872.50054 430.63691"
   xml:space="preserve"
   width="872.50055"
   height="430.6369"
   class=""
   inkscape:version="0.91 r13725"
   sodipodi:docname="logo-fitcode.svg"><metadata
     id="metadata4242"><rdf:RDF><cc:Work
         rdf:about=""><dc:format>image/svg+xml</dc:format><dc:type
           rdf:resource="http://purl.org/dc/dcmitype/StillImage" /><dc:title></dc:title></cc:Work></rdf:RDF></metadata><defs
     id="defs4240" /><sodipodi:namedview
     pagecolor="#ffffff"
     bordercolor="#666666"
     borderopacity="1"
     objecttolerance="10"
     gridtolerance="10"
     guidetolerance="10"
     inkscape:pageopacity="0"
     inkscape:pageshadow="2"
     inkscape:window-width="1535"
     inkscape:window-height="876"
     id="namedview4238"
     showgrid="false"
     inkscape:zoom="0.72167969"
     inkscape:cx="267.20374"
     inkscape:cy="177.40821"
     inkscape:window-x="65"
     inkscape:window-y="24"
     inkscape:window-maximized="1"
     inkscape:current-layer="Capa_1"
     fit-margin-top="0"
     fit-margin-left="0"
     fit-margin-right="0"
     fit-margin-bottom="0" /><g
     id="g4210"
     transform="matrix(0.809202,0,0,0.83220568,-69.051634,0)"><path
       style="fill:#303c42"
       d="M 384,0 128,0 C 104.479,0 85.333,19.135 85.333,42.667 l 0,426.667 C 85.333,492.865 104.479,512 128,512 l 256,0 c 23.521,0 42.667,-19.135 42.667,-42.667 l 0,-426.666 C 426.667,19.135 407.521,0 384,0 Z"
       data-original="#303C42"
       class=""
       id="path4212"
       inkscape:connector-curvature="0" /><path
       style="fill:#f6f6f4"
       d="m 128,21.333 256,0 c 11.771,0 21.333,9.573 21.333,21.333 l 0,362.667 -298.666,0 0,-362.666 c 0,-11.761 9.562,-21.334 21.333,-21.334 z"
       data-original="#E2F4FD"
       class=""
       data-old_color="#EFEFE7"
       id="path4214"
       inkscape:connector-curvature="0" /><linearGradient
       id="SVGID_1_"
       gradientUnits="userSpaceOnUse"
       x1="-43.671398"
       y1="640.48431"
       x2="-25.575701"
       y2="632.0473"
       gradientTransform="matrix(21.3333,0,0,-21.3333,996.3334,13791.667)"><stop
         offset="0"
         style="stop-color:#FFFFFF;stop-opacity:0.2"
         id="stop4217" /><stop
         offset="1"
         style="stop-color:#FFFFFF;stop-opacity:0"
         id="stop4219" /></linearGradient><path
       style="fill:#131010"
       d="m 384,490.667 -256,0 c -11.771,0 -21.333,-9.573 -21.333,-21.333 l 0,-42.667 298.667,0 0,42.667 c -10e-4,11.76 -9.563,21.333 -21.334,21.333 z"
       data-original="#F3F3F3"
       class="active-path"
       data-old_color="#3F2323"
       id="path4221"
       inkscape:connector-curvature="0" /><g
       id="g4223"><path
         style="fill:#303c42"
         d="m 245.333,64 21.333,0 c 5.896,0 10.667,-4.771 10.667,-10.667 0,-5.896 -4.771,-10.667 -10.667,-10.667 l -21.333,0 c -5.896,0 -10.667,4.771 -10.667,10.667 0,5.896 4.772,10.667 10.667,10.667 z"
         data-original="#303C42"
         class=""
         id="path4225"
         inkscape:connector-curvature="0" /><path
         style="fill:#303c42"
         d="m 288,448 -64,0 c -5.896,0 -10.667,4.771 -10.667,10.667 0,5.896 4.771,10.667 10.667,10.667 l 64,0 c 5.896,0 10.667,-4.771 10.667,-10.667 C 298.667,452.771 293.896,448 288,448 Z"
         data-original="#303C42"
         class=""
         id="path4227"
         inkscape:connector-curvature="0" /><circle
         style="fill:#303c42"
         cx="373.33301"
         cy="53.333"
         r="10.667"
         data-original="#303C42"
         class=""
         id="circle4229" /></g><path
       style="fill:#ef4438"
       d="m 160,256 14.729,0 18.375,36.781 c 1.979,3.99 6.083,6.354 10.708,5.844 4.438,-0.49 8.104,-3.688 9.188,-8.021 l 20.875,-83.438 22.354,104.406 c 1.042,4.844 5.292,8.344 10.25,8.427 0.063,0 0.125,0 0.188,0 4.896,0 9.167,-3.323 10.354,-8.083 l 19.563,-78.24 2.229,13.406 c 0.854,5.146 5.313,8.917 10.521,8.917 l 42.666,0 c 5.896,0 10.667,-4.771 10.667,-10.667 0,-5.896 -4.771,-10.667 -10.667,-10.667 l -33.625,0 -9.188,-55.083 c -0.833,-4.99 -5.042,-8.708 -10.104,-8.906 -4.167,-0.49 -9.563,3.156 -10.771,8.073 L 267.458,262.155 245.104,157.76 c -1.042,-4.844 -5.292,-8.344 -10.25,-8.427 -5.479,-0.531 -9.354,3.26 -10.542,8.083 l -25.021,100.021 -8.417,-16.865 c -1.813,-3.625 -5.5,-5.906 -9.542,-5.906 l -21.332,0 c -5.896,0 -10.667,4.771 -10.667,10.667 0,5.896 4.771,10.667 10.667,10.667 z"
       data-original="#EF4438"
       class=""
       id="path4231"
       inkscape:connector-curvature="0" /><linearGradient
       id="SVGID_2_"
       gradientUnits="userSpaceOnUse"
       x1="-45.2742"
       y1="639.41388"
       x2="-24.132"
       y2="629.55481"
       gradientTransform="matrix(21.3333,0,0,-21.3333,996.3334,13791.667)"><stop
         offset="0"
         style="stop-color:#FFFFFF;stop-opacity:0.2"
         id="stop4234" /><stop
         offset="1"
         style="stop-color:#FFFFFF;stop-opacity:0"
         id="stop4236" /></linearGradient></g><text
     xml:space="preserve"
     style="font-style:normal;font-variant:normal;font-weight:normal;font-stretch:normal;font-size:357.73733521px;line-height:125%;font-family:Android;-inkscape-font-specification:Android;letter-spacing:0px;word-spacing:0px;fill:#f4f4f1;fill-opacity:1;stroke:none;stroke-width:1px;stroke-linecap:butt;stroke-linejoin:miter;stroke-opacity:1"
     x="337.97989"
     y="257.58273"
     id="text4244"
     sodipodi:linespacing="125%"
     transform="scale(0.92006868,1.0868754)"><tspan
       sodipodi:role="line"
       id="tspan4246"
       x="337.97989"
       y="257.58273">FIT</tspan></text>
<text
     xml:space="preserve"
     style="font-style:normal;font-variant:normal;font-weight:normal;font-stretch:normal;font-size:184.46139526px;line-height:125%;font-family:Android;-inkscape-font-specification:Android;letter-spacing:0px;word-spacing:0px;fill:#ffffff;fill-opacity:1;stroke:none;stroke-width:1px;stroke-linecap:butt;stroke-linejoin:miter;stroke-opacity:1"
     x="316.4256"
     y="421.40353"
     id="text4248"
     sodipodi:linespacing="125%"
     transform="scale(0.98274187,1.0175612)"><tspan
       sodipodi:role="line"
       id="tspan4250"
       x="316.4256"
       y="421.40353">code</tspan></text>
</svg>